<?xml version="1.0" encoding="utf-8"?>
<!-- Generator: Adobe Illustrator 23.1.0, SVG Export Plug-In . SVG Version: 6.00 Build 0)  -->
<svg version="1.1" id="Layer_1" xmlns="http://www.w3.org/2000/svg" xmlns:xlink="http://www.w3.org/1999/xlink" x="0px" y="0px"
	 viewBox="0 0 96.8 412.6" style="enable-background:new 0 0 96.8 412.6;" xml:space="preserve">
<style type="text/css">
	.st0{fill:none;stroke:#FFFFFF;stroke-miterlimit:10;}
</style>
<path class="st0" d="M81.4,134.2L81.4,134.2c0,0.3,0,0.5-0.1,0.8c-0.3,2.9-0.7,5.7-1,8.6c-0.3,3.7-0.9,7.3-4.2,9.5
	c-1.9,1.3-4,2-6.2,1.5L54,138.1c-0.1-0.7-0.2-1.3-0.3-2c-0.2-1.2-0.7-2.2-1.4-3.2c-1.6-2.2-3.4-4.4-5.2-6.5
	c-3.3-4.1-6.9-8.1-11-11.5c-4.2-3.5-8.7-6.4-13.5-9L54,138.1c0.2,1.3,0.4,2.5,1,3.8c0.8,1.8,2.3,3.1,3.5,4.5
	c1.4,1.6,2.6,3.4,4.3,4.6c2,1.4,4.3,2.7,6.6,3.4c0.2,0,0.3,0.1,0.4,0.1l0,0c1.8,4.6,4,9.4,4.6,14.3c0.3,2.2,0.3,4.5-0.1,6.7
	c-0.3,1.6-1,3.6-0.5,5.3c0.3,0.9,0.9,1.3,1.7,1.8c1.1,0.6,2.4,1.3,3,2.5c0.9,1.7-0.8,3.4-2.4,3.8c-1.4,0.3-2.7,0.4-3.8,1.6
	c-0.4,0.5-0.7,1-0.5,1.6c0.3,1.3,1.5,2.2,2,3.3c0.5,1,0.5,2.1,0,3.1c-0.9,1.9-2.6,2.6-4.5,3.2c-0.6,0.2-1.3,0.3-1.9,0.5
	c-4.4,1.1-8.9,2.1-13.4,2.3c-5.7,0.3-11.5-0.2-17.2-0.5c-2.5-0.1-4.9-0.3-7.4-0.6c-2.6-0.4-5.2-1.1-7.8-1.6c-2.3-0.5-4.7-0.7-7-0.4
	c-0.3,0-0.6,0.1-0.9,0.2l0,0c0,0,0,0,0,0c-0.3,0-0.5-0.1-0.6-0.4c-0.1-0.4,0-0.9,0.1-1.3c0.2-1.3,0.6-2.5,1-3.7
	c0.4-1.2,0.8-2.5,0.6-3.8c-0.1-1.3-0.8-2.8-1.6-3.9c-0.4-0.5-0.8-0.8-1.4-0.8c-1-0.1-2.2,0.1-3-0.6c-0.5-0.5-0.7-1.2-0.6-1.9
	c0.5-2.6,3.8-2.8,5.4-4.3c0.4-0.4,0.5-0.8,0.5-1.3c-0.1-1.7-1.1-3.3-1.3-5c-0.3-2.3,1.3-4.2,0.9-6.4c-0.4-2.2-1.3-4.3-1.8-6.5
	c-0.6-2.6-1.1-5.3-1.3-8c-0.5-5.5-0.1-11.1-0.6-16.6c-0.5-5.4-1.7-10.7-2.3-16.1c-0.7-5.4-0.6-10.9-0.6-16.3c0-5.5-0.2-11,0.8-16.4
	c0.5-2.6,1.3-5.1,2.1-7.6c0.9-2.6,1.8-5.2,2.9-7.6c1.1-2.3,2.6-4.2,4.2-6.1c1.5-1.8,2.6-3.8,4.2-5.5c1.6-1.8,3.9-3.7,6.4-3.7
	c1.2,0,2.5,0.4,3.6,0.8c2.3,0.9,4.4,2.3,6.4,3.8c2,1.6,3.8,3.3,5.5,5.2c1.3,1.4,2.6,2.4,4.2,3.4c0.3,0.2,0.6,0.4,1,0.6c0,0,0,0,0,0
	h0c1.8,1,3.5,2,5.2,3.2c0.3,0.2,0.6,0.4,0.9,0.6c0.3,0.2,0.5,0.4,0.8,0.7c0.2,0.2,0.4,0.4,0.6,0.5s0.4,0.4,0.5,0.5
	c0.2,0.2,0.3,0.4,0.5,0.6c0.2,0.2,0.3,0.4,0.5,0.6c0.1,0.2,0.3,0.4,0.4,0.6c0.1,0.2,0.2,0.4,0.3,0.6c0.1,0.1,0.2,0.3,0.3,0.4
	c0.1,0.2,0.2,0.3,0.2,0.5c0.1,0.2,0.2,0.4,0.3,0.6c0.8,1.7,1.4,3.4,1.9,5.2c0.1,0.2,0.1,0.5,0.2,0.7c0.6,2.6,0.9,5.2,1.2,7.8
	c0.4,4.4,0.8,8.9,3.8,12.4c0.6,0.7,1.3,1.4,1.9,2.2c0.5,0.8,0.9,1.7,1.4,2.5c0.9,1.5,2.3,2.6,3,4.2c0.5,1.1,0.6,2.2,1.3,3.3
	c0.5,0.8,1.3,1.4,2,2l0,0L81.4,134.2z"/>
<path class="st0" d="M13.8,201.6L13.8,201.6C13.8,201.5,13.8,201.5,13.8,201.6L13.8,201.6z"/>
<path class="st0" d="M54.5,75.1c-0.3-0.2-0.6-0.4-0.9-0.6c0,0,0,0,0,0C53.9,74.7,54.2,74.9,54.5,75.1z"/>
<path class="st0" d="M53.6,74.5c-1.7-1.2-3.5-2.2-5.2-3.2h0c0,0,0,0,0,0l0,0C50.2,72.3,52,73.3,53.6,74.5z"/>
<path class="st0" d="M55.3,75.8c1.1,1,2.1,2.1,2.9,3.4c1.2,2.1,2.1,4.4,2.6,6.7c-0.5-1.8-1.1-3.5-1.9-5.2
	C58,78.8,56.8,77.2,55.3,75.8z"/>
<path class="st0" d="M54,138.1L70,154.5c-0.2,0-0.3-0.1-0.4-0.1c-2.3-0.7-4.7-2-6.6-3.4c-1.8-1.2-2.9-3-4.3-4.6
	c-1.3-1.4-2.7-2.8-3.5-4.5C54.5,140.6,54.2,139.4,54,138.1z"/>
<path class="st0" d="M81.4,134.2l-6-13.1c0.2,0.2,0.3,0.4,0.5,0.6c0.4,0.5,0.6,1.2,0.8,1.8c0.4,1,0.8,1.9,1.3,2.8
	c1.1,1.9,2.5,3.7,3.1,5.8C81.4,132.7,81.5,133.4,81.4,134.2z"/>
<path class="st0" d="M96.3,123.8c0,1.7,0,3.4-0.4,5c-0.3,1.4-1.1,2.6-2.2,3.5c-2,1.6-4.7,1.9-7.1,2.1c-1.7,0.1-3.4,0-5-0.2v0
	c0-0.7,0-1.5-0.2-2.2c-0.6-2.1-2-3.9-3.1-5.8c-0.5-0.9-1-1.8-1.3-2.8c-0.2-0.6-0.4-1.3-0.8-1.8c-0.2-0.2-0.3-0.4-0.5-0.6l0,0
	L62.1,92c0,0.1,0.1,0.2,0.2,0.3c0,0,0,0,0,0c0,0.1,0.1,0.1,0.1,0.2c0.4,0.7,0.8,1.4,1.3,2.1c0,0.1,0.1,0.1,0.1,0.2
	c0,0,0.1,0.1,0.1,0.2c0.1,0.1,0.2,0.2,0.3,0.3c0.1,0.2,0.3,0.3,0.4,0.5l0,0c0.2,0.2,0.4,0.4,0.7,0.6c0,0,0,0,0,0c0,0,0.1,0,0.1,0.1
	c0.3,0.2,0.5,0.4,0.8,0.7c0.8,0.6,1.6,1.3,2.3,2c0,0,0,0,0,0c0,0,0.1,0,0.1,0.1c0.1,0.1,0.2,0.2,0.4,0.3c0.1,0.1,0.3,0.3,0.4,0.4
	c0.2,0.2,0.3,0.3,0.5,0.5c0.4,0.4,0.7,0.7,1.1,1c0.3,0.3,0.7,0.6,1,0.9c0.1,0.1,0.2,0.1,0.3,0.2c0.1,0,0.1,0.1,0.2,0.1
	c0.2,0.2,0.4,0.3,0.7,0.4c0.1,0,0.1,0.1,0.2,0.1c0.1,0,0.1,0,0.2,0c0.1,0,0.2,0,0.3,0c0,0,0,0,0,0c0,0,0.1,0,0.1,0c0,0,0,0,0,0
	c0,0,0.1,0,0.1,0c0,0,0.1,0,0.1,0c0,0,0.1,0,0.1,0c0,0,0.1-0.1,0.1-0.1c0.4-0.3,0.7-1,0.9-1.5c0-0.1,0.1-0.2,0.1-0.2c0,0,0,0,0,0
	c0.1-0.2,0.2-0.5,0.2-0.7c0.1-0.2,0.1-0.4,0.2-0.6s0.1-0.4,0.1-0.6c0-0.2,0.1-0.4,0.1-0.5c0.2-1.4,0.1-2.8-0.3-4.1
	c-0.1-0.4-0.3-0.7-0.5-1.1c0,0,0,0,0-0.1c0-0.1-0.1-0.2-0.1-0.3c-0.6-1.5,0.6-2.8,0.3-4.3c-0.3-1.2-1.4-1.9-1.8-3
	c0-0.1-0.1-0.2-0.1-0.3c0,0,0-0.1,0-0.2c0-0.1,0-0.2,0-0.3c0-0.1,0-0.1,0-0.2c0-0.1,0-0.2,0-0.3c0,0,0-0.1,0-0.1c0,0,0,0,0,0
	c0-0.1,0-0.2,0.1-0.3c0-0.1,0.1-0.2,0.1-0.3c0,0,0,0,0,0c0,0,0-0.1,0.1-0.1c0-0.1,0.1-0.1,0.1-0.2c0.1-0.1,0.1-0.2,0.2-0.3
	c0.2-0.3,0.4-0.5,0.5-0.8c0-0.1,0-0.1,0-0.1c0-0.1,0-0.1,0-0.2c0-0.1,0-0.3,0-0.4c0,0,0,0,0,0c0-0.4-0.2-0.9-0.3-1.3
	c0,0,0-0.1,0-0.1v0c-0.4-1.2-0.9-2.3-1.3-3.5c-0.1-0.2-0.2-0.4-0.2-0.6c-0.4-1-0.7-2-1-3c-0.1-0.2-0.1-0.4-0.2-0.6c0,0,0,0,0,0
	c0,0,0,0,0-0.1c-0.2-0.5-0.3-1.1-0.5-1.7c-0.1-0.5-0.2-1.2,0.1-1.5c0,0,0.1-0.1,0.1-0.1c0.1,0,0.2-0.1,0.4-0.1l0,0
	c0.9-0.2,1.9,0.1,2.8,0c0.8-0.1,1.5-0.4,2.2-0.7c1.4-0.6,2.4-0.8,3.9-0.8c1.1,0,2.1-0.3,3-0.8c0.5-0.2,2.5-1.9,2.8-0.7
	c0.2,0.6,0,1.2,0,1.8c0,0.9,0.1,1.8,0.3,2.7c0.3,1.6,0.8,3.2,1.4,4.7c0.8,1.9,1.8,3.7,2.6,5.6c0.4,1,0.5,1.9,0.5,3
	c0,0.9,0.4,1.6,0.8,2.3c0.9,1.7,1.8,3.3,2.3,5.2c0.9,3.5,1,7.3,1.2,10.9c0.3,5,0.6,10,0.8,15C96.2,119.5,96.3,121.7,96.3,123.8z"/>
<path class="st0" d="M67.9,98.4c0.2,0.2,0.5,0.4,0.7,0.7c-0.7-0.7-1.5-1.3-2.3-2C66.8,97.5,67.4,97.9,67.9,98.4z"/>
<path class="st0" d="M70.9,71c0.1,0.6,0.3,1.1,0.5,1.7c-0.3-0.9-0.8-1.9-0.6-2.7c0-0.2,0.1-0.4,0.3-0.4C70.6,69.8,70.7,70.4,70.9,71
	z"/>
<path class="st0" d="M71.5,69.3L71.5,69.3c-0.1,0-0.3,0.1-0.4,0.1c0,0,0.1,0,0.1-0.1C71.3,69.3,71.4,69.3,71.5,69.3L71.5,69.3z"/>
<path class="st0" d="M73.3,85c0,0.1,0,0.1,0,0.2c0,0,0,0,0-0.1V85z"/>
<path class="st0" d="M74.2,80.4c-0.1-0.3-0.2-0.6-0.3-0.9c-0.3-0.9-0.7-1.7-1-2.6C73.3,78.1,73.8,79.2,74.2,80.4z"/>
<path class="st0" d="M74.5,82.6c0,0,0,0.1-0.1,0.1c0-0.1,0.1-0.2,0.1-0.3C74.5,82.5,74.5,82.5,74.5,82.6z"/>
<path class="st0" d="M74.4,82.8c0,0,0.1-0.1,0.1-0.1C74.4,82.7,74.4,82.8,74.4,82.8z"/>
<path class="st0" d="M74,83.4c0.2-0.2,0.3-0.4,0.4-0.6C74.3,83,74.1,83.2,74,83.4z"/>
<path class="st0" d="M74.6,102.8c0.3-0.4,0.6-0.9,0.8-1.4c-0.2,0.6-0.5,1.2-0.9,1.5C74.5,102.9,74.6,102.9,74.6,102.8z"/>
<path class="st0" d="M76,95.9c-0.1-0.8-0.4-1.5-0.8-2.2c0.2,0.3,0.4,0.7,0.5,1.1c0.4,1.2,0.5,2.7,0.3,4.1
	C76.2,97.8,76.1,96.8,76,95.9z"/>
<path class="st0" d="M81.4,134.2l-6-13.1c0.2,0.2,0.3,0.4,0.5,0.6c0.4,0.5,0.6,1.2,0.8,1.8c0.4,1,0.8,1.9,1.3,2.8
	c1.1,1.9,2.5,3.7,3.1,5.8C81.4,132.7,81.5,133.4,81.4,134.2z"/>
<path class="st0" d="M48.4,71.3c1.3-2.2,2.5-4.4,3.3-6.9c0.3-0.7,0.5-1.5,0.9-2.1c0.3-0.5,0.7-0.9,0.9-1.4c0.5-1.4,0-3.1,0-4.5
	c0-1.3,0.4-2.4,1.3-3.3c1.3-1.3,3.2-2.1,5-2.8c1.3-0.5,2.6-0.9,4-1.2c0.8-0.2,1.6-0.4,2.3-0.8c1.7-1.1,1.5-4.4,0.8-6.1
	c-0.5-1.1-1.6-1.8-2-2.9c-0.3-0.8,0.2-1.2,0.3-2c0.1-0.8-0.4-1.6-0.4-2.4c0-0.6,0-1.1-0.2-1.6c-0.3-0.8-0.8-1.6-1.1-2.4
	c-0.2-0.4-0.5-1.2-0.2-1.6c0.4-0.5,1.2-0.3,1.6-0.7c1.3-1,0.5-3.2-0.5-4.1c-1.6-1.4-3.7-1.9-5.5-3c-0.8-0.5-1.6-1.1-1.9-2
	c-0.2-0.5-0.3-1.1-0.5-1.7c-0.3-0.7-0.9-1.4-1.4-2c-0.8-1-1.6-2-2.6-2.9c-0.9-0.8-1.8-1.5-2.6-2.4c-0.6-0.7-1.1-1.5-1.6-2.3"/>
<path class="st0" d="M37.3,27.5c-2.8-1.1-4.9,1.7-4.5,4.4c0.3,2.1,2,3.9,3.6,5.2c1.5,1.3,3.4,2.8,5.4,3c1.2,0.1,1.9-0.5,2.4-1.5"/>
<path class="st0" d="M37.3,27.5c2.8,0.6,5.3,2.6,6.6,5.1c0.2,0.5,0.4,0.9,1,0.7c0.6-0.2,1.4-0.8,1.7-1.4c0.3-0.7,0.1-1.5-0.2-2.2
	c-0.7-2.3-1.5-4.7-2.6-6.9c-0.7-1.5-1.5-2.6-1.7-4.3c-0.1-0.7-0.2-1.5-0.5-2.2c-0.2-0.5-0.6-1-1-1.4c-0.8-1.1-2.1-3.2-1.3-4.6
	c0.3-0.6,1.1-0.8,1.7-1c1.5-0.5,3-1.2,4.6-1.3c0.5,0,3.5,0.9,3.1-0.6c-0.1-0.3-0.3-0.6-0.5-0.8c-0.6-0.7-1.3-1.4-1.9-2.1
	c-0.7-0.7-0.8-1.3-1.2-2.1c-0.3-0.6-0.7-0.4-1.2-0.6c-0.8-0.2-1.3-0.9-2-1.2c-0.7-0.2-1.5-0.1-2.1,0.2c-0.8,0.4-1.4,0.2-2.4,0.1
	c-2.5-0.3-4.1,1.6-6.3,2.3c-2.1,0.7-4.3,0.8-6.4,1.6c-1.9,0.7-3.8,1.5-5.4,2.7c-1.6,1.1-2.7,2.8-4,4.3c-1.3,1.5-2.8,3-3.8,4.7
	c-0.6,1.1-0.8,2.3-0.9,3.6c-0.2,2.4-0.5,4.9-0.5,7.3c0,1.1,0.1,2.2,0.1,3.3c0,1.1-0.1,2.2-0.1,3.2c0.1,1.2,0.3,2.7,1,3.7
	c0.6,0.8,1.6,1.2,2.2,2c0.9,1.1,1.6,2.4,2.7,3.3c1.1,0.9,2.6,1.3,3.7,2.2c1,0.8,1.6,2.1,2.4,3.1c0.6,0.7,1.2,1.3,1.7,2
	c0.3,0.5,0.5,1.2,0.9,1.7c0.2,0.3,0.5,0.4,0.8,0.4c0.3,0,0.6-0.2,0.9-0.4c1-0.5,1.9-1.1,2.8-1.8c0.9-0.7,1.8-1.6,2.3-2.6
	c0.8-1.5,0.8-3.3,1.2-5c0.2-1,0.5-1.9,0.5-2.9c0-0.7-0.1-1.5-0.1-2.2c-0.1-1.1,0.2-2.2,0.5-3.2"/>
<path class="st0" d="M26.7,57.6c0-1.8-0.3-3.6-0.9-5.4"/>
<path class="st0" d="M60,50.2c1.3,1.7,2.7,3.5,3.4,5.5c0.4,1.4,0.3,3,0.9,4.3c0.5,1,1.6,1.3,2.1,2.3c0.4,0.7,0.5,1.5,0.9,2.2
	c0.4,0.8,0.8,1.5,1.4,2.1c0.9,1,2.1,1.5,2.8,2.7"/>
<path class="st0" d="M64.6,33.8c0.3-0.8,1.1-1.6,2-1.5c1.1,0.2,1.1,2,1.2,2.8c0.1,1.6-0.1,3.2,0.3,4.8c0.2,0.7,0.4,1.3,0.6,2
	c0.1,0.5,0.1,1,0.2,1.5c0.1,0.4,0.1,0.5,0.5,0.3c0.6-0.2,1-0.6,1.7-0.5c0.6,0.1,1.2,0.5,1.6,1c0.5,0.7,0.5,1.5,0.8,2.3
	c0.4,0.9,1.3,0.2,2.1,0.3c1,0.1,1.1,1.4,1.9,1.8c0.5,0.3,1.3,0.1,1.9,0.1c0.6,0,1.3,0,1.9,0.3c1.9,0.9,3.1,3.1,3.8,4.9
	c0.6,1.7,1.2,3.6,1.4,5.4c0.1,1.5-0.2,3.1-0.4,4.6c-0.1,0.6-0.2,1.3-0.2,1.9"/>
<path class="st0" d="M13.8,201.6L13.8,201.6C13.8,201.5,13.8,201.5,13.8,201.6L13.8,201.6z"/>
<path class="st0" d="M22.3,390.4c-1.2,1-2.1,2.2-3.4,3.1c-1.2,0.8-2.5,1.1-3.9,1.3c-2.4,0.4-4.9,0.6-7.4,0.7c-1.7,0-3.7,0.3-5.3-0.3
	C2.1,395,2,395,1.9,394.9L22.3,390.4z"/>
<path class="st0" d="M31,388.4c-0.1,0.6-0.7,1.1-1.3,1.4c-0.7,0.3-1.5,0.5-2.3,0.4c-0.5-0.1-1-0.3-1.5-0.6L31,388.4z"/>
<path class="st0" d="M64.4,224c-0.2,2.9-0.4,5.8-0.6,8.6c-0.1,2.1-0.2,4.3-0.7,6.3c-0.6,2.5-1.7,4.8-2.5,7.2
	c-0.9,2.6-1.7,5.2-2.6,7.8c-0.9,2.9-2,5.7-3,8.6c0,0,0,0,0,0l8.2-39.1L64.4,224z"/>
<path class="st0" d="M67.6,202.2l-4.4,21.3l-8.2,39.1l0,0c-0.8,2.1-1.5,4.2-2.2,6.4c-1.6,5-3.1,10.2-4,15.4
	c-0.4,2.5-0.7,5.1-1.2,7.6c-0.3,1.6-0.7,3.3-1.6,4.6c-0.6,0.9-1.5,1.6-2,2.6c-1,1.8-1.3,3.9-2.4,5.6c-0.8,1.3-1.8,2.3-3,3.1
	c-1.5,1.1-3.4,2-4.7,3.4c-1.1,1.3,0.3,2.5,0.1,3.9c-0.3,1.8-1.4,3.4-1.8,5.2c-0.6,2.5-0.7,5-0.9,7.5c-0.2,2.6-0.3,5.2-0.8,7.8
	c-0.5,2.5-1.2,5-1.7,7.5c-1.1,5.5-1.4,11.2-1.8,16.8c-0.1,1.4-0.3,2.6,0.1,4c0.5,1.9,1.5,3.8,1.7,5.8c0.2,1.7-0.3,3.3-0.6,4.9
	c-0.2,1.5-0.3,3.1,0,4.6c0.4,1.5,1.2,2.8,1.3,4.4c0,0.7,0,1.5,0.3,2.1c0.2,0.6,0.6,1.1,0.9,1.6c0.1,0.3,0.2,0.6,0.1,0.9l-5.1,1.1
	c-0.4-0.2-0.8-0.4-1.2-0.4c-0.7-0.1-1.3,0.3-1.8,0.7c-0.2,0.2-0.4,0.3-0.7,0.5l-20.4,4.6c-0.2-0.1-0.4-0.3-0.5-0.6
	c-0.1-0.4-0.1-0.8-0.1-1.2c0-1.2,0.2-2.3,0.1-3.5c-0.1-2.1,0.4-4.3,0.6-6.4c0.1-0.9,0.1-1.8,0.4-2.6c0.2-0.7,0.6-1.3,0.8-2
	c0.4-1.4,0-2.8-0.4-4.1c-0.8-2.4-1.7-4.6-2-7.2c-0.3-2.5-0.2-5-0.2-7.5c0.2-5.3,0.6-10.6,1.2-15.8c0.6-5.3,1.4-10.5,1.7-15.9
	c0.2-2.5,0.2-5.2,0.7-7.7c0.2-1,0.9-1.9,0.9-3c0.1-1.2-0.3-2.7,0.3-3.8c0.1-0.3,0.4-0.5,0.5-0.8c0.1-0.3,0.1-0.7,0.1-1.1
	c0.1-0.7,0.4-0.8,0.9-1.2c0.5-0.4,0.3-0.9,0.3-1.5c-0.1-0.9,0.1-1.8,0.5-2.6c0.4-0.6,1.1-1.2,1.1-1.9c0-0.6-0.3-1-0.2-1.7
	c0.1-0.5,0.7-0.7,0.9-1.2c0.3-0.5-0.1-1.1-0.1-1.7c0-0.7,0.5-0.8,1-1.1c0.8-0.5,1.3-1.5,1.4-2.5c0-0.6-0.3-1.2,0.1-1.6
	c0.5-0.6,0.5-0.5,0.5-1.3c0-0.7,0.3-0.9,0.7-1.5c0.4-0.5,0.2-0.9,0.2-1.6c0-0.8,0.5-1.3,0.9-2c0.2-0.4,0.2-0.8-0.1-1.2
	c-0.5-0.8-1-1.3-0.9-2.3c0.1-1.3,0.5-2.5,0.3-3.8c-0.3-2.1-1-4.1-0.9-6.3c0.1-2.6,0.6-5.3,0.8-8c0.3-2.8,0.4-5.7,0.7-8.5
	c0.2-2.5,0.5-5,0.8-7.5c0.3-2.3,0.5-4.5,0.3-6.7c-0.1-1.4-0.5-3,0.1-4.3c0.4-1.1,1.4-1.8,2.1-2.7c0.6-0.8,0.9-1.8,1-2.8
	c0.1-2.2-0.3-4.5-0.8-6.6c-0.5-2.2-1.6-4-2.7-5.9c-0.9-1.5-1.4-3.1-1.5-4.9c-0.5-5.1-0.4-10.3,0.4-15.4h0c0.3,0,0.6-0.1,0.9-0.2
	c2.3-0.2,4.8,0,7,0.4c2.6,0.5,5.2,1.2,7.8,1.6c2.4,0.4,4.9,0.5,7.4,0.6c5.7,0.3,11.5,0.7,17.2,0.5C58.7,204.3,63.2,203.3,67.6,202.2
	z"/>
<path class="st0" d="M69.7,227.5c-0.9,2.1-2.1,4-2.9,6.1c-0.8,1.9-1.2,3.9-1.5,5.9c-0.6,3.9-0.5,8.2-2.5,11.7
	c-1.2,2-2.8,3.8-4.2,5.6c-1.3,1.8-2.5,3.8-3.6,5.7c0,0,0,0,0,0l8.2-39.1l4.4-21.3c0.2,0.6,0.3,1.2,0.5,1.8c1.1,4.3,2.7,8.5,3.3,12.9
	C71.9,220.6,71.2,224.1,69.7,227.5z"/>
<path class="st0" d="M63.5,408.9c-0.5,0.7-1.3,1.2-2.2,1.5c-2,0.7-4.2,0.7-6.3,0.9c-5.4,0.5-10.8,0.6-16.2,0.6
	c-6,0.1-11.9,0.1-17.9,0.1c-5.1,0-10.1,0.1-15.2-0.1c-2.3-0.1-4.5-0.3-5-2.9c-0.4-2-0.1-4.1,0.1-6.1c0.3-2.7,0.6-5.4,1-8.1h0
	c0.1,0.1,0.2,0.1,0.4,0.2c1.6,0.6,3.6,0.4,5.3,0.3c2.5-0.1,5-0.2,7.4-0.7c1.4-0.2,2.7-0.6,3.9-1.3c1.3-0.8,2.3-2,3.4-3.1l3.7-0.8
	c0.5,0.2,0.9,0.5,1.5,0.6c0.8,0.1,1.6,0,2.3-0.4c0.7-0.3,1.2-0.8,1.3-1.4l0,0c0.7,0.1,1.4,0.1,2,0.3c1.5,0.4,2.7,1.8,3.9,2.7l0,0
	c1.8,1.4,3.8,2.4,5.9,3.3c2.5,1,5.1,1.8,7.5,3c1.1,0.5,2.1,1.2,3.2,1.6c1.1,0.5,2.3,0.8,3.5,1c2.4,0.6,5.7,1.1,7,3.5
	C65,405.4,64.6,407.5,63.5,408.9z"/>
<path class="st0" d="M1.9,394.9l20.4-4.6c-1.2,1-2.1,2.2-3.4,3.1c-1.2,0.8-2.5,1.1-3.9,1.3c-2.4,0.4-4.9,0.6-7.4,0.7
	c-1.7,0-3.7,0.3-5.3-0.3C2.1,395,2,395,1.9,394.9z"/>
<path class="st0" d="M31,388.4c-0.1,0.6-0.7,1.1-1.3,1.4c-0.7,0.3-1.5,0.5-2.3,0.4c-0.5-0.1-1-0.3-1.5-0.6L31,388.4z"/>
<path class="st0" d="M36.7,309.3c-0.6,7.2-0.9,14.4-1.6,21.6c-0.3,3.5-1.1,6.8-2,10.1c-0.2,0.9-0.4,1.8-0.4,2.7
	c0.1,1.2,0.5,2.4,0.8,3.6c0.2,1.3,0.4,2.6,0.2,3.9c-0.1,1.5-0.6,2.9-0.7,4.4c-0.1,0.9,0,1.8,0.2,2.6c0.3,1,0.9,1.7,1.4,2.6
	c1.1,2.1,0.7,4.8,0.7,7.1c0,1.2,0.1,2.4,0.3,3.5c0.3,1.2,0.8,2.4,0.9,3.6c0.2,1.4-0.1,2.9-0.1,4.3c0,1.1,0.2,2.1,0.5,3.2
	c0.7,2.7,0.5,5.5,0.1,8.3c0,0.2-0.1,0.4-0.2,0.6"/>
<g id="POLYLINE_918_">
	<path class="st0" d="M76.1,98.8c0,0.2,0,0.4-0.1,0.5c0,0.2-0.1,0.4-0.1,0.6s-0.1,0.4-0.2,0.6c-0.1,0.2-0.1,0.4-0.2,0.7c0,0,0,0,0,0
		c0,0.1-0.1,0.2-0.1,0.2c-0.2,0.6-0.5,1.2-0.9,1.5c0,0-0.1,0.1-0.1,0.1c0,0,0,0-0.1,0c0,0,0,0-0.1,0c0,0-0.1,0-0.1,0c0,0,0,0,0,0
		c0,0-0.1,0-0.1,0c0,0,0,0,0,0c-0.1,0-0.2,0-0.3,0c-0.1,0-0.1,0-0.2,0c-0.1,0-0.1,0-0.2-0.1c-0.2-0.1-0.5-0.3-0.7-0.4
		c-0.1,0-0.1-0.1-0.2-0.1c-0.1-0.1-0.2-0.1-0.3-0.2c-0.4-0.3-0.7-0.6-1-0.9c-0.4-0.3-0.8-0.7-1.1-1c-0.2-0.2-0.3-0.3-0.5-0.5
		c-0.1-0.1-0.3-0.3-0.4-0.4c-0.1-0.1-0.2-0.2-0.4-0.3c0,0,0-0.1-0.1-0.1c0,0,0,0,0,0c-0.7-0.7-1.5-1.3-2.3-2
		c-0.3-0.2-0.5-0.4-0.8-0.7c0,0,0,0-0.1-0.1c0,0,0,0,0,0c-0.2-0.2-0.4-0.4-0.7-0.6l0,0c-0.1-0.2-0.3-0.3-0.4-0.5
		c-0.1-0.1-0.2-0.2-0.3-0.3c0-0.1-0.1-0.1-0.1-0.2c0,0-0.1-0.1-0.1-0.2c-0.3-0.4-0.5-0.8-0.8-1.2c-0.2-0.3-0.4-0.6-0.5-0.9
		c0-0.1-0.1-0.2-0.1-0.2c0,0,0,0,0,0c-0.2-0.3-0.3-0.6-0.4-0.9c-0.2-1.6-0.5-3.2-0.9-4.8c0-0.2-0.1-0.5-0.2-0.7
		c-0.5-1.8-1.1-3.5-1.9-5.2c-0.1-0.2-0.2-0.4-0.3-0.6c-0.1-0.1-0.1-0.2-0.2-0.4c0-0.1-0.1-0.1-0.1-0.2c-0.1-0.1-0.2-0.3-0.3-0.4
		c-0.1-0.2-0.2-0.4-0.3-0.6c0,0,0,0,0,0c-0.1-0.2-0.3-0.4-0.4-0.6c-0.2-0.2-0.3-0.4-0.5-0.6c-0.1-0.1-0.1-0.1-0.2-0.2
		c-0.3-0.3-0.5-0.6-0.8-0.9c-0.2-0.2-0.4-0.4-0.6-0.5c-0.3-0.2-0.5-0.5-0.8-0.7c-0.3-0.2-0.6-0.4-0.9-0.6c-1.7-1.2-3.5-2.2-5.2-3.2
		h0c0,0,0,0,0,0c0.2-0.3,0.3-0.5,0.5-0.8c0.2-0.3,0.3-0.6,0.5-0.9c0.2-0.4,0.4-0.8,0.7-1.3c0.2-0.4,0.4-0.8,0.6-1.3c0,0,0,0,0,0
		c0.2-0.4,0.4-0.9,0.6-1.3s0.3-0.9,0.5-1.3c0,0,0,0,0-0.1c0.3-0.7,0.5-1.5,0.9-2.1c0.1-0.1,0.1-0.2,0.2-0.3c0.1-0.1,0.1-0.2,0.2-0.2
		c0.1-0.1,0.2-0.2,0.2-0.3c0-0.1,0.1-0.1,0.1-0.2c0-0.1,0.1-0.1,0.1-0.2c0-0.1,0.1-0.1,0.1-0.2c0.3-0.9,0.2-1.9,0.1-2.9
		c0-0.1,0-0.3,0-0.4c0-0.1,0-0.3,0-0.4c0-0.1,0-0.3,0-0.4c0-0.1,0-0.3,0-0.4c0-0.1,0-0.2,0-0.4c0-0.1,0-0.3,0-0.4
		c0-0.1,0-0.2,0.1-0.3c0-0.1,0-0.3,0.1-0.4c0-0.1,0.1-0.3,0.1-0.4c0,0,0,0,0,0c0-0.1,0.1-0.3,0.2-0.4c0.2-0.4,0.4-0.7,0.8-1l0.1-0.1
		c0.1-0.1,0.3-0.2,0.4-0.4c0.1-0.1,0.3-0.2,0.4-0.3c0.3-0.2,0.6-0.4,0.9-0.6c0.5-0.3,1-0.5,1.5-0.8c0.1,0,0.2-0.1,0.3-0.1
		c0.5-0.3,1.2-0.7,1.6-0.6h0c0,0,0,0,0.1,0c0,0,0,0,0,0l0,0c0.3,0.2,0.6,0.7,0.9,1.1c0,0,0,0,0,0c0.1,0.2,0.2,0.3,0.3,0.4
		c0.4,0.5,0.7,1,1,1.6c0.5,0.7,0.9,1.5,1.1,2.2c0,0.1,0,0.1,0.1,0.2c0,0.1,0,0.1,0,0.2c0,0.1,0,0.1,0,0.2c0,0.2,0.1,0.3,0.1,0.5
		c0,0.3,0.1,0.5,0.1,0.8v0c0,0,0,0.1,0,0.1c0,0.3,0.1,0.5,0.1,0.8c0,0.2,0.1,0.4,0.1,0.5c0,0.2,0.1,0.3,0.1,0.4c0,0,0,0.1,0,0.1
		c0,0.1,0.1,0.2,0.1,0.3c0,0,0,0,0,0.1c0,0,0,0.1,0,0.1c0,0,0,0,0,0c0,0.1,0,0.1,0.1,0.2c0,0.1,0.1,0.1,0.1,0.2
		c0.5,0.8,1.4,1.1,1.8,1.9c0,0,0.1,0.1,0.1,0.2c0.1,0.2,0.2,0.4,0.2,0.6c0,0.1,0.1,0.2,0.1,0.3c0.1,0.3,0.2,0.6,0.3,0.9
		c0,0.1,0,0.1,0.1,0.2c0,0.1,0.1,0.2,0.1,0.3c0.1,0.2,0.2,0.5,0.4,0.7c0.1,0.2,0.2,0.3,0.3,0.5c0.1,0.1,0.1,0.2,0.2,0.3
		c0.1,0.1,0.2,0.3,0.3,0.4c0.1,0.1,0.1,0.1,0.2,0.2c0.1,0.1,0.1,0.1,0.2,0.2c0,0,0,0,0,0.1c0.3,0.3,0.6,0.6,1,0.9
		c0.2,0.2,0.4,0.3,0.6,0.4c0,0,0,0,0,0c0.3,0.2,0.5,0.3,0.7,0.6c0.1,0.1,0.2,0.2,0.2,0.3c0.1,0.1,0.1,0.2,0.2,0.3c0,0,0,0,0,0
		c-0.1,0-0.3,0-0.4,0.1c0,0-0.1,0.1-0.1,0.1c-0.4,0.3-0.3,0.9-0.1,1.5c0.1,0.6,0.3,1.1,0.5,1.7c0,0,0,0.1,0,0.1c0,0,0,0,0,0
		c0.4,1.2,0.8,2.4,1.3,3.5c0.1,0.2,0.2,0.4,0.2,0.6c0.4,1.2,0.9,2.3,1.3,3.5v0c0,0,0,0.1,0,0.1c0.1,0.2,0.1,0.4,0.2,0.6
		c0.1,0.2,0.1,0.5,0.1,0.7c0,0,0,0,0,0c0,0.1,0,0.3,0,0.4c0,0.1,0,0.2,0,0.2c0,0,0,0.1,0,0.1c0,0,0,0.1-0.1,0.1c0,0.1,0,0.1-0.1,0.1
		c-0.1,0.2-0.3,0.4-0.4,0.6c-0.1,0.1-0.2,0.2-0.2,0.3c-0.1,0.1-0.1,0.1-0.1,0.2c0,0,0,0.1-0.1,0.1c0,0,0,0,0,0
		c-0.1,0.1-0.1,0.2-0.1,0.3c0,0.1-0.1,0.2-0.1,0.3c0,0,0,0,0,0c0,0,0,0.1,0,0.1c0,0.1,0,0.2,0,0.3c0,0.1,0,0.1,0,0.2
		c0,0.1,0,0.2,0,0.3c0,0.1,0,0.1,0,0.2c0,0.1,0.1,0.2,0.1,0.3c0.1,0.3,0.3,0.6,0.5,0.9c0.9,1.2,1.7,2,1.3,3.6
		c-0.2,0.7-0.5,1.4-0.4,2.1c0,0.4,0.2,0.7,0.4,1c0,0,0,0,0,0.1c0.2,0.3,0.4,0.7,0.5,1.1C76.1,96,76.2,97.4,76.1,98.8z"/>
</g>
</svg>
