<?xml version="1.0" encoding="utf-8"?>
<!-- Generator: Adobe Illustrator 23.1.0, SVG Export Plug-In . SVG Version: 6.00 Build 0)  -->
<svg version="1.1" id="Layer_1" xmlns="http://www.w3.org/2000/svg" xmlns:xlink="http://www.w3.org/1999/xlink" x="0px" y="0px"
	 viewBox="0 0 735 735" style="enable-background:new 0 0 735 735;" xml:space="preserve">
<style type="text/css">
	.st0{fill:#FFFFFF;}
	.st1{fill:none;stroke:#FFFFFF;stroke-width:2;stroke-linecap:round;stroke-linejoin:round;}
</style>
<title>Comparison Image</title>
<path class="st0" d="M151.2,270.1c1.3,0.1,2.6,0.4,3.9,0.9c2.8,1.2,5.3,2.7,7.7,4.6c2.5,2,4.7,4.1,6.8,6.5h0.1
	c1.7,1.8,3.6,3.4,5.7,4.7c0.4,0.3,0.7,0.4,1,0.6l0.4,0.2l0,0c1.9,1.1,4.2,2.4,6.5,4c0.3,0.2,0.5,0.3,0.7,0.5s0.3,0.2,0.5,0.3
	c0.3,0.2,0.5,0.5,0.8,0.7c0.3,0.4,0.7,0.7,1.1,0.9c0.1,0.1,0.2,0.2,0.3,0.3c0.1,0.1,0.1,0.2,0.2,0.3l0.1,0.2
	c0.1,0.1,0.2,0.2,0.3,0.3c0.1,0.1,0.1,0.2,0.2,0.3l0,0c0.1,0.2,0.3,0.5,0.4,0.7c0.1,0.2,0.2,0.4,0.3,0.6v0.1
	c0.1,0.2,0.2,0.5,0.4,0.7l0.1,0.1l0.1,0.1c0,0.1,0.1,0.2,0.1,0.3c0.1,0.3,0.2,0.5,0.4,0.7v0.1l0.1,0.1c0.9,2.1,1.7,4.2,2.3,6.4v0.1
	v0.1c0.1,0.3,0.2,0.6,0.3,0.9c0.7,3.1,1.1,6.3,1.4,9.5c0.5,5.9,1.1,12,5.4,17.1l0.6,0.7c0.6,0.6,1.1,1.2,1.6,1.9
	c0.3,0.5,0.5,0.9,0.8,1.5s0.6,1.1,1,1.7c0.6,0.8,1.2,1.6,1.8,2.4c0.8,0.8,1.4,1.7,1.9,2.7c0.2,0.4,0.3,0.9,0.5,1.4
	c0.3,1.1,0.8,2.1,1.4,3.1c0.7,1,1.5,1.8,2.4,2.6l0.3,0.2l7.2,16v0.1c0,0.1,0,0.2-0.1,0.3c-0.2,1.7-0.4,3.5-0.6,5.2
	c-0.2,1.9-0.5,3.9-0.7,6c-0.4,5.2-1.3,8.6-4.5,10.7h-0.1c-1.4,1.1-3.1,1.7-4.9,1.8c-0.3,0-0.6,0-0.9-0.1l-0.1-0.1l-19.3-20.1
	l-0.1-0.7c-0.1-0.4-0.1-0.8-0.2-1.2v-0.2c-0.4-1.7-1.1-3.4-2.1-4.9v-0.1c-2.2-3-4.6-5.9-6.8-8.5c-4.3-5.5-9.1-10.5-14.4-15.1
	c-5.5-4.5-11.4-8.5-17.7-11.8c-0.3-0.2-0.7-0.2-1-0.2c-1.1,0-2,0.9-2,2c0,0.5,0.2,1,0.6,1.4l40,41c0.2,1.6,0.7,3.3,1.3,4.8
	c0.9,1.8,2.1,3.4,3.5,4.9c0.4,0.5,0.9,1,1.3,1.4s0.9,1.1,1.3,1.6c1.3,1.8,2.8,3.3,4.6,4.7c2.6,1.9,5.6,3.5,8.6,4.5
	c0.3,0.6,0.5,1.2,0.7,1.9c2,4.9,4,10,4.7,15.1c0.4,2.6,0.4,5.3-0.1,7.9c-0.1,0.4-0.2,0.9-0.3,1.3c-0.4,1.9-1,4.2-0.3,6.5
	c0.6,1.5,1.7,2.7,3.1,3.4l0.3,0.1c1.1,0.5,2.1,1.3,2.9,2.3c0.1,0.2,0.1,0.4,0,0.6c-0.4,0.7-1,1.2-1.8,1.4l-0.8,0.1
	c-2,0.2-3.9,1.1-5.2,2.6c-1,1-1.4,2.5-1,4c0.4,1.2,1,2.3,1.9,3.3c0.3,0.4,0.6,0.8,0.9,1.2c0.3,0.7,0.3,1.5,0,2.3
	c-0.8,1.6-2.2,2.3-4.6,3.1h-0.1c-0.4,0.1-0.8,0.2-1.2,0.3c-0.3,0.1-0.7,0.1-1,0.2c-5.5,1.5-11.1,2.5-16.8,2.9
	c-1.4,0.1-2.9,0.1-4.6,0.1c-3.8,0-7.7-0.2-11.5-0.4c-1.9-0.1-3.9-0.2-5.9-0.3c-2.8-0.1-5.6-0.3-9.3-0.8c-2.2-0.3-4.4-0.9-6.6-1.4
	c-1.1-0.2-2.1-0.5-3.2-0.7c-2.2-0.5-4.4-0.7-6.6-0.7c-0.9,0-1.8,0-2.7,0.1c0.3-1.2,0.6-2.4,1-3.5l0.1-0.5c0.7-1.8,1-3.8,0.9-5.7
	c-0.2-2.2-1.1-4.3-2.5-6.1l0,0c-0.8-1-2-1.7-3.3-1.7h-0.9c-0.6,0-1.2,0-1.7-0.3c-0.1-0.2-0.2-0.4-0.2-0.6c0.2-0.9,1.1-1.5,3-2.3
	c1.2-0.5,2.3-1.2,3.3-2l0,0c0.8-0.8,1.3-2,1.2-3.1v-0.1c-0.1-1.4-0.5-2.8-1-4.1c-0.3-0.8-0.6-1.7-0.7-2.5c-0.1-1.1,0.1-2.2,0.6-3.3
	c0.6-1.6,0.8-3.3,0.6-5c-0.3-1.6-0.7-3.1-1.2-4.6c-0.4-1.3-0.8-2.5-1.1-3.8c0,0,0,0,0-0.1c-0.8-3.3-1.4-6.6-1.6-10
	c-0.3-3.3-0.3-6.8-0.4-10.1c0-3.7-0.1-7.5-0.4-11.2c-0.3-3.9-1-7.9-1.6-11.7c-0.5-3-1-6.1-1.4-9.1c-0.7-6.3-0.9-12.5-0.8-18.8v-1.9
	c0-1.1,0-2.3,0-3.4c0-6-0.1-11.6,1-17.4c0.6-2.8,1.3-5.6,2.3-8.4l0.4-1.1l0.9-2.5c0.9-2.4,1.7-4.9,2.7-7.1c1.3-2.7,3-5.1,5.1-7.3
	l0,0c0.9-1,1.6-2.1,2.3-3.1c0.9-1.4,1.9-2.7,3-3.9c2.5-2.8,4.8-4.1,6.7-4.1 M151.2,268.3c-3.2,0-6.1,2.5-8.2,4.8s-3.5,4.8-5.4,7.1
	c-2.2,2.3-4,5-5.4,7.8c-1.4,3.1-2.5,6.5-3.7,9.8c-1.1,3.2-2,6.5-2.7,9.8c-1.3,7-1,14-1,21.1s-0.1,14.1,0.8,21s2.4,13.8,3,20.7
	s0.2,14.2,0.8,21.3c0.3,3.5,0.9,6.9,1.7,10.3c0.6,2.9,1.8,5.6,2.3,8.4s-1.6,5.2-1.2,8.2c0.3,2.2,1.6,4.2,1.7,6.4
	c0.1,0.6-0.2,1.3-0.6,1.7c-2,1.9-6.3,2.2-6.9,5.5c-0.1,0.9,0.2,1.8,0.8,2.4c1.1,0.9,2.6,0.7,3.9,0.8c0.7,0,1.4,0.4,1.8,1
	c1.2,1.4,1.9,3.2,2.1,5c0.1,1.7-0.2,3.3-0.8,4.9c-0.5,1.6-1,3.2-1.3,4.8c-0.1,0.6-0.2,1.1-0.1,1.7c0.1,0.3,0.4,0.5,0.8,0.5
	c0.4-0.2,0.8-0.3,1.2-0.3c0.9-0.1,1.9-0.2,2.8-0.2c2.1,0,4.1,0.3,6.2,0.7c3.3,0.7,6.7,1.6,10,2.1s6.3,0.7,9.5,0.8
	c5.8,0.2,11.6,0.7,17.4,0.7c1.6,0,3.1,0,4.7-0.1c5.8-0.5,11.6-1.5,17.2-3c0.7-0.2,1.6-0.3,2.4-0.6c2.5-0.8,4.6-1.7,5.8-4.1
	c0.6-1.3,0.6-2.7,0-4c-0.7-1.4-2.2-2.5-2.6-4.2c-0.2-0.8,0-1.6,0.6-2.1c1.4-1.6,3.1-1.7,4.9-2.1c2.1-0.5,4.3-2.7,3.1-4.9
	c-0.8-1.5-2.5-2.4-3.9-3.2c-1-0.4-1.8-1.3-2.2-2.3c-0.7-2.2,0.2-4.7,0.6-6.8c0.5-2.8,0.5-5.7,0.1-8.6c-0.8-6.2-3.6-12.4-5.8-18.2
	l-0.2-0.2c-0.1,0-0.2-0.1-0.4-0.1c-3-1-5.9-2.5-8.5-4.4c-2.2-1.5-3.7-3.8-5.5-5.9c-1.5-1.8-3.5-3.5-4.5-5.8
	c-0.7-1.5-1.1-3.1-1.3-4.8l0,0c0,0,0-0.1,0-0.1L144.8,330c6.2,3.3,12,7.2,17.4,11.6c5.2,4.5,9.9,9.4,14.1,14.8
	c2.3,2.7,4.6,5.6,6.7,8.4c0.9,1.2,1.5,2.6,1.8,4.1c0.1,0.9,0.3,1.6,0.4,2.5l0,0v0.1l20.2,21h0.1l0.1,0.2l0,0c0.7,0.2,1.3,0.2,2,0.2
	c2.2-0.1,4.3-0.8,6-2.1c4.2-2.8,5-7.4,5.4-12.2c0.4-3.8,0.9-7.4,1.3-11.1c0.1-0.3,0.1-0.7,0.1-1l-7.6-16.8c-1-0.7-1.9-1.6-2.6-2.6
	c-0.7-1.3-1.3-2.8-1.7-4.2c-0.9-2.1-2.7-3.5-3.9-5.4c-0.6-1-1.2-2.2-1.8-3.2c-0.7-1-1.5-1.9-2.4-2.8c-3.9-4.5-4.4-10.2-4.9-15.9
	c-0.3-3.4-0.8-6.7-1.5-10c-0.1-0.3-0.2-0.6-0.3-0.9c-0.6-2.3-1.4-4.5-2.4-6.7c-0.1-0.3-0.3-0.5-0.4-0.8s-0.2-0.3-0.3-0.6
	c-0.1-0.1-0.3-0.4-0.4-0.5c-0.1-0.3-0.3-0.5-0.4-0.8s-0.4-0.5-0.5-0.8c0,0-1.2-1.6-1.2-1.6c-0.1-0.1-0.3-0.5-0.6-0.6
	c-0.3-0.1-0.6-0.3-0.8-0.6c-0.3-0.3-0.6-0.6-1-0.9c-0.4-0.3-0.8-0.5-1.2-0.8c-2.2-1.5-4.4-2.8-6.7-4.1c-0.4-0.2-0.9-0.5-1.3-0.8
	c-2-1.2-3.8-2.7-5.4-4.4c-2.1-2.4-4.5-4.6-7-6.6c-2.5-2-5.3-3.6-8.2-4.9c-1.5-0.6-3-0.9-4.6-1L151.2,268.3z"/>
<path class="st0" d="M184.6,289.7c0.4,0.3,0.8,0.5,1.2,0.8C185.4,290.2,185,289.9,184.6,289.7z"/>
<path class="st0" d="M178,285.6c2.2,1.3,4.5,2.6,6.7,4.1C182.5,288.2,180.3,286.9,178,285.6z"/>
<path class="st0" d="M186.9,291.4c1.9,1.8,3.4,3.9,4.6,6.3c1,2.2,1.8,4.4,2.4,6.7c-0.7-3-1.8-5.9-3.3-8.6
	C189.6,294.2,188.3,292.7,186.9,291.4z"/>
<path class="st0" d="M185.2,371.5c0.2,1.7,0.8,3.4,1.6,4.9c1.2,2.2,2.7,4.1,4.5,5.8c1.8,2,3.2,4.4,5.5,5.9c2.6,1.9,5.4,3.4,8.5,4.4
	c0.2,0.1,0.3,0.1,0.5,0.1L185.2,371.5L185.2,371.5z"/>
<path class="st0" d="M212.7,349.7l7.7,16.8c0.2-0.9,0.1-1.8-0.4-2.6c-0.8-2.7-2.6-5.1-4-7.5c-0.7-1.2-1.2-2.4-1.7-3.6
	c-0.2-0.8-0.5-1.6-1-2.3C213.1,350.2,212.9,350,212.7,349.7z"/>
<path class="st0" d="M226.1,280.7L226.1,280.7 M224.7,281.5L224.7,281.5c0,1.3,0.1,2.6,0.4,3.9c0.4,2.2,1,4.3,1.9,6.3
	c0.5,1.3,1.1,2.5,1.7,3.7s1.1,2.3,1.6,3.5c0.4,1,0.5,2.1,0.5,3.2c0,1.4,0.5,2.8,1.2,4l0.1,0.1c1.2,1.9,2.1,4,2.8,6.2
	c0.9,4,1.4,8.2,1.4,12.3l0.1,1.3c0.4,5.9,0.8,12.7,1,19.3c0,0.8,0.1,1.6,0.1,2.4c0.1,1.8,0.2,3.7,0.2,5.5c0.1,2-0.1,4-0.4,5.9v0
	c-0.3,1.3-1.1,2.5-2.1,3.4c-2.1,1.7-5,2-7.9,2.2H227c-0.5,0-1,0-1.5,0c-1,0-1.9,0-2.8-0.1c-0.1-0.5-0.2-1.1-0.3-1.6
	c-0.7-2-1.7-4-2.9-5.8c-0.4-0.7-0.9-1.4-1.2-2.1l-0.5-1c-0.4-0.7-0.7-1.5-1-2.3c0,0,0-0.1,0-0.1l-0.2-0.5c-0.2-0.8-0.6-1.6-1.1-2.3
	l-0.1-0.1c-0.1-0.1-0.2-0.2-0.2-0.3l-0.1-0.1l-11.7-24.7l0.3,0.3l0.4,0.4l0.2,0.2c0.5,0.5,1,0.9,1.5,1.4c0.2,0.2,0.4,0.4,0.6,0.6
	l0.6,0.5c0.1,0.1,0.3,0.3,0.4,0.4c0.2,0.2,0.4,0.3,0.6,0.4h0.1c0.4,0.3,0.8,0.5,1.2,0.6c0.3,0.2,0.7,0.2,1,0.2h1.1
	c0.5,0,1-0.2,1.4-0.6l0,0c0.7-0.6,1.2-1.4,1.5-2.3l0.1-0.2c0.1-0.1,0.1-0.3,0.1-0.4l0.1-0.1c0,0,0-0.1,0.1-0.1
	c0.2-0.3,0.3-0.7,0.3-1c0,0,0-0.1,0-0.1l0,0c0.3-0.5,0.5-1.2,0.4-1.8c0-0.1,0.1-0.3,0.1-0.4c0.3-2,0.1-4.1-0.4-6
	c-0.1-0.5-0.3-0.9-0.5-1.3l-0.1-0.1c0-0.1-0.1-0.2-0.1-0.4c0-0.1-0.1-0.3-0.1-0.4c-0.1-0.4-0.1-0.8,0.2-1.7c0.4-1.1,0.5-2.3,0.3-3.5
	v-0.1c-0.3-1-0.8-1.9-1.5-2.7c-0.3-0.4-0.6-0.8-0.8-1.2c0,0,0-0.1,0-0.1v-1c0,0,0-0.1,0-0.1l0.1-0.2c0-0.1,0.1-0.1,0.1-0.2l0.1-0.1
	l0.1-0.2c0.4-0.4,0.7-1,0.8-1.5c0-0.2,0.1-0.3,0.1-0.5v-0.9c0-0.6-0.1-1.1-0.3-1.7l-0.1-0.3c0-0.2,0-0.3-0.1-0.5
	c-0.3-0.8-0.6-1.6-0.9-2.4s-0.6-1.5-0.8-2.1c-0.1-0.2-0.1-0.4-0.2-0.5c0-0.1-0.1-0.2-0.1-0.4c-0.5-1.2-0.9-2.5-1.3-3.8
	c0,0,0-0.1,0-0.1c-0.1-0.2-0.1-0.5-0.3-0.7c0-0.1-0.1-0.2-0.1-0.4c-0.1-0.3-0.2-0.7-0.3-1c0-0.2-0.1-0.3-0.1-0.5h0.6
	c0.4,0,0.9,0,1.3,0c0.2,0,0.4,0,0.6,0c1.2-0.1,2.3-0.5,3.4-1c1.3-0.6,2.7-0.9,4.2-0.8c1.7,0,3.3-0.4,4.8-1.2
	C224.2,281.8,224.5,281.7,224.7,281.5 M208.9,284L208.9,284 M212.8,301.5L212.8,301.5 M212.7,302.2L212.7,302.2 M215.5,321.2
	L215.5,321.2 M215,323.4L215,323.4 M215,323.6L215,323.6 M214.5,324.6L214.5,324.6 M226,278.7c-0.9,0-2.5,1.2-2.9,1.4
	c-1.2,0.6-2.5,1-3.9,1c-1.7-0.1-3.4,0.3-5,1c-0.9,0.4-1.8,0.8-2.8,0.9H211c-0.7,0-1.4-0.1-2.2-0.1c-0.3,0-0.7,0-1,0.1
	c-0.2,0-0.3,0.1-0.5,0.1l-0.1,0.1c-0.4,0.4-0.2,1.3-0.1,1.9c0.1,0.8,0.3,1.5,0.6,2.2v0.1c0.1,0.2,0.2,0.5,0.3,0.8
	c0.4,1.3,0.8,2.6,1.3,3.9c0,0.3,0.2,0.5,0.3,0.8c0.5,1.5,1.2,3,1.7,4.5v0.1c0.2,0.6,0.3,1.1,0.4,1.7v0.9c-0.1,0.4-0.3,0.7-0.6,1
	c-0.2,0.1-0.2,0.3-0.3,0.4s-0.1,0.2-0.1,0.3c-0.1,0-0.1,0-0.1,0.1l0,0c0,0.1-0.1,0.3-0.1,0.4c-0.1,0.1-0.1,0.3-0.1,0.4v1.5
	c0,0.1,0.1,0.3,0.1,0.4c0.5,1.5,1.9,2.4,2.3,3.9c0.4,1.9-1.2,3.6-0.4,5.5c0,0.1,0.1,0.3,0.1,0.4v0.1c0.2,0.4,0.4,0.9,0.6,1.4
	c0.5,1.7,0.7,3.5,0.4,5.3c-0.1,0.2-0.1,0.4-0.1,0.6c0,0.3,0.1,0.5-0.1,0.8c-0.1,0.2-0.2,0.5-0.3,0.8c-0.1,0.3-0.2,0.6-0.3,0.9
	c0,0.1-0.1,0.2-0.1,0.3c-0.3,0.7-0.7,1.3-1.2,1.9l-0.1,0.1h-1.1c-0.2,0-0.2-0.1-0.3-0.1c-0.3-0.1-0.7-0.2-0.9-0.5
	c-0.2,0-0.2-0.1-0.3-0.1c-0.1-0.2-0.3-0.2-0.4-0.3c-0.4-0.4-0.9-0.8-1.3-1.2c-0.5-0.4-1-0.8-1.4-1.3l-0.6-0.6l-0.5-0.5
	c-0.2-0.1-0.4-0.2-0.5-0.4c0-0.1,0-0.1-0.1-0.1h0c-1-0.9-2-1.8-3-2.6c-0.3-0.3-0.6-0.6-1-0.9c0-0.1,0-0.1-0.1-0.1h0
	c-0.3-0.2-0.6-0.5-0.9-0.8c-0.1-0.2-0.4-0.3-0.5-0.6l-0.4-0.4c0-0.1,0-0.2-0.1-0.3c0-0.2-0.1-0.2-0.1-0.3c-0.6-0.9-1.2-1.8-1.7-2.7
	c0-0.2-0.1-0.2-0.1-0.3c-0.1,0-0.1-0.1-0.2-0.1l17.4,37c0.2,0.3,0.4,0.6,0.6,0.8c0.5,0.7,0.8,1.5,1,2.3c0.5,1.2,1,2.4,1.7,3.6
	c1.4,2.5,3.2,4.8,4,7.5c0.2,0.9,0.3,1.9,0.3,2.8c1.6,0.2,3.2,0.3,4.8,0.3c0.6,0,1.1,0,1.6,0c3.1-0.3,6.5-0.6,9.1-2.7
	c1.4-1.2,2.4-2.7,2.8-4.5c0.4-2.1,0.6-4.3,0.5-6.4c0-2.7-0.2-5.5-0.3-8c-0.2-6.4-0.6-12.9-1-19.3c-0.2-4.6-0.3-9.5-1.5-14
	c-0.7-2.3-1.7-4.6-3-6.7c-0.6-0.9-0.9-1.9-1-3c0.1-1.3-0.1-2.7-0.6-3.9c-1-2.4-2.3-4.8-3.3-7.2c-0.8-1.9-1.4-3.9-1.8-6
	c-0.3-1.1-0.4-2.3-0.4-3.5c0.2-0.8,0.2-1.5,0-2.3C226.7,278.9,226.4,278.6,226,278.7L226,278.7z M195.7,312.1c0,0.1,0.1,0.2,0.1,0.3
	L195.7,312.1z"/>
<path class="st0" d="M201,318.8c1.1,0.9,2.1,1.7,3,2.6c-0.3-0.3-0.6-0.6-0.9-0.9C202.5,319.9,201.7,319.3,201,318.8z"/>
<path class="st0" d="M208.7,283.9L208.7,283.9 M207.1,283.4c-0.3,0-0.4,0.2-0.4,0.5c-0.2,1.1,0.4,2.3,0.8,3.5
	c-0.2-0.7-0.4-1.5-0.6-2.2C206.7,284.5,206.5,283.7,207.1,283.4z"/>
<path class="st0" d="M207.7,283h-0.4c0,0.1,0,0.1-0.1,0.1h0C207.3,283.1,207.6,283,207.7,283z"/>
<path class="st0" d="M209.5,292.8c0.5,1.6,1.2,3,1.7,4.5c-0.1-0.4-0.3-0.8-0.4-1.2C210.4,294.9,209.9,293.9,209.5,292.8z"/>
<path class="st0" d="M211.6,299.8c0,0.1-0.1,0.3-0.1,0.4c0.1,0,0.1,0,0.1-0.1l0,0V299.8z"/>
<path class="st0" d="M211.5,300.3L211.5,300.3z M211.5,300.3c-0.1,0-0.1,0-0.1,0.1l0,0L211.5,300.3z"/>
<path class="st0" d="M211.4,300.4L211.4,300.4z M211.4,300.4c-0.1,0.3-0.4,0.5-0.5,0.8C211.1,301,211.3,300.7,211.4,300.4z"/>
<path class="st0" d="M212.7,324.3L212.7,324.3z M212.7,324.3l-0.1,0.4C212.6,324.6,212.6,324.4,212.7,324.3z M212.5,324.7
	c-0.2,0.4-0.4,0.8-0.7,1.2C212.1,325.6,212.4,325.1,212.5,324.7z M211.8,325.9c-0.1,0.1-0.2,0.2-0.4,0.3c0.1,0,0.2,0,0.2-0.1
	L211.8,325.9z"/>
<path class="st0" d="M212.5,314.4c0.2,0.3,0.3,0.6,0.5,1C212.9,315.1,212.7,314.7,212.5,314.4z M213,315.4c0,0.1,0.1,0.3,0.1,0.4
	c0.5,1.7,0.6,3.5,0.4,5.3c0.2-1.3,0.2-2.6,0-3.9C213.4,316.6,213.2,316,213,315.4z"/>
<path class="st0" d="M212.7,349.7l7.7,16.8c0.2-0.9,0.1-1.8-0.4-2.6c-0.8-2.7-2.6-5.1-4-7.5c-0.7-1.2-1.2-2.4-1.7-3.6
	c-0.2-0.8-0.5-1.6-1-2.3C213.1,350.2,212.9,350,212.7,349.7z"/>
<path class="st1" d="M178,285.6c1.8-2.8,3.2-5.8,4.2-8.9c0.3-0.9,0.7-1.8,1.2-2.7c0.4-0.6,0.8-1.2,1.2-1.8c0.6-1.8,0-4,0-5.8
	c-0.1-1.6,0.5-3.1,1.7-4.2c1.9-1.6,4-2.8,6.4-3.6c1.7-0.7,3.4-1.2,5.1-1.5c1-0.2,2-0.6,3-1c2.2-1.4,1.9-5.7,1-7.8
	c-0.6-1.4-2.1-2.3-2.6-3.7c-0.4-1,0.3-1.5,0.4-2.6s-0.5-2.1-0.5-3.1c0.1-0.7,0-1.4-0.3-2.1c-0.4-1-1-2.1-1.4-3.1
	c-0.4-0.6-0.5-1.4-0.3-2.1c0.5-0.6,1.5-0.4,2.1-0.9c1.7-1.3,0.6-4.1-0.6-5.3c-2.1-1.8-4.8-2.4-7.1-3.9c-1.1-0.5-2-1.5-2.4-2.6
	c-0.3-0.7-0.5-1.4-0.6-2.2c-0.5-0.9-1.1-1.8-1.8-2.6c-1-1.3-2.1-2.6-3.3-3.7c-1.2-0.9-2.3-2-3.3-3.1c-0.8-0.9-1.5-1.9-2.1-3"/>
<path class="st1" d="M163.7,229.3c-3.6-1.4-6.3,2.2-5.8,5.7c0.4,2.7,2.6,5,4.6,6.7s4.4,3.6,6.9,3.9c1.3,0.1,2.6-0.6,3.1-1.9"/>
<path class="st1" d="M163.7,229.3c3.7,0.9,6.8,3.3,8.5,6.6c0.3,0.6,0.5,1.2,1.3,0.9c0.9-0.3,1.7-1,2.2-1.8c0.3-0.9,0.2-2-0.3-2.8
	c-0.9-3-2-6-3.3-8.9c-0.9-1.9-1.9-3.3-2.2-5.5c-0.1-1-0.3-1.9-0.6-2.8c-0.3-0.7-0.8-1.3-1.3-1.8c-1-1.4-2.7-4.1-1.7-5.9
	c0.4-0.8,1.4-1,2.2-1.3c1.9-0.8,3.9-1.3,5.9-1.7c0.6,0,4.5,1.2,4-0.8c-0.1-0.4-0.3-0.7-0.6-1c-0.8-0.9-1.7-1.8-2.4-2.7
	c-0.7-0.8-1.2-1.7-1.5-2.7c-0.4-0.8-0.9-0.5-1.5-0.8c-1-0.3-1.7-1.2-2.6-1.5c-0.9-0.3-1.9-0.1-2.7,0.3c-1,0.5-1.8,0.3-3.1,0.1
	c-3.2-0.4-5.3,2.1-8.1,3s-5.5,1-8.2,2.1c-2.5,0.8-4.8,2-6.9,3.5c-2.1,1.4-3.5,3.6-5.1,5.5c-1.8,1.9-3.4,3.9-4.9,6
	c-0.7,1.4-1.1,3-1.2,4.6c-0.3,3.1-0.6,6.3-0.6,9.4c0,1.4,0.1,2.8,0.1,4.2s-0.1,2.8-0.1,4.1c0,1.7,0.5,3.3,1.3,4.8
	c0.8,1,2.1,1.5,2.8,2.6c1.2,1.4,2.1,3.1,3.5,4.2s3.3,1.7,4.8,2.8c1.3,1,2.1,2.7,3.1,4c0.8,0.9,1.5,1.7,2.2,2.6
	c0.3,0.8,0.7,1.5,1.2,2.2c0.2,0.3,0.6,0.5,1,0.5c0.4-0.1,0.8-0.2,1.2-0.5c1.3-0.6,2.5-1.4,3.6-2.3c1.2-0.9,2.2-2,3-3.3
	c1-1.9,1-4.2,1.5-6.4c0.3-1.2,0.5-2.4,0.6-3.7c0-0.9-0.1-1.9-0.1-2.8c0-1.4,0.2-2.8,0.6-4.1"/>
<path class="st1" d="M150.1,268c0-2.4-0.4-4.7-1.2-6.9"/>
<path class="st1" d="M192.9,258.5c1.8,2.1,3.3,4.5,4.4,7.1c0.5,1.8,0.4,3.9,1.2,5.5c0.6,1.3,2.1,1.7,2.7,3c0.5,0.9,0.6,1.9,1.2,2.8
	c0.4,1,1.1,1.9,1.8,2.7c1.2,1.3,2.7,1.9,3.6,3.5"/>
<path class="st1" d="M198.8,237.4c0.4-1,1.4-2.1,2.6-1.9c1.4,0.3,1.4,2.6,1.5,3.6c-0.1,2.1,0.1,4.2,0.4,6.2c0.3,0.9,0.5,1.7,0.8,2.6
	c0.1,0.6,0.2,1.3,0.3,1.9c0.1,0.5,0.1,0.6,0.6,0.4c0.8-0.3,1.3-0.8,2.2-0.6c0.8,0.2,1.6,0.6,2.1,1.3c0.5,1,0.8,2,1,3
	c0.5,1.2,1.7,0.3,2.7,0.4c1.3,0.1,1.4,1.8,2.4,2.3c0.6,0.4,1.7,0.1,2.4,0.1c0.8-0.1,1.6,0.1,2.4,0.4c2.4,1.2,4,4,4.9,6.3
	c0.8,2.2,1.4,4.5,1.8,6.9c0,2-0.2,3.9-0.5,5.9c-0.1,0.8-0.2,1.6-0.3,2.4"/>
<path class="st0" d="M144.5,695.8l-26.2,5.8c0.2,0.1,0.3,0.3,0.5,0.4c1.1,0.4,2.2,0.5,3.3,0.5c1.2,0,2.4-0.1,3.5-0.1
	c3.2-0.1,6.4-0.4,9.5-0.9c1.8-0.2,3.5-0.8,5-1.7C141.6,698.6,143.1,697.2,144.5,695.8z"/>
<path class="st0" d="M155.6,693.2l-6.6,1.5c0.6,0.4,1.2,0.7,1.9,0.8c0.2,0,0.4,0,0.6,0c0.8,0,1.7-0.2,2.4-0.5
	C154.7,694.6,155.5,694,155.6,693.2L155.6,693.2z"/>
<path class="st0" d="M197,481.2l-10.5,50.3c1.3-3.8,2.7-7.4,3.9-11.1c1.1-3.3,2.1-6.7,3.3-10c1-3.1,2.4-6.1,3.2-9.3
	c0.6-2.7,0.9-5.4,0.9-8.1c0.3-3.6,0.5-7.4,0.8-11.1L197,481.2L197,481.2z"/>
<path class="st0" d="M136.8,454.5c2.1,0,4.1,0.2,6.1,0.6c1.6,0.3,3.3,0.7,4.9,1s3.4,0.8,5.1,1.1c2.6,0.4,5.2,0.6,7.8,0.7l1.9,0.1
	l2.2,0.1c5,0.3,10.2,0.6,15.3,0.6c1.7,0,3.2,0,4.7-0.1c5.1-0.1,10.2-0.8,15.2-2l-5.1,24.3l-10.5,50.1c-1.1,3-2,5.9-2.8,8.1
	c-2.2,6.6-4,13.3-5.2,20.1c-0.2,1.2-0.4,2.3-0.5,3.5c-0.3,2.1-0.6,4.2-1,6.2c-0.2,1.8-0.8,3.6-1.8,5.1v0c-0.3,0.5-0.7,0.9-1.1,1.3
	c-0.6,0.6-1.2,1.4-1.6,2.1c-0.6,1.2-1.2,2.4-1.6,3.7c-0.4,1.2-0.9,2.3-1.5,3.4v0.1c-0.8,1.4-1.9,2.5-3.2,3.3l-0.1,0.1
	c-0.6,0.4-1.2,0.8-1.9,1.3c-1.6,0.9-3.1,2.1-4.4,3.4v0.1c-1.1,1.4-1.3,3.2-0.6,4.8c0.1,0.3,0.2,0.7,0.2,1.1
	c-0.2,1.1-0.6,2.1-1.1,3.1c-0.5,1.1-0.9,2.3-1.2,3.5c-0.6,2.6-0.9,5.2-1.1,7.8l-0.2,2.1c-0.1,1-0.2,1.9-0.2,2.9
	c-0.1,2.3-0.4,4.6-0.8,6.9c-0.4,1.9-0.8,3.8-1.3,5.7c-0.3,1.3-0.6,2.6-0.9,3.9c-1.1,6.5-1.9,13.2-2.2,19.8l-0.1,2.1
	c0,0.4-0.1,0.7-0.1,1.1c-0.2,1.6-0.1,3.1,0.2,4.7c0.3,1,0.6,2,1,3c0.6,1.4,0.9,2.8,1.2,4.2c0.1,1.4-0.1,2.8-0.4,4.1
	c-0.1,0.5-0.2,1-0.3,1.5c0,0,0,0,0,0.1c-0.4,2.2-0.4,4.4,0,6.6v0.1c0.2,0.8,0.5,1.5,0.8,2.3c0.4,1,0.7,2,0.9,3
	c-0.1,1.2,0.1,2.3,0.6,3.4c0.1,0.3,0.3,0.7,0.5,1l-3.7,0.8c-0.5-0.2-1.1-0.4-1.7-0.4H147c-1.2,0-2.4,0.5-3.4,1.4l-0.1,0.1
	c0,0.1-0.1,0.1-0.2,0.1l-24.2,5.5c0-0.5,0-1,0.1-1.5c0.1-1,0.1-2.1,0-3.1c0-1.8,0.2-3.6,0.5-5.4c0.1-0.8,0.2-1.6,0.3-2.5v-0.1
	c0-0.2,0-0.5,0-0.7c0-0.7,0.1-1.4,0.3-2c0,0,0-0.1,0-0.1c0.1-0.3,0.2-0.6,0.4-0.9c0.3-0.6,0.5-1.2,0.7-1.8c0.4-2.1,0.2-4.3-0.5-6.3
	l0,0c-0.2-0.7-0.5-1.4-0.7-2.2c-0.8-2.2-1.5-4.5-1.8-6.8c-0.3-2.6-0.4-5.2-0.3-7.7c0-0.5,0-1,0-1.6c0.3-6.8,0.8-13.5,1.5-20.1
	c0.2-1.7,0.4-3.4,0.6-5.1c0.6-5,1.3-10.1,1.6-15.3c0.1-1.1,0.2-2.3,0.2-3.4c0.1-2.1,0.3-4.2,0.6-6.3c0.1-0.4,0.2-0.7,0.4-1.1
	c0.6-1,0.9-2.1,1-3.2c0-0.6,0-1.1,0-1.7c-0.1-0.8-0.1-1.5,0.2-2.3c0-0.1,0.1-0.2,0.1-0.2c0.3-0.4,0.6-0.8,0.7-1.3
	c0.1-0.5,0.2-1,0.2-1.5l0.4-0.3l0.1-0.1c0.9-0.8,1.3-2,1.1-3.1c0-0.1,0-0.2,0-0.3c0-0.1,0-0.1,0-0.2c-0.1-0.7,0-1.5,0.3-2.1
	c0.1-0.2,0.2-0.3,0.4-0.5c0.8-0.8,1.2-1.8,1.3-2.9c0-0.5-0.1-1-0.2-1.5c0-0.1,0-0.1,0-0.2c0.4-0.3,0.7-0.7,0.9-1.1
	c0.5-0.8,0.5-1.8,0.3-2.8l0.2-0.1c1.6-1.1,2.6-2.8,2.8-4.8c0,0,0-0.1,0-0.2c0-0.4,0-0.7-0.1-1.1v-0.1l0,0c0.6-0.7,0.9-1.7,0.8-2.6
	l0,0l0.2-0.3l0.3-0.4c0.6-0.8,0.9-1.8,0.7-2.8c0-0.2,0-0.3,0-0.5c0.1-0.4,0.3-0.8,0.6-1.1l0.3-0.4l0.1-0.1c0.7-1.1,0.6-2.6-0.2-3.7
	c-0.1-0.2-0.2-0.4-0.3-0.5c-0.4-0.7-0.5-0.8-0.5-1.2c0-0.6,0.1-1.1,0.2-1.7c0.2-1.2,0.3-2.4,0.2-3.6v0c-0.1-1-0.3-1.9-0.5-2.8
	c-0.4-1.6-0.6-3.3-0.6-4.9c0.1-1.7,0.3-3.4,0.5-5.3c0.2-1.6,0.4-3.3,0.5-4.9c0.2-1.8,0.3-3.7,0.5-5.5s0.2-3.6,0.4-5.4
	c0.3-3.1,0.6-6.4,1-9.5c0.5-3,0.6-6,0.4-9c0-0.5-0.1-1-0.1-1.5c-0.2-1-0.2-2.1,0.1-3.1c0,0,0-0.1,0-0.1c0.3-0.6,0.7-1.2,1.2-1.6
	c0.4-0.4,0.8-0.9,1.2-1.3c1-1.4,1.6-3,1.7-4.7c0,0,0-0.1,0-0.1c0.1-3-0.3-6.1-1-9c-0.7-2.5-1.7-4.8-3.1-7l-0.6-1.1l-0.1-0.1
	c-1-1.6-1.5-3.4-1.6-5.3c0,0,0-0.1,0-0.1c-0.6-6-0.5-12,0.3-18c0.6,0,1.3-0.1,1.9-0.1 M133.4,571.2L133.4,571.2 M124,601.9
	L124,601.9 M118.2,656.4L118.2,656.4 M136.8,452.5c-0.8,0-1.7,0-2.5,0.1c-0.4,0.2-0.8,0.3-1.2,0.3c-1,6.6-1.1,13.2-0.5,19.8
	c0.1,2.2,0.7,4.4,1.9,6.3c1.4,2.5,2.9,4.8,3.5,7.6c0.7,2.8,1,5.6,1,8.5c-0.1,1.3-0.5,2.6-1.3,3.6c-0.9,1.2-2.2,2.1-2.7,3.5
	c-0.7,1.6-0.2,3.7-0.1,5.5c0.2,2.9,0,5.8-0.4,8.6c-0.4,3.2-0.7,6.4-1,9.6c-0.4,3.6-0.5,7.3-0.9,10.9c-0.2,3.5-0.9,7-1,10.3
	c-0.1,2.8,0.8,5.4,1.2,8.1c0.2,1.7-0.3,3.2-0.4,4.9c-0.1,1.3,0.6,2,1.2,3c0.4,0.4,0.4,1,0.1,1.5c-0.7,0.7-1.1,1.6-1.2,2.6
	c0,0.9,0.2,1.5-0.3,2.1s-0.9,1-0.9,1.9c0,1.1,0,0.9-0.6,1.7c-0.5,0.6-0.1,1.3-0.1,2.1c-0.1,1.3-0.7,2.5-1.8,3.2
	c-0.7,0.4-1.3,0.5-1.3,1.4s0.5,1.6,0.1,2.2s-1.1,0.9-1.2,1.5c-0.1,0.9,0.3,1.4,0.3,2.2s-0.9,1.6-1.4,2.4c-0.5,1-0.7,2.2-0.6,3.3
	c0,0.7,0.2,1.4-0.4,1.9s-1.1,0.6-1.2,1.5c0,0.5,0,0.9-0.1,1.4c-0.1,0.4-0.5,0.6-0.6,1c-0.8,1.4-0.3,3.4-0.4,4.9s-0.9,2.6-1.2,3.9
	c-0.6,3.2-0.6,6.7-0.9,9.9c-0.4,6.9-1.4,13.6-2.2,20.4s-1.2,13.5-1.5,20.3c-0.1,3.2,0,6.4,0.3,9.6c0.4,3.4,1.6,6.2,2.6,9.3
	c0.7,1.7,0.8,3.5,0.5,5.3c-0.3,0.9-0.6,1.8-1,2.6c-0.3,1.1-0.5,2.2-0.5,3.3c-0.5,2.7-0.7,5.5-0.8,8.2c0.1,1.5,0,3-0.1,4.5
	c0,0.5,0,1,0.1,1.5c0,0.4,0.3,0.7,0.6,0.8l26.2-5.9c0.3-0.1,0.6-0.3,0.9-0.6c0.6-0.5,1.3-0.9,2.1-0.9h0.2c0.5,0,1.1,0.2,1.5,0.5
	l6.6-1.4c0.2-0.4,0-0.8-0.1-1.2c-0.5-0.7-0.9-1.4-1.2-2.1c-0.3-0.9-0.5-1.8-0.4-2.7c-0.2-2.1-1.2-3.8-1.7-5.7c-0.3-2-0.3-3.9,0-5.9
	c0.4-2.1,1.1-4.1,0.8-6.3c-0.3-2.6-1.6-5.1-2.2-7.5c-0.5-1.8-0.2-3.3-0.1-5.1c0.5-7.2,0.9-14.5,2.3-21.6c0.7-3.2,1.6-6.4,2.2-9.6
	s0.7-6.7,1-10c0.2-3.2,0.6-6.4,1.2-9.6c0.5-2.3,1.9-4.4,2.3-6.7c0.3-1.8-1.5-3.3-0.1-5c1.6-1.8,4.1-3,6-4.4c1.6-1,2.9-2.4,3.9-4
	c1.4-2.2,1.8-4.9,3.1-7.2c0.7-1.2,1.8-2.1,2.6-3.3c1.1-1.8,1.8-3.8,2.1-5.9c0.6-3.2,1-6.6,1.5-9.8c1.2-6.7,2.9-13.3,5.1-19.8
	c0.9-2.8,1.8-5.5,2.8-8.2l10.5-50.3l5.7-27.4c-5.7,1.4-11.5,2.7-17.8,2.7c-1.6,0.1-3.1,0.1-4.7,0.1c-5.8,0-11.7-0.4-17.4-0.7
	c-3.2-0.2-6.4-0.3-9.5-0.8c-3.3-0.6-6.7-1.5-10-2.1C141.1,452.7,139,452.5,136.8,452.5L136.8,452.5z"/>
<path class="st0" d="M203.1,462.1c1.1,3.5,2,7,2.5,10.7c0.5,4.4-0.2,8.8-2,12.9c-0.5,1-1,2.1-1.5,3.1c-0.8,1.5-1.6,3.1-2.2,4.8
	c-1,2.6-1.7,5.3-2,8c-0.2,1.4-0.4,2.8-0.5,4.2c-0.4,3.7-0.8,7.2-2.4,10.1c-1.1,1.8-2.4,3.5-3.8,5.1l-0.4,0.5l8.4-40L203.1,462.1
	 M202.8,453.6l-5.7,27.4l-10.5,50.3c1.4-2.5,2.9-5,4.6-7.3c2-2.3,3.8-4.7,5.4-7.2c2.6-4.5,2.4-10,3.2-15c0.3-2.6,1-5.2,1.9-7.6
	c1-2.7,2.5-5.1,3.7-7.8c2-4.3,2.7-9.2,2.2-13.9c-0.7-5.7-2.8-11.1-4.2-16.6C203.2,455.1,203,454.4,202.8,453.6L202.8,453.6z"/>
<path class="st0" d="M156.9,695.3c0.3,0,0.5,0.1,0.8,0.2l0.2,0.1c1.2,0.5,2.2,1.2,3.1,2.1c0.4,0.3,0.8,0.7,1.2,1
	c2.5,1.9,5.2,3.4,8.1,4.5c1.1,0.5,2.2,0.9,3.3,1.3c2.1,0.7,4.1,1.6,6.1,2.5l0.1,0.1c0.6,0.3,1.3,0.6,1.9,1c0.7,0.4,1.4,0.8,2.2,1.1
	c1.6,0.6,3.2,1.1,4.8,1.4l1.2,0.3c2.5,0.6,5.4,1.3,6.5,3.2c0.6,1.4,0.4,3.1-0.6,4.3l-0.1,0.1c-0.5,0.5-1.1,0.9-1.8,1.1
	c-1.8,0.5-3.7,0.8-5.6,0.9c-0.7,0-1.4,0.1-2.1,0.2c-6.1,0.5-12.9,0.8-20.7,0.8s-15.1,0.1-23,0.1h-9.8c-3.9,0-6.9,0-9.6-0.1
	c-3.6-0.1-4.2-0.6-4.5-2.1c-0.3-2-0.3-4,0-6c0-0.4,0.1-0.9,0.1-1.3c0.3-2.5,0.6-5.2,1-7.9c0.8,0.1,1.6,0.2,2.4,0.2
	c0.8,0,1.6,0,2.4-0.1h0.9c3.3-0.1,6.6-0.4,9.8-0.9c2-0.3,3.9-0.9,5.6-2c1.4-0.9,2.8-2.1,3.9-3.3l0.5-0.5l3.5-0.7
	c0.5,0.2,1.1,0.5,1.6,0.6c0.1,0,0.2,0.1,0.4,0.1c0.3,0,0.6,0,0.9,0c1.1,0,2.2-0.2,3.2-0.7C155.7,696.4,156.4,695.9,156.9,695.3
	 M155.8,693.2c-0.2,0.8-0.9,1.5-1.7,1.8c-0.7,0.4-1.5,0.6-2.3,0.5c-0.2,0-0.5,0-0.7,0c-0.7-0.2-1.3-0.5-1.9-0.8l-4.8,1
	c-1.3,1.5-2.8,2.9-4.4,4c-1.5,0.9-3.2,1.5-5,1.7c-3.1,0.6-6.3,0.9-9.5,0.9c-1,0-2.1,0.1-3.2,0.1c-1.2,0-2.4-0.1-3.6-0.5
	c-0.2-0.2-0.4-0.2-0.5-0.3c-0.5,3.5-0.9,6.9-1.3,10.4c-0.2,2.5-0.6,5.2-0.1,7.8c0.6,3.3,3.4,3.6,6.4,3.7c3.3,0.1,6.5,0.1,9.7,0.1
	h9.8c7.7,0,15.3,0,23-0.1c6.9,0,13.9-0.2,20.8-0.8c2.7-0.3,5.5-0.3,8.1-1.2c1.1-0.3,2.1-1,2.8-1.9c1.5-1.8,1.8-4.4,0.8-6.5
	c-1.7-3.1-5.9-3.7-9-4.5c-1.5-0.3-3-0.7-4.5-1.3c-1.4-0.6-2.7-1.5-4.1-2.1c-3-1.6-6.4-2.6-9.6-3.9c-2.7-1-5.3-2.5-7.6-4.2
	c-1.5-1.2-3.1-3-5-3.5C157.5,693.4,156.6,693.2,155.8,693.2L155.8,693.2z"/>
<path class="st0" d="M144.4,695.7l-26.2,5.9c0.2,0.1,0.4,0.2,0.5,0.3c1.1,0.4,2.2,0.5,3.3,0.5c1.2,0,2.4-0.1,3.5-0.1
	c3.2-0.1,6.4-0.4,9.5-0.9c1.8-0.2,3.5-0.8,5-1.7C141.5,698.5,143,697.1,144.4,695.7z"/>
<path class="st0" d="M155.6,693.2l-6.6,1.5c0.6,0.4,1.2,0.7,1.9,0.8c0.2,0,0.4,0,0.6,0c0.8,0,1.7-0.2,2.4-0.5
	C154.7,694.6,155.5,694,155.6,693.2L155.6,693.2z"/>
<path class="st1" d="M163,591.6c-0.8,9.3-1.2,18.5-2.1,27.8c-0.5,4.4-1.3,8.8-2.6,13c-0.3,1.1-0.5,2.3-0.5,3.5
	c0.2,1.6,0.5,3.1,1,4.6c0.3,1.6,0.4,3.3,0.3,5c-0.1,1.9-0.8,3.7-0.9,5.7c-0.1,1.1,0,2.2,0.3,3.3c0.5,1.2,1.1,2.3,1.8,3.3
	c1.4,2.7,0.9,6.2,0.9,9.1c0,1.5,0.1,3,0.4,4.5c0.5,1.5,0.9,3,1.2,4.6c0.3,1.8-0.1,3.7-0.1,5.5c0.1,1.4,0.3,2.8,0.6,4.1
	c0.9,3.5,0.6,7.1,0.1,10.7c0,0.3-0.1,0.6-0.3,0.8"/>
<g id="POLYLINE">
	<path class="st0" d="M192.6,259.7L192.6,259.7c0,0.1,0.1,0.1,0.2,0.2c0.2,0.3,0.4,0.6,0.7,0.9c0.4,0.5,0.7,1,0.9,1.6
		c0,0.1,0.1,0.2,0.1,0.2c0.4,0.6,0.8,1.3,1.1,2c0,0.1,0,0.3,0.1,0.4v0.2c0,0.3,0,0.5,0.1,0.8c0,0.2,0,0.4,0.1,0.6c0,0.1,0,0.1,0,0.2
		v0.1c0,0.3,0,0.6,0.1,0.8c0,0.1,0,0.1,0,0.2c0,0.5,0.1,1,0.2,1.4c0,0.2,0,0.3,0.1,0.5c0,0.3,0.1,0.6,0.2,0.9l0.1,0.1
		c0,0.2,0.1,0.3,0.2,0.5c0.4,0.7,1,1.2,1.6,1.7c0.2,0.2,0.4,0.3,0.6,0.5v0.1c0.1,0.2,0.1,0.4,0.2,0.5c0,0.1,0.1,0.3,0.1,0.4
		c0,0,0,0.1,0,0.1c0.1,0.3,0.2,0.6,0.3,0.8l0.1,0.3c0,0.2,0.1,0.4,0.2,0.6c0,0,0,0.1,0,0.1c0,0.1,0,0.2,0.1,0.2
		c0.2,0.4,0.4,0.8,0.6,1.2c0.1,0.3,0.3,0.5,0.5,0.7c0.1,0.3,0.4,0.6,0.6,0.8c0.1,0.2,0.2,0.3,0.3,0.4l0.3,0.3
		c0.1,0.2,0.2,0.3,0.3,0.4c0.4,0.5,0.9,0.9,1.4,1.3c0.2,0.2,0.5,0.5,0.8,0.6c-0.2,0.9-0.2,1.8,0.1,2.6c0.1,0.5,0.2,1,0.4,1.5
		c0.1,0.2,0.1,0.3,0.2,0.5c0,0.1,0,0.3,0.1,0.4l0.2,0.5c0.4,1.4,1,2.8,1.6,4.2c0.1,0.1,0.1,0.3,0.2,0.4c0,0.1,0,0.2,0.1,0.3
		c0.3,0.8,0.6,1.6,0.9,2.4s0.5,1.3,0.7,1.9c0,0.1,0,0.2,0.1,0.3c0,0,0,0.1,0,0.1c0.1,0.3,0.1,0.5,0.3,0.7v0.5l0,0
		c-0.1,0.1-0.2,0.3-0.4,0.5c-0.1,0.2-0.3,0.3-0.4,0.5c-0.1,0.2-0.2,0.3-0.3,0.5c-0.2,0.3-0.3,0.6-0.3,1c-0.1,0.2-0.1,0.5-0.1,0.7
		v1.5c0,0.3,0.1,0.5,0.1,0.8c0,0,0,0.1,0,0.1c0.1,0.5,0.3,0.9,0.6,1.3c0.1,0.1,0.1,0.2,0.2,0.3c0.1,0.1,0.1,0.3,0.2,0.4l0.2,0.2
		c1.1,1.4,1.3,1.8,1.1,2.6c-0.4,1.1-0.6,2.2-0.6,3.4c0,0.6,0.2,1.3,0.6,1.8c0.1,0.2,0.2,0.5,0.3,0.7c0.1,0.2,0.2,0.3,0.2,0.5
		c0.3,1.8,0.4,3.6,0.3,5.4v0.1c-0.1,0.2-0.1,0.4-0.1,0.6v0.1c0,0.1-0.1,0.3-0.1,0.5c-0.1,0.1-0.2,0.3-0.2,0.4c0,0.1-0.1,0.3-0.1,0.4
		c0,0.1,0,0.1-0.1,0.2c-0.1,0.1-0.1,0.3-0.1,0.4v0.1c-0.1,0.3-0.2,0.5-0.3,0.6c-0.2-0.2-0.5-0.3-0.7-0.4l-0.2-0.1l0,0
		c-0.4-0.3-0.8-0.7-1.1-1.1c0-0.1-0.1-0.1-0.2-0.1c-0.4-0.3-0.9-0.8-1.2-1.2l-0.4-0.4l-0.2-0.2l-0.5-0.5c-0.2-0.2-0.3-0.3-0.5-0.5
		c-0.1-0.1-0.2-0.2-0.3-0.2c-0.8-0.8-1.7-1.5-2.6-2.3l-0.3-0.2l-0.1,0c-0.3-0.2-0.5-0.5-0.8-0.7l-0.1-0.1c-0.2-0.3-0.5-0.5-0.8-0.7
		c-0.1-0.2-0.3-0.4-0.5-0.5l-0.2-0.2l-0.1-0.1c-0.1-0.3-0.2-0.5-0.4-0.8c-0.1-0.2-0.2-0.3-0.3-0.5c-0.2-0.3-0.4-0.6-0.6-0.9
		c-0.1-0.1-0.2-0.3-0.2-0.4c-0.1-0.3-0.1-0.5-0.3-0.8c-0.1-0.1-0.1-0.2-0.2-0.3c-0.1-0.1-0.1-0.3-0.1-0.4c-0.3-2.1-0.7-4.1-1.2-6.1
		c0-0.5-0.2-0.9-0.4-1.3c-0.6-2.3-1.4-4.5-2.4-6.7c-0.1-0.2-0.2-0.5-0.3-0.7c0,0,0,0,0-0.1c0-0.1-0.1-0.2-0.2-0.3
		c-0.1-0.1-0.1-0.3-0.2-0.4c-0.1-0.3-0.2-0.5-0.4-0.7c0,0,0-0.1-0.1-0.1l-0.1-0.1c-0.1-0.2-0.2-0.3-0.2-0.4c0,0,0,0,0-0.1
		c-0.1-0.4-0.3-0.7-0.6-1l0,0c-0.1-0.2-0.2-0.4-0.4-0.6c-0.1-0.1-0.2-0.2-0.2-0.3l-0.1-0.2c-0.1-0.1-0.2-0.2-0.3-0.3l-0.3-0.3
		c-0.1-0.1-0.2-0.2-0.3-0.4c-0.2-0.3-0.4-0.6-0.7-0.8c-0.3-0.4-0.7-0.7-1.2-0.9l-0.1-0.1c-0.2-0.2-0.5-0.4-0.7-0.6
		c-0.3-0.2-0.5-0.4-0.7-0.5s-0.3-0.2-0.5-0.3l-0.1,0c-1.7-1.1-3.4-2.2-5.1-3.2l0.1-0.3l0.1-0.2c0.2-0.3,0.3-0.6,0.4-0.8
		s0.3-0.5,0.4-0.8c0.3-0.5,0.6-1.1,0.8-1.7l0.1-0.1c0.2-0.3,0.3-0.7,0.5-1c0.1-0.2,0.2-0.4,0.3-0.6c0.3-0.5,0.5-1,0.6-1.6
		c0-0.2,0.1-0.3,0.1-0.4c0-0.1,0.1-0.2,0.1-0.3l0.3-0.8c0.1-0.4,0.3-0.8,0.5-1.2l0.2-0.2c0.1-0.1,0.2-0.2,0.2-0.3l0.1,0
		c0.3-0.3,0.6-0.7,0.8-1.1c0.1-0.1,0.1-0.3,0.2-0.5c0-0.1,0.1-0.2,0.1-0.3c0.1-0.1,0.1-0.3,0.1-0.4c0.4-1.4,0.4-2.9,0.1-4.3v-2.6
		c0-0.1,0.1-0.3,0.1-0.5c0-0.1,0.1-0.3,0.1-0.4v-0.1l0.1-0.2l0.1-0.2c0.1-0.2,0.2-0.4,0.4-0.6l0.2-0.1l0.1-0.1l0,0
		c0.2-0.2,0.4-0.4,0.6-0.5l0.3-0.2l0.4-0.3c0.2-0.1,0.5-0.3,0.7-0.5c0.2-0.1,0.4-0.2,0.6-0.3c0.3-0.1,0.6-0.3,0.9-0.5
		c0.3,0,0.5-0.2,0.7-0.3C192.2,259.9,192.4,259.8,192.6,259.7 M191.5,260.2L191.5,260.2 M188,262.5L188,262.5 M187.2,263L187.2,263
		 M187,264L187,264 M186.9,264.4L186.9,264.4 M186.8,271.2L186.8,271.2 M186.5,272.1L186.5,272.1 M185.9,273.3L185.9,273.3
		 M185.5,273.8L185.5,273.8 M199.4,314.3L199.4,314.3 M193,257.5c-0.7,0.1-1.4,0.4-1.9,0.8c-0.1,0-0.3,0.1-0.4,0.1
		c-0.6,0.4-1.3,0.6-1.9,1c-0.4,0.3-0.8,0.5-1.2,0.8c-0.1,0.1-0.4,0.3-0.5,0.4s-0.4,0.4-0.5,0.5l-0.1,0.1c-0.4,0.4-0.8,0.8-1,1.3
		c-0.2,0.1-0.3,0.3-0.3,0.5c0,0.1-0.1,0.4-0.1,0.5s-0.1,0.4-0.1,0.5c-0.1,0.1-0.1,0.3-0.1,0.4v3c0.3,1.2,0.2,2.5-0.1,3.7
		c0,0.2-0.1,0.1-0.1,0.3s-0.1,0.1-0.1,0.3s-0.1,0.2-0.1,0.3s-0.2,0.3-0.3,0.4s-0.1,0.2-0.3,0.3s-0.2,0.3-0.3,0.4
		c-0.5,0.9-0.9,1.8-1.2,2.7v0.1c-0.2,0.6-0.4,1.1-0.6,1.7c-0.3,0.5-0.5,1.2-0.8,1.7c-0.2,0.6-0.5,1.2-0.8,1.7
		c-0.4,0.7-0.6,1.2-0.9,1.7c-0.2,0.4-0.4,0.8-0.6,1.2c-0.2,0.4-0.4,0.7-0.6,1c2.2,1.3,4.5,2.6,6.7,4.1c0.4,0.3,0.8,0.5,1.2,0.8
		s0.6,0.6,1,0.9c0.3,0.1,0.6,0.3,0.8,0.6c0.4,0.4,0.6,0.8,1,1.2l0.3,0.3c0.2,0.3,0.4,0.6,0.6,0.8c0.1,0.3,0.4,0.5,0.5,0.8
		s0.3,0.5,0.4,0.8c0.1,0.1,0.3,0.4,0.4,0.5s0.1,0.2,0.1,0.3c0.2,0.2,0.2,0.4,0.3,0.5c0.1,0.3,0.3,0.5,0.4,0.8c1,2.2,1.8,4.4,2.4,6.7
		c0.2,0.3,0.3,0.6,0.3,0.9c0.5,2,0.9,4.1,1.2,6.2c0.1,0.4,0.2,0.8,0.5,1.2c0,0.1,0.1,0.2,0.1,0.3c0.1,0.4,0.3,0.8,0.6,1.2
		c0.4,0.5,0.6,1,1,1.5c0,0.1,0,0.2,0.1,0.3c0,0.2,0.1,0.2,0.1,0.3l0.4,0.4c0.1,0.2,0.4,0.3,0.5,0.6c0.3,0.2,0.6,0.5,0.9,0.8l0.1,0.1
		c0.3,0.3,0.6,0.6,1,0.9c1.1,0.9,2.1,1.7,3,2.6c0.1,0,0.1,0,0.1,0.1l0,0c0.2,0.1,0.4,0.2,0.5,0.4l0.5,0.5l0.6,0.6
		c0.4,0.5,0.9,0.9,1.4,1.3c0.4,0.4,0.8,0.8,1.3,1.2c0.1,0.2,0.3,0.2,0.4,0.3s0.2,0.1,0.3,0.1c0.3,0.1,0.6,0.4,0.9,0.5
		s0.2,0.1,0.3,0.1h1.1l0.1-0.1c0.6-0.5,1-1.2,1.2-1.9c0-0.1,0.1-0.2,0.1-0.3c0.1-0.3,0.2-0.6,0.3-0.9c0.2-0.2,0.3-0.5,0.3-0.8
		c0-0.3,0.1-0.5,0.1-0.8c0.1-0.1,0.1-0.3,0.1-0.6c0.1-1.9,0-3.9-0.3-5.8c-0.1-0.5-0.3-1-0.6-1.4v-0.1c-0.3-0.4-0.4-0.8-0.5-1.3
		c0-0.9,0.1-1.8,0.5-2.7c0.5-2-0.5-3.1-1.7-4.6c-0.2-0.4-0.4-0.8-0.6-1.2c0-0.1-0.1-0.3-0.1-0.4V302c0-0.1,0.1-0.3,0.1-0.4
		c0-0.1,0-0.3,0.1-0.4c0.1,0,0.1,0,0.1-0.1l0,0c0-0.2,0-0.2,0.1-0.3s0.2-0.3,0.3-0.4c0.1-0.3,0.4-0.5,0.5-0.8c0.1,0,0.1,0,0.1-0.1
		c0.1,0,0.1,0,0.1-0.1l0,0v-0.9c0-0.3,0-0.6-0.1-0.9c-0.1-0.2-0.2-0.5-0.3-0.8v-0.1c-0.5-1.5-1.2-3-1.7-4.5c0-0.3-0.2-0.5-0.3-0.8
		c-0.7-1.5-1.2-3-1.7-4.5v-0.1c-0.2-0.7-0.4-1.5-0.6-2.2c-0.3-0.7-0.4-1.5,0.1-1.9l0.1-0.1c0.1-0.1,0.4-0.1,0.5-0.1
		c-0.2-0.1-0.2-0.3-0.3-0.4s-0.2-0.3-0.3-0.4c-0.3-0.3-0.6-0.6-0.9-0.8c-0.3-0.1-0.6-0.3-0.8-0.5c-0.5-0.4-0.9-0.8-1.3-1.2v-0.1
		l-0.3-0.3l-0.3-0.3c-0.1-0.1-0.2-0.4-0.4-0.5s-0.2-0.3-0.3-0.4s-0.3-0.3-0.4-0.6c-0.2-0.3-0.4-0.6-0.5-0.9c0-0.1-0.1-0.3-0.1-0.4
		s-0.1-0.2-0.1-0.3c-0.1-0.4-0.3-0.8-0.4-1.2c0-0.1-0.1-0.3-0.1-0.4c0-0.3-0.2-0.5-0.3-0.8c0-0.1,0-0.2-0.1-0.3
		c-0.5-1-1.7-1.4-2.3-2.4c0-0.2-0.1-0.2-0.1-0.3s-0.1-0.2-0.1-0.3v-0.2c0-0.1-0.1-0.3-0.1-0.4V269c-0.1-0.2-0.1-0.3-0.1-0.5
		c-0.1-0.2-0.1-0.4-0.1-0.6c0-0.4-0.1-0.6-0.1-1v-0.1c0-0.4-0.1-0.6-0.1-1c0-0.2-0.1-0.3-0.1-0.6v-0.6c-0.1-0.2-0.1-0.2-0.1-0.3
		c-0.3-1-0.8-2-1.4-2.8c-0.4-0.7-0.8-1.5-1.3-2.1c-0.2-0.1-0.3-0.3-0.4-0.5c-0.3-0.5-0.8-1-1.2-1.4L193,257.5L193,257.5z"/>
</g>
<rect x="84.1" y="195.8" class="st0" width="4.8" height="257.8"/>
<rect x="84.1" y="471.1" class="st0" width="4.8" height="249.7"/>
<rect x="75.2" y="189.9" class="st0" width="22.5" height="4.8"/>
<rect x="75.2" y="721.8" class="st0" width="22.5" height="4.8"/>
<path class="st0" d="M60.7,465.9h1.7v-7.5h-1.7v-1.9h3.8v9.4H66v1.8h-5.3V465.9z"/>
<path class="st0" d="M68.8,461.9c-0.9-0.4-1.4-1.3-1.4-2.2c0-2.3,2.1-3.4,4.5-3.4s4.6,1.2,4.6,3.4c0,0.9-0.6,1.8-1.4,2.1
	c1,0.4,1.7,1.4,1.7,2.5c0,2.6-2.3,3.6-4.8,3.6s-4.9-1-4.8-3.6C67.2,463.2,67.8,462.3,68.8,461.9z M69.3,464.3c0,0.9,0.9,1.7,2.6,1.7
	s2.6-0.8,2.6-1.7c0-1.1-1.2-1.6-2.6-1.6S69.3,463.2,69.3,464.3z M72,461.2c1.3,0,2.3-0.6,2.4-1.6s-1-1.6-2.4-1.6
	c-1.6,0-2.4,0.8-2.3,1.6C69.6,460.6,70.7,461.2,72,461.2z"/>
<path class="st0" d="M78.1,461.2c0-6.7,9.8-6.7,9.8,0v1.6c0,6.7-9.8,6.7-9.8,0V461.2z M80.2,462.9c-0.1,1.6,1.1,2.9,2.6,3
	c1.6,0.1,2.9-1.1,3-2.6c0-0.1,0-0.2,0-0.3v-1.6c0.1-1.6-1.1-2.9-2.6-3c-1.6-0.1-2.9,1.1-3,2.6c0,0.1,0,0.2,0,0.3V462.9z"/>
<path class="st0" d="M89.3,461.2c0-6.7,9.8-6.7,9.8,0v1.6c0,6.7-9.8,6.7-9.8,0V461.2z M91.4,462.9c-0.1,1.6,1,2.9,2.6,3.1
	c1.6,0.1,2.9-1,3.1-2.6c0-0.2,0-0.3,0-0.5v-1.6c0.1-1.6-1-2.9-2.6-3.1c-1.6-0.1-2.9,1-3.1,2.6c0,0.2,0,0.3,0,0.5V462.9z"/>
<path class="st0" d="M107.3,466.6c-0.8,0.8-1.9,1.3-3,1.3c-2.3,0-4.2-1.9-4.2-4.2c0-2.3,1.9-4.2,4.2-4.2c0,0,0,0,0,0
	c1.1,0,2.1,0.4,2.8,1.2L106,462c-0.4-0.4-1-0.6-1.6-0.6c-1.2,0-2.2,0.9-2.3,2.2c0,0.1,0,0.1,0,0.2c-0.1,1.2,0.8,2.2,2,2.3
	c0.1,0,0.2,0,0.2,0c0.6,0,1.3-0.2,1.7-0.6L107.3,466.6z"/>
<path class="st0" d="M113.4,467.7v-4.2c0-1-0.5-2-1.6-2c-1,0.1-1.7,0.9-1.7,1.9c0,0,0,0.1,0,0.1v4.2h-2v-7.9h1.8l0.2,1
	c0.4-0.7,1.2-1.1,2.1-1.1c1-0.1,1.9,0.5,2.3,1.5c0.5-0.9,1.6-1.5,2.7-1.4c2.2,0,3.3,1.4,3.3,3.8v4.3h-2v-4.3c0-1-0.4-1.9-1.5-1.9
	c-1,0-1.8,0.9-1.7,1.9c0,0,0,0.1,0,0.1v4.2H113.4z"/>
<rect x="27.1" y="11.7" class="st0" width="4.8" height="345.4"/>
<rect x="27.1" y="371.5" class="st0" width="4.8" height="348"/>
<rect x="18.1" y="5.8" class="st0" width="22.5" height="4.8"/>
<rect x="18.1" y="720.5" class="st0" width="22.5" height="4.8"/>
<path class="st0" d="M5.4,362.2c0-2.4,2.3-3.4,4.3-3.4c2.2,0,4.7,0.9,4.7,3.6c0,2.9-2.1,3.4-4.5,3.4c-0.9,0-2.4,0.2-2.4,1.5v1h7v2
	H5.3v-3c0-2.6,2.3-3.4,4.5-3.4c0.9,0,2.4-0.1,2.4-1.4s-1.1-1.8-2.6-1.8c-1.1,0-2.2,0.6-2.3,1.6H5.4z"/>
<path class="st0" d="M24,360.9h-6v2h2.2c2.4,0,4.5,1,4.5,3.6s-2.1,3.8-4.4,3.8c-2.5,0-4.6-0.9-4.6-3.5h2.1c0,1.2,1.4,1.5,2.5,1.5
	s2.3-0.5,2.3-1.8s-1.3-1.6-2.4-1.6h-4.3V359H24V360.9z"/>
<path class="st0" d="M25.6,363.7c0-6.7,9.8-6.7,9.8,0v1.6c0,6.7-9.8,6.7-9.8,0V363.7z M27.7,365.3c-0.1,1.6,1.1,2.9,2.6,3
	c1.6,0.1,2.9-1.1,3-2.6c0-0.1,0-0.2,0-0.3v-1.6c0.1-1.6-1.1-2.9-2.6-3c-1.6-0.1-2.9,1.1-3,2.6c0,0.1,0,0.2,0,0.3V365.3z"/>
<path class="st0" d="M36.7,363.7c0-6.7,9.8-6.7,9.8,0v1.6c0,6.7-9.8,6.7-9.8,0V363.7z M38.8,365.3c-0.1,1.6,1,2.9,2.6,3.1
	c1.6,0.1,2.9-1,3.1-2.6c0-0.2,0-0.3,0-0.5v-1.6c0.1-1.6-1-2.9-2.6-3.1c-1.6-0.1-2.9,1-3.1,2.6c0,0.2,0,0.3,0,0.5V365.3z"/>
<path class="st0" d="M54.8,369.1c-0.8,0.8-1.9,1.3-3,1.3c-2.3,0-4.2-1.9-4.2-4.2c0-2.3,1.9-4.2,4.2-4.2c0,0,0,0,0,0
	c1.1,0,2.1,0.4,2.8,1.2l-1.2,1.3c-0.4-0.4-1-0.6-1.6-0.6c-1.2,0-2.2,0.9-2.3,2.2c0,0.1,0,0.1,0,0.2c-0.1,1.2,0.8,2.2,2,2.3
	c0.1,0,0.2,0,0.2,0c0.6,0,1.3-0.2,1.7-0.6L54.8,369.1z"/>
<path class="st0" d="M60.9,370.1v-4.2c0-1-0.5-2-1.6-2c-1,0.1-1.7,0.9-1.7,1.9c0,0,0,0.1,0,0.1v4.2h-2v-7.9h1.8l0.2,1
	c0.4-0.7,1.2-1.1,2.1-1.1c1-0.1,2,0.5,2.4,1.4c0.5-0.9,1.6-1.5,2.6-1.4c2.2,0,3.3,1.4,3.3,3.8v4.3h-2v-4.3c0-1-0.4-1.9-1.5-1.9
	c-1,0-1.8,0.9-1.7,1.9c0,0,0,0.1,0,0.1v4.2H60.9z"/>
</svg>
