<?xml version="1.0" encoding="utf-8"?>
<!-- Generator: Adobe Illustrator 23.1.0, SVG Export Plug-In . SVG Version: 6.00 Build 0)  -->
<svg version="1.1" id="Layer_1" xmlns="http://www.w3.org/2000/svg" xmlns:xlink="http://www.w3.org/1999/xlink" x="0px" y="0px"
	 viewBox="0 0 1871 652" style="enable-background:new 0 0 1871 652;" xml:space="preserve">
<style type="text/css">
	.st0{fill:#FFFFFF;}
</style>
<path class="st0" d="M1803,352.8v-212c0-21,7.4-67.1-28-58.5c-6.6,1.6-12.5,7.8-13.7,14.5c-3.6,19.7-0.3,42.9-0.3,63v211
	c0,19.5-7.7,66.8,26,59.5c7.5-1.6,13.7-6.9,15.5-14.5C1807,396.8,1803,372.3,1803,352.8z M1801.6,538.8
	c-14.1-28.4-36.7-54.6-54.3-81c-65-97.5-131.9-193.6-197-291c-14.3-21.4-29-42.6-43.3-64c-8.3-12.4-16-24.5-33-20.5
	c-13,3.1-18.2,19-13.1,30.5c4.1,9.2,11.5,17.6,17.1,26c11.8,17.8,23.9,35.4,36,53c67.1,97.4,132.6,195.9,198.7,294
	c15.1,22.4,30.3,44.6,45.3,67c7.4,11,16.4,21.3,31,17.1C1802.1,566.1,1807.4,550.6,1801.6,538.8z M1258,118.3
	c-19.3-12.8-39.7-22.7-62-29.1c-25.1-7-54-10.4-80-7c-33.8,4.5-66.3,14.2-95,33.2c-141.6,93.9-145.9,312.8-10,413.7
	c21.1,15.6,44.9,26.4,70,33.6c26.8,7.7,56.4,9.1,84,5.7c25-3.1,48.5-11.2,71-22.5C1397.1,465.3,1405,216.4,1258,118.3z M1154,526.5
	c-15.2,1.9-30.9,0.9-46-1.6c-103.3-17.1-163.3-123.6-153.8-222.1c6.6-69.3,48.9-134.4,112.8-163.7c20.1-9.2,40.4-12.1,62-14.9
	c14.5-1.9,30.8,1,45,4.2c73.9,16.5,125.8,80.6,141.6,152.4C1339.7,390.3,1269.7,512.7,1154,526.5z M826,82
	c-16.1-2.2-33.8-0.2-50-0.2H621c-8.8,0-19.4-1.6-28,0.5c-19.1,4.6-18.4,34.2-1,40.5c15.1,5.4,39,1,55,1h165c7.1,0,14.7,0.9,21-3
	C847.5,111.7,844.2,84.4,826,82z M560.2,94.8c-3.6-11.4-16.6-15-27.2-12.5c-13.4,3.3-14,16.3-14,27.5v423c0,7.2-1.4,16,0.6,23
	c3.3,11.4,15.5,16,26.4,13.6c13.4-2.9,15-15.3,15-26.6v-424C561,111.3,562.5,102,560.2,94.8z M341.9,114.9
	c-40.9-38.2-100.3-33.1-152-33.1c-19.3,0-41.8-3.1-60.9,0.5c-20.5,3.9-24,35.5-3,41.6c10.9,3.1,24.8,0.9,36,0.9
	c30.7,0,62.4-2.2,93,0.8c21.3,2.1,43.3,7.2,58.8,23.3c10.8,11.1,16.2,25.8,18.3,40.9c1.4,9.8,1.6,20.3-0.6,30
	c-15.7,70.2-109.1,57-162.6,57c-11.4,0-24.9-2-36,0.5c-19.2,4.4-20.2,33.9-2,40.5c15.3,5.5,39.7,1,56,1c50.5,0,105,5.5,148-26.5
	C388.3,252.6,390,159.8,341.9,114.9z M90,167.8c0-21.9,4.2-48.8-1-70c-2.8-11.1-13.8-17.6-25-15.5c-8.7,1.6-16,8.5-16.9,17.5
	c-2.9,29.1-0.1,59.8-0.1,89v344c0,7.5-1.4,16.7,0.8,24c3.2,10.7,14.7,15.5,25.2,13.7c11.7-2.1,16.7-12.8,17-23.7
	c0.7-27.6,0-55.4,0-83V167.8z"/>
<path class="st0" d="M1475,221.3c-7.5,1.4-13.7,7-15.5,14.5c-4.5,19-0.5,43.5-0.5,63v211c0,21.3-7.8,66,27,59.7
	c8.7-1.6,14.1-9.5,15.5-17.7c3.4-18.9,0.5-40.8,0.5-60v-211C1502,260.4,1509,214.7,1475,221.3L1475,221.3z M594,288.3
	c-19.3,4.5-20.4,34.3-2,40.9c13.9,4.9,33.4,1.6,48,1.6h100c14.6,0,38,4.4,51-3.1c15.7-9.1,12.5-36.3-6-39.6
	c-12.3-2.2-26.5-0.3-39-0.3h-79C644.3,287.8,616.1,283.2,594,288.3L594,288.3z M356,303.3c-14,2.2-22.4,16.1-17.8,29.5
	c4.1,12,17.5,20.4,23.5,32c16.9,32.9,16.8,79.7-1.6,112c-36.1,63.2-124.9,51-186.1,51c-13.4,0-30-2.6-43,0.5
	c-19.5,4.7-19.1,35.9,0,40.9c7.3,1.9,16.4,0.6,24,0.6h49c65.3,0,138.6,2.5,183.1-55c7.5-9.7,13.7-20.6,18.3-32
	c17.9-44.2,16.7-103.6-8-145C389.4,324.3,374.6,300.4,356,303.3L356,303.3z M592,528.3c-18.9,4.5-19.9,33.8-2,40.3
	c15.4,5.7,39.6,1.1,56,1.1h127h40c7.1,0,14.7,0.9,21-3.1c14.4-9.3,11-35.9-7-38.7c-15.6-2.4-33.2-0.2-49-0.2H678h-57
	C611.8,527.8,600.9,526.2,592,528.3z"/>
</svg>
