<?xml version="1.0" encoding="utf-8"?>
<!-- Generator: Adobe Illustrator 23.1.0, SVG Export Plug-In . SVG Version: 6.00 Build 0)  -->
<svg version="1.1" id="Layer_1" xmlns="http://www.w3.org/2000/svg" xmlns:xlink="http://www.w3.org/1999/xlink" x="0px" y="0px"
	 viewBox="0 0 1871 652" style="enable-background:new 0 0 1871 652;" xml:space="preserve">
<style type="text/css">
	.st0{fill:#FFFFFF;}
</style>
<path class="st0" d="M303.8,323.8c-1.1-24.2-18.8-46.1-42.9-51c-4.2-0.8-9.1-1.6-13.4-1.1c-5.1,0.7-10,1-15,2.5
	c-11.2,3.4-21.3,11.2-28,20.7c-14.7,20.9-12.2,52,6.2,69.9c12.2,11.9,29.1,17.2,46,15.2C284.5,376.6,305.1,351.6,303.8,323.8z
	 M277.2,369.8c-6.1,3.9-12.9,6.5-20,7.4c-11.1,1.5-22.7-0.1-32.6-5.5c-25.7-13.9-34.6-48-19.2-72.8c3.5-5.6,8.1-10.8,13.5-14.7
	c8.2-5.9,16.8-8.4,26.6-9.7c5.7-0.7,11.9,0.2,17.4,1.6c6,1.5,11.6,4.2,16.5,7.9c7.2,5.3,13.3,12.3,17.1,20.5
	C307.1,327.8,298.7,356.2,277.2,369.8z M654.1,321.4c-1.6-23.2-19.8-44-42.7-48.5c-4.2-0.8-9.2-1.6-13.4-1.1
	c-4.8,0.6-9.4,0.9-14.1,2.2c-10.9,3.1-21,10.4-27.8,19.5c-15.9,21.2-13.7,52.8,5.2,71.5c12.1,11.9,29.3,17.2,46,15.1
	c19.2-2.4,36.4-15.7,43.4-33.8C653.7,338.4,654.7,329.8,654.1,321.4z M627.9,369.6c-6,4-13,6.7-20.2,7.6c-9.6,1.3-19.6,0.3-28.6-3.5
	c-28.8-12.3-39.3-48.6-23.1-74.9c3.5-5.7,8.3-10.8,13.7-14.7c8.1-5.8,16.7-8.2,26.4-9.5c28.6-3.7,53.5,21.5,55.4,48.8
	C652.7,341.9,643.2,359.5,627.9,369.6z M729.8,280.5c-11.6-8-26-8.8-39.6-8.8c-4.4,0-9.1-0.6-13.4,0c-2.3,0.3-1.5,3.8-1.5,5.5v97.7
	c0,1.3-0.6,4.3,0.9,5c1,0.5,1.8-0.3,1.9-1.3c0.3-2.5,0-5.2,0-7.7v-31c17.7,0,37.4,1.6,52.4-9.9C746.1,317.9,746.3,291.9,729.8,280.5
	z M726.2,329.4c-13.9,9.4-32.2,7.9-48.2,7.9v-62.7c14.5,0,30.2-1.3,43.8,4.9c5.8,2.6,10.9,6.5,14.2,12
	C743.8,304.4,738.2,321.3,726.2,329.4z M866.4,322.7c-1.6-23.8-19.1-45.1-42.9-49.9c-4.2-0.8-9.1-1.6-13.4-1.1
	c-4.4,0.6-8.7,0.7-13,1.9c-11.1,3-21.2,10.1-28.3,19.1c-16.9,21.7-14.3,55.1,6.3,73.7c12.1,10.9,28.4,15.6,44.4,13.6
	C847.5,376.6,868.3,350.7,866.4,322.7z M840.2,369.5c-6.1,4.1-13.2,6.7-20.5,7.7c-10.4,1.4-21.3,0-30.8-4.6
	c-27.1-13.2-36.6-48.5-20.8-73.9c3.6-5.8,8.4-10.9,14-14.9c8-5.7,16.4-8,26-9.2c3.5-0.5,7.3-0.1,10.8,0.3
	c25.4,3,44.5,25.8,44.9,51.1C864,343.6,854.7,359.9,840.2,369.5z M951.3,377.5h-60.7v-99.4c0-1.5,0.7-5.4-1.1-6
	c-2.4-0.8-1.8,4.4-1.8,5.6v93.7c0,2.4-0.6,5.6,0.1,7.9c0.4,1.2,2,0.9,3,0.9h60.3c1,0,3.1,0.4,3.5-0.9
	C955,377.2,952.5,377.5,951.3,377.5z M979.7,375.3V277c0-1.2,0.6-5.7-1.7-4.9c-1.5,0.5-0.9,3.7-0.9,4.9v98.3c0,1.2-0.6,5.7,1.7,4.9
	C980.3,379.7,979.7,376.5,979.7,375.3z M1287,373.8v-97c0-1.2,0.6-4.1-0.9-4.7c-1-0.4-1.7,0.5-1.9,1.4c-0.4,2.2,0,4.8,0,7v94.2
	c-8.2-9.4-15.7-19.5-23.4-29.3c-12.8-16.3-25.8-32.4-38.8-48.6l-15.1-18.9c-1.2-1.5-3.5-5.9-5.7-5.7c-1.9,0.2-1.1,5-1.1,6.3v97
	c0,1.2-0.6,4.2,0.9,4.7c1,0.4,1.7-0.5,1.7-1.4c0.2-2.3,0-4.7,0-7v-94.4c8.2,9.5,15.8,19.6,23.5,29.5c12.9,16.2,25.9,32.4,38.8,48.6
	l15.1,18.9c1.2,1.5,3.5,5.9,5.7,5.7C1287.8,379.9,1287,375.1,1287,373.8z M1669.2,373.8v-97c0-1.2,0.5-4.1-0.9-4.7
	c-1-0.4-1.8,0.4-1.9,1.4c-0.3,2.3,0,4.7,0,7v94.2c-7.2-7.8-13.5-16.8-20.1-25.1c-14.1-17.6-28-35.2-42.1-52.8l-15.1-18.9
	c-1.2-1.5-3.6-6-5.8-5.7c-1.6,0.2-0.9,5.1-0.9,6.3v97c0,1.2-0.5,4.2,0.9,4.7c1,0.3,1.6-0.5,1.7-1.4c0.2-2.3,0-4.7,0-7v-94.4
	c21.1,26.1,41.8,52.5,62.8,78.8l14.9,18.7c1.1,1.4,3.5,5.8,5.7,5.2C1669.9,379.7,1669.2,375.1,1669.2,373.8z M409.9,350.7
	c-0.3-2-0.6-4-1.6-5.7c-1.2-2.2-2.8-4.2-4.6-5.9c-6.4-6-14.7-9.3-22.7-12.6c-11.2-4.6-22.7-8.7-33-15.2
	c-6.8-4.3-14.2-11.7-10.7-20.4c2.2-5.4,6.7-9,11.8-11.5c9.4-4.7,20.9-5.5,31-3.8c5.9,1,11.9,3.1,15.6,8.1c3.9,5.3,4.4,11.9,1.4,17.8
	c-1.2,2.4-3.3,4.3-4.5,6.6c-0.6,1.1,0.4,2.3,1.6,2.1c1.9-0.3,3.7-3.9,4.6-5.4c3.8-6.4,4.7-14.6,0.5-21.1
	c-6.7-10.4-22.5-12.8-33.9-11.4c-13.4,1.8-31.7,7-31.7,23.7c0,2.5,0.7,4.8,1.8,7c1.2,2.4,3,4.5,5,6.4c15.2,14.2,37.8,16.1,54.8,27.3
	c3.5,2.3,7.3,4.8,9.7,8.4c3.7,5.5,2.5,13-1.1,18.3c-4.4,6.5-11.8,10.2-19.3,12.1c-15.8,4-36.7,3.1-49.3-8.6
	c-4.7-4.4-8.1-10.6-6-17.1c0.7-2.2,2.3-3.9,3.3-5.9c0.5-1.1,0-2.7-1.5-2.2c-2,0.6-3.7,4.2-4.4,6c-3.5,8.4,1.5,17.7,8.1,22.9
	c13.7,10.9,34,11.6,50.4,7.7C398,375.1,412,365.2,409.9,350.7z M523.8,278.5c0-1.3,0.7-5.9-0.9-6.3c-2-0.5-3.1,3.7-3.7,5
	c-2.8,5.9-5.7,11.8-8.4,17.8c-8.3,18.6-17.5,36.9-26.1,55.4c-3,6.5-6.4,12.9-9.2,19.6c-5.8-9.9-10-20.9-14.9-31.2
	c-6.8-14.5-14.3-28.7-20.6-43.3c-2.6-6-5.8-11.8-8.5-17.8c-0.6-1.4-1.8-5.6-3.7-5.5c-1.8,0.1-1.1,4.8-1.1,6.1v97.2
	c0,1.2-0.6,4.2,0.9,4.7c1,0.4,1.6-0.5,1.7-1.4c0.2-2.2,0-4.6,0-6.8v-92.4h0.2c0.9,3.1,2.7,6.1,4.1,9c2.2,4.4,4.2,8.8,6.3,13.2
	c7.9,16.8,16.4,33.4,23.8,50.4c2.5,5.8,5.3,11.5,8.1,17.2c0.6,1.3,1.7,5.2,3.5,5.2s2.7-3.7,3.4-5c2.8-5.6,5.3-11.3,8-16.9
	c7.8-16,15.4-32.2,22.8-48.4c2.5-5.4,5.1-10.7,7.6-16.1c1.3-2.7,3-5.5,3.8-8.4h0.2V372c0,2.2-0.2,4.6,0,6.8c0.1,0.9,0.7,1.7,1.7,1.4
	c1.5-0.5,0.9-3.5,0.9-4.7L523.8,278.5L523.8,278.5z M1076.5,273c-0.4-1.3-2.3-0.9-3.3-0.9h-68.6c-1.1,0-3.9-0.5-4.6,0.5
	c-0.6,0.9,0.1,1.9,1.1,2.1c2.2,0.4,4.8,0,7,0h28.8v99.9c0,1.3-0.7,5.6,1.3,5.6s1.3-4.3,1.3-5.6v-99.9h32.3
	C1073,274.8,1077.4,275.3,1076.5,273z M1451.4,345c-1.2-2.3-3-4.4-4.9-6.1c-5.8-5.4-13.1-8.4-20.2-11.4
	c-11.9-5.1-24.3-9.2-35.2-16.1c-6.9-4.4-14.2-11.8-10.6-20.7c2.2-5.3,6.7-8.8,11.7-11.3c9.5-4.7,21.6-5.7,31.9-3.7
	c5.7,1.1,11.4,3.3,14.9,8.1c4,5.4,4.1,12,1.1,17.8c-1.2,2.2-3,4-4.2,6.2c-0.6,1.1,0.1,2.5,1.4,2.3c1.9-0.3,3.8-3.9,4.6-5.4
	c3.8-6.4,4.6-14.4,0.6-20.9c-6.5-10.6-22.6-13.1-34.1-11.6c-13.3,1.8-31.7,7.1-31.7,23.7c0,2.3,0.6,4.5,1.6,6.6
	c1.1,2.4,2.9,4.6,4.8,6.4c15.4,14.4,38,16.4,55.2,27.7c3.9,2.6,8.1,5.3,10.5,9.5c3.1,5.3,1.4,12.6-1.9,17.4
	c-4.5,6.6-12.1,10.1-19.6,12c-15.9,3.9-36.2,2.7-48.8-8.7c-4.5-4-8-10.3-6.2-16.5c0.7-2.5,2.4-4.3,3.5-6.6c0.5-1.1-0.1-2.7-1.5-2.2
	c-2.1,0.7-4,4.7-4.6,6.6c-2.9,8.5,2,17.2,8.6,22.4c13.6,10.8,33.9,11.4,50.2,7.6c12.3-2.9,24.7-11.6,24.6-25.4
	C1453.1,350.1,1452.6,347.3,1451.4,345z M1777.6,344.7c-1.2-2.4-3.1-4.4-5-6.1c-5.8-5.4-13.1-8.3-20.2-11.3
	c-12-5.1-24.5-9.4-35.6-16.4c-6.9-4.4-13.3-11.9-9.8-20.4c2.1-5.1,6.7-8.7,11.6-11.1c9.6-4.7,21.7-5.7,32.1-3.6
	c5.5,1.1,11.1,3.2,14.6,7.9c4.4,5.9,4.2,12.7,0.8,18.9c-1.1,1.9-3,3.5-3.9,5.5c-0.5,1.1,0.6,2.3,1.7,2.1c1.8-0.3,3.6-3.9,4.5-5.4
	c3.8-6.5,4.6-14.8,0.3-21.3c-6.7-10.2-22.5-12.6-33.9-11.1c-8.4,1.1-16.9,2.8-23.8,8.2c-9.3,7.3-10.5,19.9-1.8,28.2
	c15.4,14.5,38.1,17.1,55.7,28.1c3.7,2.3,7.7,5.1,10,8.9c3.3,5.4,1.9,12.6-1.5,17.6c-4.6,6.8-12.4,10.5-20.2,12.3
	c-16,3.7-37,2.7-49.3-9.7c-4.2-4.2-7-10.2-5.1-16.1c0.7-2.4,2.3-4,3.4-6.2c0.5-1,0-2.5-1.4-2.2c-2,0.4-3.6,3.9-4.4,5.5
	c-3.9,8.1,0.9,17.5,7.2,22.8c13.3,11.2,33.6,12.2,49.9,8.6c12.9-2.9,25.7-11.4,25.7-25.9C1779.4,349.7,1778.8,347.1,1777.6,344.7z
	 M176.2,365.4c-1.1-0.5-2.1,0.6-2.9,1.2c-2,1.6-4.2,3.1-6.4,4.3c-7.7,4.4-16.4,6.5-25.3,6.5c-12.8,0-26-3.9-35.6-12.6
	c-17.2-15.5-20.1-44.8-8.1-64.2c10.3-16.5,27.8-26.9,47.4-25.5c8.3,0.6,16.4,3.3,21.3,10.4c4.5,6.4,5.4,14.6,2.6,21.8
	c-1.1,2.8-2.8,4.9-4.5,7.3c-0.7,1-0.1,2.5,1.3,2.5c1.8,0,3.7-4,4.4-5.4c3.5-6.2,4.3-14.4,2-21.1c-5-14.6-20.9-20.1-35.2-18.2
	c-9.3,1.2-17.8,3.7-25.5,9.2c-7.9,5.6-14.8,13.6-18.9,22.4c-7.9,17.3-6.6,40.3,4.6,55.9c15.9,22.2,50.9,26.6,73.4,12.3
	c1.9-1.2,4.1-2.6,5.7-4.2C177.4,367.1,177.4,366,176.2,365.4z M1180.8,374.2c-2.5-4.9-4.9-9.9-7.1-15c-9.6-21.6-20.2-42.9-30.5-64.2
	c-2.8-5.8-5.6-11.7-8.4-17.6c-0.6-1.3-1.7-5.5-3.6-5c-1.5,0.4-2.3,3.8-2.9,5c-2.6,5.1-4.9,10.4-7.4,15.6
	c-9.8,20.8-19.4,41.8-29.7,62.5c-2.9,5.9-5.8,12-8.6,18c-0.5,1.2-3.2,5.1-1.6,6.1c2.1,1.2,3.4-3.1,4-4.4c2.7-5.7,5.4-11.3,8-16.9
	c1.3-2.9,2.9-5.8,4.2-8.8c0.5-1.1,1-3.1,2.1-3.7c1.1-0.7,3.5-0.2,4.8-0.2h54.6c1.7,0,3.7,0.3,5.3-0.2c0.8,3.3,2.9,6.5,4.3,9.5
	c2.8,5.9,5.5,11.8,8.4,17.6c1.1,2.2,1.9,4.6,3.2,6.6c0.5,0.8,1.7,1.2,2.4,0.4C1183.4,378.3,1181.4,375.3,1180.8,374.2z
	 M1100.7,342.8l3.5-7.7l6.6-13.9l12.8-26.8l8.2-17.2l3.4,6.8l6.9,14.7l20.7,44h-62.1V342.8z M1563,374.4c-2.4-5.1-4.8-10.3-7.3-15.4
	c-10.6-21.3-20.1-43.1-30.6-64.5c-2.9-5.8-5.5-11.8-8.4-17.6c-0.6-1.1-1.9-5.8-3.9-4.4c-1.5,1.1-2.3,4.5-3.1,6.2
	c-2.8,5.5-5.4,11.1-7.9,16.7c-9.1,19.8-19.2,39.2-28.1,59.2c-2.8,6.3-5.8,12.5-8.8,18.7c-0.6,1.2-3.5,5.3-1.7,6.4
	c0.9,0.6,1.8-0.1,2.2-0.9c1.2-2,2.1-4.3,3-6.4c3-6.9,6.6-13.6,9.7-20.5c0.8-1.7,2-6.3,4.2-6.4c15.4-0.7,31,0,46.4,0h12.3
	c1.3,0,3.7-0.5,4.8,0.2c1,0.6,1.4,2.5,1.9,3.5c1.6,3.2,3.1,6.5,4.6,9.7c2.7,5.5,5.2,11,7.9,16.5c0.6,1.2,2,5.8,4,4
	C1565.6,378.4,1563.5,375.5,1563,374.4z M1482.6,342.8c9.3-22.3,21.8-43.2,31-65.6c1.4,1.4,2,3.7,2.9,5.5c2.3,4.6,4.3,9.2,6.5,13.9
	l14.5,30.8c2.3,4.9,5.9,10.2,7.1,15.4L1482.6,342.8L1482.6,342.8z"/>
</svg>
