<?xml version="1.0" encoding="utf-8"?>
<!-- Generator: Adobe Illustrator 23.1.0, SVG Export Plug-In . SVG Version: 6.00 Build 0)  -->
<svg version="1.1" id="Layer_1" xmlns="http://www.w3.org/2000/svg" xmlns:xlink="http://www.w3.org/1999/xlink" x="0px" y="0px"
	 viewBox="0 0 1871 652" style="enable-background:new 0 0 1871 652;" xml:space="preserve">
<style type="text/css">
	.st0{fill:#FFFFFF;}
</style>
<path class="st0" d="M1072,323.2c2.9-6,12.9-18.1,11.3-24.8c-2.1-9-17-2.1-22.7-1c-16,3.2-31.8,2.1-47.2-3.5
	c-3.9-1.4-12.2-3.6-14.4-7.4c-1.4-2.6,2.6-6.8,3.8-8.9c4.6-8.3,9.3-16.9,13.1-25.6c12.6-28.2,20.9-58,13.8-88.8
	c-4.2-18-16.1-34.2-36.2-33.6c-20.1,0.6-37,17.1-43.4,35.2c-9.9,28-7.8,61.8,4.5,88.8c4.2,9.1,9.2,18.1,15.9,25.6
	c2.5,2.8,8.4,7,8,11.2c-0.6,6.1-8.7,13.7-12.2,18.4c-13.2,17.4-28.7,35.1-47.9,46.1c-15,8.6-30.8,6.7-42.2-6.9
	c-4-4.8-8.5-21.3-16.2-19.6c-7.4,1.6-13.3,18.6-17.4,24.4c-14.2,20.3-34.1,37.1-56.2,48.2c-7.1,3.6-19.7,10-27.2,4.7
	c-7-4.9-6.7-16.7-4.6-24.1c1.5-5.3,6.1-9.8,9-14.4c8.6-13.8,15.1-27.1,31.5-32.5c4.5-1.4,9.1-2.5,13.6-0.3c4.2,2,7.4,8.3,12.7,5.5
	c5.7-3,2.7-10-0.8-13.4c-5.8-5.6-14.7-6.5-22.4-5.4c-19.8,2.6-36.7,17.7-46.9,34.2c-3.8,6.1-5.3,13.3-9.2,19.2
	c-14.2,21.5-32.2,42.1-52,58.7c-12.6,10.7-37.4,31.8-55.2,20.5c-15.8-10.1-14.2-36-12.2-52c5.4-44.2,22.4-94.1,61.8-119.4
	c7.6-4.9,17.5-9.1,26.4-5c5.9,2.6,14.8,20.2,21.8,11.4c6.3-7.9-11-21.2-17-23.5c-27.2-10.4-54.6,15.9-69,35.8
	c-4.3,6-7.8,15.4-13.1,20.3c-2.1,1.9-5.8,2.3-8.3,3.5c-7.2,3.4-14.5,6.8-21.6,10.4c-17.1,8.6-34.4,16.9-51.2,26
	c-6.8,3.7-16.2,11.9-23.8,13c-4.3,0.6-12.2-5.9-16.2-7.8c-11.8-5.6-24.2-9.2-36.8-12.3c-41-10.2-84.2-14.6-124-29.6
	c-18.8-7.1-38.5-17.1-50.4-33.9c-22.8-32.2-3-74.3,16.2-103.2c34.2-51.3,89.3-89.8,143.8-117c22.6-11.4,49.9-24,76-22.2
	c31.4,2.2,28.2,35.4,21.9,57.5c-1.8,6.2-11.5,24.2-0.3,26.1c8.6,1.4,11.6-18.5,13.1-24.5c5.4-21.7,9.6-53.2-13.9-66.2
	c-30.6-16.9-74.4,3.1-102.4,17.1c-60.1,30-122.5,74.4-156.2,133.8c-13.7,24.6-26.2,55.2-18.5,83.9s31.4,44.3,56.6,56.2
	c35.9,16.9,77.5,21.4,116,29.8c14.6,3.2,29.1,6.4,43.2,11.4c6.6,2.3,12.6,6.2,19.2,8.2c-11.3,9.3-25.4,15.5-37.6,23.4
	c-23.1,15.1-45.8,31.6-67.2,49c-20.8,16.9-40.3,34.8-59.2,53.9c-19.1,19.4-40.8,45.8-47.3,72.8c-3.4,14.1,1.4,31.8,17.7,34.2
	c21.9,3.1,47.2-6.8,67.2-14.8c55.4-22.1,111.9-59,143.6-111.2c18.2-30.1,33.6-76.5,5.8-105.6l86.4-44c-10,29.6-17.4,58.1-15.2,89.6
	c1,15.9,8.2,33.9,24.8,38.9c14,4.2,30.4-1.8,42.4-9c25.9-15.4,44.5-37.9,64-60.3c1,4.1,1.8,8.4,4.2,12c9.4,14,28.2,10.2,41.4,4.8
	c33.4-13.8,51.9-40,74.4-66.4c11.4,22.9,37,29,59.2,19.2c21.7-9.6,39.1-29.6,53.3-48c5.7-7.4,12.2-14.9,16.3-23.2
	c20.5,14.6,50.3,17.8,74.4,12c-22.2,53.3-37.6,105.8-37.6,164c0,13.3,1,28.4,6.3,40.8c3,6.9,7.1,12.9,15.3,12.8
	c4.9-0.1,8.2-4.8,5.4-9.4c-2.5-4.2-7.8-4.6-10-9.8c-4.8-11.2-5-25.6-5-37.6c0-28.8,4.6-58.5,11.9-86.4
	C1056.2,362.7,1062.8,342.3,1072,323.2z M541.2,413.6c3.1,24.2-6.2,49.5-19,69.6c-31.1,49.1-84.3,84.4-137.5,105.6
	c-17,6.8-41.2,17.5-60,14.2c-9.8-1.8-9.5-13-7.4-20.6c5.1-18.5,16.8-35,28.7-49.6c36.3-44.7,85-81.9,133.1-113.4
	c11.4-7.4,22.8-14.6,34.4-21.6c3.4-2.1,9.4-7.4,13.6-7.3C535.1,391,540.3,407.2,541.2,413.6z M987.8,278.4
	c-9.1-4.4-15.4-16.9-19.8-25.6c-10.6-21.3-13.8-46.3-9.8-69.6c1.8-10.6,5.3-22.4,13.1-30.2c3-3,6.5-5.5,10.2-7.5
	c3-1.6,6.2-2.6,9.6-3c26.7-2.9,30.6,32.4,28.6,51.8c-1,11.4-4,22.9-7.9,33.6C1005.3,245.8,995.8,261.4,987.8,278.4z M1534.2,203
	c-13.7-2.2-27.1-1-40.8-0.6c-11.3,0.2-24.2-0.8-35.2,2.4c12-42.7,19-87.2,29.5-130.4c2.6-10.5,6.6-22.1,7.1-32.8
	c0.3-5-3.9-7.4-8.6-6.2c-4.1,1.1-5.3,7.5-6.8,11c-4.4,10.4-8.7,20.8-13.1,31.2c-12.1,28.4-24.3,56.9-35.8,85.6
	c-5.6,14-9.9,32.2-18.1,44.7c-3.8,5.8-16.9,4.5-23,5.5c-22.4,3.6-44.9,7.2-67.2,11.4c2.1-25.4,11.8-52,17.7-76.8
	c1.4-5.9,8.7-21.8,0.6-25c-10-4-11.6,15.8-13,21.8c-4.5,18.1-8.6,36.2-12.8,54.4c-1.8,8-2.7,17-5.6,24.7c-1.8,4.6-8.4,4.5-12.6,5.4
	c-12.2,2.5-24.6,4.2-36.8,7c-5.5,1.3-16.7,2.1-13,10.8c2.3,5.4,10.4,2.2,14.6,1.4c14.4-2.9,29.4-6.5,44-7.7
	c-3.5,18.2-7.8,36.2-11.4,54.4c-1.9,9.6-2.7,21.4-6.6,30.4c-9.6,22-36.4,43.7-58,53.1c-14.2,6.2-29.9,10.8-45.6,10.9
	c-8.5,0-16.3-0.6-20.9-8.8c-11.7-21,5.4-57.4,20.1-72.8c6-6.3,15.2-14.8,24.8-13.4c11.4,1.7,10.1,11.7,3.8,18.2
	c-6.9,7.1-17.4,11.6-27,13.3c-3.6,0.6-8.6-0.7-11.9,1.2c-3.2,1.8-3.8,6.6-1.3,9.2c5.1,5.4,17.5,1.7,23.6-0.2
	c12.7-3.8,27.7-11.4,33.2-24.3c8.5-19.8-12.7-33-30-28.9c-6.1,1.4-11.8,4.2-16.8,8c-21,15.9-33.6,47.8-33.6,73.7
	c0,11.8,1.5,24.6,12,32.2c9.4,6.8,25,5.5,36,4.1c24.3-3.1,46-11.8,65.6-26.7c7-5.4,15.8-11.9,20-19.9h0.8
	c-4.3,23.1-8.6,46.3-11.9,69.6c-3.5,25-7.8,50.8-5,76c1.2,10.9,5.9,25.2,20,19.2c6.8-2.9,12-10.1,16-16c9-13.5,15.6-28.6,22.6-43.2
	c27.8-58.4,49.5-120,73.5-180c5.5-13.8,10.8-27.8,16.3-41.6c1.8-4.6,3.5-13.1,7.7-16.2c4.2-3.1,15.4-2.8,20.6-3
	c-18.6,95.6-38.4,190.6-51.7,287.2c-4,28.9-7.8,59.8-3.6,88.8c1.4,10.3,9.4,28.6,23.1,19.8c8.2-5.2-1.6-12.2-7.8-11
	c-8.9-32.6-2.5-68.5,1.4-101.6c7.6-63.2,19.5-126.4,32-188.8c4.6-23,9.1-46,14.3-68.8c1.6-7,1.5-20.3,5.8-26.1
	c2.9-3.9,16.2-3.4,20.8-3.5c19-0.7,42.4-5.7,60.8,1.4c6.3,2.4,2.2,7.8,7.3,10.9c5,2.9,9.4-0.6,10.2-5.8
	C1556.8,208.8,1544.4,204.6,1534.2,203z M1372.9,308c-16.4,41.1-32.2,82.5-49.6,123.2c-8.1,19-16.3,38.2-26.9,56
	c-4.3,7.3-9.2,16.3-16.6,20.8c-4.8-9.5-3.5-22.6-2.6-32.8c1.4-15.3,2.5-30.4,4.7-45.6c9.5-64.6,23.8-128.2,37-192l87.2-13.6
	C1396.6,252.5,1384.1,280.1,1372.9,308z M1450.6,182.4l-5.3,22.7l-19,3.7c8.1-34.2,29.9-64.6,39.2-98.4l-3.7,21.6L1450.6,182.4z
	 M1164,90.4c-5,3.1-6,17.8-7.3,23.2c-5.6,22.3-10.6,44.8-16,67.2c-22.7,93.5-41.3,188.5-52.6,284c-3,24.5-5.1,51.8,1,76
	c3,11.7,13.5,23.5,26.6,16.9c4.1-2.1,5.4-7.7,1.4-10.8c-4-3-8.5,1.8-12.3-2.2c-5.5-5.9-5.3-15.6-6.2-23c-2.6-21.8,0.5-44.7,2.8-66.4
	c10.1-94.2,31.8-187,53-279.2c5.3-23,10.9-45.9,16.6-68.8C1172.3,102.3,1176.5,82.6,1164,90.4z"/>
<path class="st0" d="M1509.4,282c-35.7,2.3-54,44.7-57.8,75.6c-1.8,15.5,0.4,35.3,17,42c9.2,3.8,22.3,2.6,32,1.3
	c28.9-4,55.2-16.2,76-36.9c8-8,15.4-16.3,21.9-25.6c2.4-3.4,5.6-8.6,1.8-12.2c-3.1-2.9-7.1-1.6-9.7,1.2c-7.3,7.8-12.8,17-20.4,24.7
	c-19.4,19.4-45,34.4-72.8,36.8c-7.5,0.6-17,2.6-24-1.1c-10.9-5.8-11-20.4-9.3-30.9c3.2-18.9,11.3-39.7,26.1-52.5
	c5.4-4.6,11.8-9.5,19.2-9.8c15-0.6,11.4,13,4,19.8c-6.5,6-16.2,10.2-24.8,11.7c-3.8,0.6-9.3-0.9-12.6,1.2
	c-7.2,4.4,0.8,11.6,6.2,11.8c17.4,0.6,39.5-9.5,48.4-24.6C1539.5,299.3,1526.2,281,1509.4,282z"/>
</svg>
