<?xml version="1.0" encoding="utf-8"?>
<!-- Generator: Adobe Illustrator 23.1.0, SVG Export Plug-In . SVG Version: 6.00 Build 0)  -->
<svg version="1.1" id="Layer_1" xmlns="http://www.w3.org/2000/svg" xmlns:xlink="http://www.w3.org/1999/xlink" x="0px" y="0px"
	 viewBox="0 0 1871 652" style="enable-background:new 0 0 1871 652;" xml:space="preserve">
<style type="text/css">
	.st0{fill:#FFFFFF;}
</style>
<path class="st0" d="M1857.1,297.6c-0.6-2.6-4-2.3-5.9-1.5c-4.5,1.8-8.6,6.3-12.6,9.1c-14.4,10.3-30.1,19.3-46.9,24.8
	c-4.1,1.4-14.2,5-18,1.5c-2.9-2.7-1.3-7.5-0.4-10.8c0.3-1.2,0.6-3,1.8-3.7c2.1-1.3,6.3-0.6,8.8-1.1c5.9-1,11.8-2.9,16.7-6.5
	c5.1-3.8,9.4-13.3,1.7-17.1c-7.8-3.9-18.6,1.7-24.5,6.6c-5.7,4.8-9.5,11.3-14.6,16.7c-10.6,11-22.7,21.1-35.7,29.3
	c-5.8,3.6-12.1,7.3-18.7,9.1c-2.4,0.7-5.8,1.5-8.2,0c-6.2-3.7-1.8-14.5,0.3-19.4c4.9-11.5,12.2-21.7,18.2-32.6
	c2.5-4.6,6.2-10.1,5.2-15.6c-2-11.1-16.4-4.2-21.7-0.7c-12.1,8-23,17.7-34,27c-6.7,5.7-13.4,12-21.4,15.8
	c2.8-8.2,8.3-15.3,14.3-21.4c2-2.1,6.6-6.3,5.5-9.5c-0.7-2.3-3.6-2.3-5.5-1.7c-4.3,1.5-7.9,5.8-11.6,8.5
	c-12.4,8.9-26.1,15.8-40.1,21.9c-5.5,2.4-11.2,5.4-17,7c7-11.3,13.7-22.8,20.2-34.3c2.5-4.5,7.3-10.6,7.3-16c0-3.4-3.5-5.1-6.4-3.4
	c-4.4,2.6-7.4,8.5-10.9,12.2c-3.1-9.3-17.5-4.8-23.8-2.2c-8.1,3.3-14.3,8.7-21.1,14.1c-7.3,5.8-14.7,11.5-22.4,16.7
	c-3.7,2.5-7.6,4.9-11.9,6.4c-1.4,0.5-3.6,1.5-5,0.7c-2.1-1.3-0.8-5.6-0.5-7.5c1.2-6.2,3.9-14.1,2.4-20.4c3.7-1.3,3.2-6.7,1.5-9.5
	c-2-3.3-5.7-4.3-9.3-4c-5.3,0.4-10.4,2.6-15,5.2c-2,1.2-4.2,3.3-6.5,3.8c-4.2,1.1-9.3,0.4-13.6,0.9c-7.7,0.7-15.2,2.3-22.8,3.3
	c0.9-4.8,1.8-9.6-0.2-14.3c-3.8-8.9-15.4-8.6-23-5.6c-12.1,4.9-21.9,14.5-30.3,24.3c-3.4,4-7.5,8.2-9.8,12.9h-0.3
	c2.2-5.2,5.4-9.9,7.9-15c1-1.9,1.5-4.5-0.7-5.7c-5.3-2.8-7.2,4.8-10,7.2c-1.6,1.3-4.2,1.4-6,2.8c-7.5,5.6-14.7,11.4-22.4,16.6
	c-8,5.3-16.4,10.3-25.5,13.6c-2.9,1-7.9,3.1-10.8,1.5c-5.6-3.1,0.5-13-7.2-15.3c-1.1-0.3-2.3-0.5-3.4-0.5
	c-13.3,0.4-22.4,15.3-32.6,21.7c6.9-14.8,15.1-29.2,21.6-44.2c2.4-5.7,6.4-13.1,3.8-19.4c-3.3-8-14.4-5.8-20.6-3.3
	c-17.1,6.8-30.8,20.5-43.5,33.3c1.6-3.6,4.4-7,3.5-11.2c-0.4-2.1-2-4.4-4.5-3.9c-4.2,0.8-9,6.4-12.2,9c-8.4,6.7-16.9,13.6-26.2,19
	c-3.1,1.8-8.8,5.8-12.6,4.9c-3.5-0.9-0.7-9-0.3-11.4c1-5.1,1.2-10.2,2-15.3c0.3-2,2.2-3.2,2.5-5.4c0.7-6.1-4.6-9.7-10-9.5
	c-9.9,0.2-18.3,6.8-25.8,12.4c-10.9,8.1-21.4,16.6-32.6,24.1c-5.2,3.5-10.9,7.7-17,9.4c-5.9,1.6-5.2-7.2-6-11
	c-1.8-8.5-9.8-12.4-17.8-8.7c-13.1,5.9-22.2,20.6-31.3,31.2c-2.3,2.7-4.7,5.5-7.4,7.7c-0.9,0.7-2.5,1.7-3.5,0.7
	c-1.8-1.9,0.5-7,1.3-9c3.2-8.6,8.3-16.5,13.3-24.1c3-4.5,6.2-10.7,10.3-14.1c3.1-2.5,8.5-3.9,12.2-5.5c6-2.7,11.7-6.1,17.3-9.4
	c17.4-10.4,33.9-22.8,48.3-37.2c7.4-7.4,16.5-16.7,19.1-27.2c1.4-5.8-0.4-12.7-7.2-13.8c-7-1.2-14.8,3.3-20.4,7
	c-14,9.2-26.8,21.1-37.8,33.7c-7.9,8.9-15.9,17.8-23.2,27.2c-4.4,5.6-8.4,12.9-13.8,17.5c-2.7,2.3-7,3.4-10.1,5.2
	c-7.7,4.3-15.3,8.6-22.8,13.2c-23.7,14.2-46.9,29.4-71.1,42.9c-16.5,9.2-33.6,19-52,23.6c-8.7,2.2-18.8,2.8-24.5-5.6
	c-9.7-13.9,3.6-34.1,11.9-45.2c2.5-3.3,6.2-10.1,10.2-11.5s9-1.3,13.3-2.2c9.9-2.1,19.6-4.8,29.2-7.8
	c37.5-11.7,75.4-28.6,108.1-50.4c10.9-7.3,22.1-15.2,30.6-25.4c4.5-5.4,8.3-12.1,7.1-19.4c-1.5-8.7-10.6-12.8-18.6-12.9
	c-16.2-0.4-31.9,8.2-46.2,14.4c-11.3,4.9-22.2,11.6-32.6,18.1c-21.6,13.4-42.2,28.1-61.5,44.5c-8,6.8-15.7,13.9-23.1,21.3
	c-3.2,3.2-6.7,8.7-10.6,10.9c-2.3,1.3-7.9,0.5-10.5,0.2c-9.3-1.3-19.2-3.2-25.2-11.4c-10.3-14.1-0.4-34.3,9.1-45.9
	c22.2-26.9,61.1-41.9,95-46c7-0.9,14.4-1.1,21.4-0.2c4.2,0.5,8.4,2.4,12.6,2.6c3.6,0.1,7-2.6,4-6.1c-2.9-3.4-9-4.3-13.2-4.8
	c-11.7-1.6-23.8-0.5-35.4,1.6c-34.7,6.3-73.5,23.5-94.9,52.5c-11.2,15.3-18.2,41.1-2,55.7c8.6,7.7,20.2,10.1,31.3,10.9
	c-2.7,4.1-6,7.8-8.8,11.9c-10.1,14.9-20.2,38.3-4.8,53.4c2.1,2,4.5,3.7,7.1,4.8c4.1,1.8,8.2,2,12.6,2c5.6,0,11.3-1.7,16.7-3.4
	c15.1-4.7,29.4-12.4,43.2-20c20.5-11.1,40.4-23.3,60.2-35.6c10.6-6.6,21.5-15,33-19.9c-7,10.4-15.2,22.6-16.7,35.4
	c-0.2,2.1-0.5,4,0,6.1c1.9,7.8,9.4,8,15.3,4.7c11.2-6.2,18.5-19.1,26.8-28.5c3.5-4,7.8-9.6,13.3-10.9c3.2-0.8,4.6,2.2,5.2,4.8
	c1.3,5.3,1.2,13.6,7.3,15.8c5.5,2,11.9-0.9,16.7-3.4c11.6-6.1,23.1-14,33-22.6c1.1,4.4,5.8,4.6,9.5,3.8c8.4-1.7,14.1-8.1,21.4-12
	c-0.1,7.9-5.6,18-1.4,25.5c3.3,6.1,10.5,5,16,3.2c12.4-4.2,24.2-13.4,34-21.9c-2.1,5.1-5.5,9.9-6.8,15.3c-0.6,2.4,0,5.5,2.8,6.3
	c5.5,1.5,10.6-8.3,13.5-11.7c10.6-12.4,23.2-23.7,37.2-32.2c4.6-2.8,9.2-5.3,14.3-7c1.6-0.5,4.5-1.6,5.9-0.1
	c1.1,1.2,0.1,3.4-0.4,4.6c-1.5,4-3.5,8-5.4,11.9c-5.4,10.8-11.4,21.3-16.2,32.3c-1.9,4.3-4.8,10.1-3.4,15c1.7,5.7,8.2,5.8,12.6,3.6
	c6.8-3.4,12.4-9.3,18-14.2c2-1.8,5.3-5.6,8.2-6c2.2-0.3,2,4,2.1,5.3c0.5,4.7,2.9,8.9,7.8,10.1c6.5,1.6,13.7-0.6,19.7-3
	c13.9-5.5,28.7-14.3,39.8-24.5c-4,9.7-9.2,18.9-13.4,28.6c-4.9,11.4-9.9,22.7-14.1,34.3c-1.4,3.8-1.2,11.6,5.1,8.3
	c2.5-1.3,3.1-4.9,4.1-7.3c2.5-6.3,5.2-12.6,8.3-18.7c11.9-23.9,27.5-47.6,47.9-65.1c5.9-5.1,17.2-15.4,25.8-12.4
	c5.1,1.7,4.5,13.1,0.3,15.6c-3.2,1.9-7.9,2.4-11.5,3.7c-9.4,3.3-19.5,7.3-26.9,14.2c-5.1,4.8-7.8,13.9-1,18.7c4.2,3,10.4,2.3,15,0.5
	c9.8-3.8,18-11.5,24.4-19.7c2.1-2.7,4.1-8,6.9-9.9c2.3-1.5,6.4-1.8,9.1-2.3c7.4-1.5,15.2-3,22.8-3.1c-2.9,5.5-5,14.3,4.1,14.3
	c1.3,0,2.5-0.1,3.7-0.4c7.6-1.8,14-7.5,20.4-11.8c1.7,7.9-4.9,16.4-1.7,24.5c2.2,5.7,8.7,6.4,13.9,5c10.7-2.8,19-10.2,28.2-15.9
	c1.2,9.2,7.8,12.2,16.3,9.6c10.8-3.2,20.7-11.3,28.6-19.1c-3.3,7-8.1,13.6-12.2,20.1c-1.7,2.8-3.5,7-6.2,8.9
	c-5.3,3.8-13.1,5.6-19,8.4c-14.2,6.7-28.3,13.8-41.1,23c-7.9,5.6-17.1,13-19.9,22.7c-0.7,2.3-1,4.8-0.7,7.1c0.3,1.9,0.7,3.7,1.5,5.4
	c6.8,13.2,25.3,4.6,34-1.4c14.1-9.8,25.8-23.4,36.1-37.1c3.5-4.6,6.8-9.2,10.2-13.9c1.5-2.1,2.9-4.9,4.8-6.7c1.6-1.4,4.1-2,6-2.8
	c4.5-1.9,9.1-3.7,13.6-5.6c12.5-5.3,24.4-11.8,36.7-17.5c-1.1,3.1-2.8,6.2-2.6,9.5c0.3,10.3,11,7.2,16.6,3.8
	c15.5-9.5,29.2-22.4,43.2-34c3.9-3.2,8-6.4,12.2-9.1c0.9-0.6,3.8-2.8,4.8-1.6c1,1.1-0.8,3.9-1.4,4.9c-2.4,4.8-5.4,9.4-8.2,13.9
	c-6.4,10.6-15.1,23.3-16,36c-0.4,4.8-0.4,10.2,2.6,14.3c4.1,5.7,12.4,5.4,18.4,3.8c3.9-1,7.7-2.6,11.2-4.4c6.4-3.2,12.5-7,18.4-11.2
	c8.3-5.9,15.6-12.8,23.5-19.2c0,12.9,11.5,14.6,21.8,12.9c19.8-3.4,38.5-14.4,54.7-25.7c4.8-3.3,9.7-6.8,13.9-10.9
	C1855.4,302.2,1857.8,300,1857.1,297.6z M1797.8,299.6c-2.5,5.3-11.6,8.1-17,8.2C1784.6,302.8,1791.6,299.7,1797.8,299.6z
	 M1095,269.7c11.7-13.6,24.1-26.8,38.1-38.1c5-4,10.3-8,16.3-10.4c1.5-0.6,5.2-2.2,6.6-0.9c1.5,1.4-0.6,4.8-1.2,6.2
	c-2.9,5.8-7.7,11-12.2,15.6c-13.2,13.5-28.2,25.5-43.9,35.9c-6,4-13.1,9.7-20.1,11.7C1083.2,282.6,1089.5,276.1,1095,269.7z
	 M923,298.6c6.9-6.3,13.9-12.4,21.1-18.4c27.7-22.8,58.3-43.5,90.8-58.8c10.8-5.1,22.1-9.6,34-11.3c4.9-0.7,11.9-0.3,14.3,4.9
	c2.1,4.6-1.9,9.9-4.7,13.3c-7.8,9.5-18.7,16.9-29,23.5c-32.9,20.9-69.1,38.4-106.4,49.9c-10.2,3.2-20.6,5.3-30.9,7.8
	C915,305.4,919.3,301.9,923,298.6z M1160.3,309.8c1.3-6.7,12.6-12,18.4-14.3c3-1.2,7.1-3.1,8.8,0.7
	C1177.2,296.2,1169.3,306.1,1160.3,309.8z M1418.7,330.5c-1.9,0.9-7.2,3.2-8.8,0.7c-1.8-2.9,2.8-6.5,4.7-7.8
	c6.6-4.7,15.5-8.6,23.5-10.4C1435.1,319.9,1425.5,327.3,1418.7,330.5z M1489.4,309.8c3-6.9,12-11.7,18.7-14.4c3-1.2,7.1-2.9,8.8,0.8
	C1506.1,296.2,1499.3,307,1489.4,309.8z M1596.6,298.3c-0.7,2.5-5,5.3-6.9,7.1c-5.3,4.8-10.9,9.5-17,13.2c-2.7,1.6-5.6,3.5-8.8,3.5
	c-7.1,0.1-1-9.5,1-11.9c5.7-7.1,15.4-13.7,24.5-15.2C1591.5,294.7,1597.7,294.5,1596.6,298.3z M1567,356.4c-2.2,3-4.4,5.9-6.6,8.8
	c-9.5,12.2-20,24.9-33.2,33.3c-4.2,2.7-14.5,8.6-19.3,4.4c-6.4-5.6,4.1-16.4,8.1-19.8c16-13.8,35-21,53.4-30.7
	C1569.3,353.9,1567.9,355.2,1567,356.4z"/>
<path class="st0" d="M470.1,229.4c-7.5-1.8-16.7-0.8-24.5-0.8c-20.6,0-41.3-0.5-61.9,0c-12.8,0.3-25.6,1.7-38.4,1.7
	c3.4-3.4,8-6.5,10.5-10.5c1-1.5,1.8-4.6-0.1-5.8c-2.7-1.6-6.2,1.2-8.1,2.8c-3.2,2.8-6.5,5.5-9.5,8.5c-1.9,1.8-4.1,4.6-6.5,5.7
	c-4.2,2.1-11.7,1.3-16.3,1.8c-13.6,1.4-29.3,2-42.2,6.6c-4.2,1.5-6.3,8.1-0.3,8.6c8.1,0.7,17.2-2.9,25.2-4.3
	c7.8-1.3,16.2-2.9,24.1-2.9c-10.8,10.8-21,22.5-30.3,34.7c-5.1,6.6-9.3,15-15.1,20.9c-6,6.2-14,11.5-20.9,16.6
	c-6.3,4.7-12.9,9.7-20.1,12.9c-1.8,0.8-5.8,3-7.7,1.4c-1.8-1.5-0.4-5.6-0.1-7.6c1-6,4.1-14,2.3-20.1c4.1-1.4,3.2-7.8,0.9-10.5
	c-2.8-3.4-7.1-3.4-11.1-2.7c-4.6,0.8-8.9,2.7-12.9,5c-1.9,1.1-3.9,3.2-6.1,3.7c-6.7,1.5-14.2,1-21.1,1.9c-16.1,2.4-32,6.3-47.6,11
	c-8.6,2.6-17.1,5.5-25.5,8.6c-3.2,1.2-7.8,4.3-11.2,4.1c-3.8-0.1-9.1-3.4-12.6-5.1c-11-5.4-25.6-11.9-30.6-23.9
	c-2.2-5.3,0-10.7,2.8-15.3c5.8-9.6,14.9-17.2,23.7-23.8c25.4-19,57.2-30.8,88.7-33c10.9-0.7,22.4-0.8,33,2.3
	c2.5,0.7,4.9,1.7,7.1,3.1c14.4,9.3,0.8,27.4-8.2,35c-2,1.7-4.2,3.4-6.5,4.8c-4,2.6-10.5,4.4-13.5,8.2c-2.4,3.1,1.8,4.8,4.3,4.7
	c5.4-0.1,10.6-3.9,15-6.8c3-2,5.8-4.2,8.5-6.6c11.1-9.6,22.4-30.6,9.4-43.2c-10.1-9.9-27.5-10.3-40.7-10.3
	c-36.8,0-74.8,13.9-104,35.8c-14.1,10.6-35.5,29.5-27.4,49.5c6.7,16.5,25.7,21.8,39.6,29.9c-8.7,3.6-17.5,8.6-25.2,14.1
	c-9.1,6.6-26.6,21.1-15.5,33.5c1.4,1.5,3.2,2.7,5,3.7c2.5,1.3,5.1,2.1,7.8,2.6c8.4,1.6,17.4,1.1,25.8,0.3
	c14.1-1.4,28.6-3.4,41.8-8.7c9.7-3.9,23.1-12.1,16.7-24.3c-0.9-1.7-2.1-3.4-3.5-4.8c-3-3-6.6-5.3-10.2-7.3c-5.8-3.3-13.1-7.8-19.7-9
	c1.7-1.6,4.4-2.2,6.5-3c5.1-1.9,10.2-3.7,15.3-5.4c20-6.7,42.4-13.5,63.6-13.7c-2.9,5.5-5,14.3,4.1,14.3c1.4,0,2.7-0.1,4.1-0.5
	c7.9-2,13.3-8.4,20.4-11.7c-0.2,7.9-5.4,17.6-1.6,25.2c2.8,5.6,9.3,5.7,14.5,4.1c10.6-3.3,21.2-10.4,29.6-17.7
	c-7.7,18.5-17.9,35.8-19,56.4c-0.3,5.1-2.4,17.2,4.4,19c2.4,0.6,5-0.8,5-3.4c0.1-2.7-1.3-5.4-1.3-8.2c0-10.3,2.4-21.2,5.7-30.9
	c10.6-31.6,30.8-59.9,52.3-85c5.5-6.4,11.2-12.7,17.1-18.7c2.3-2.3,4.7-5.6,7.5-7.2c2.6-1.5,7.3-0.9,10.2-1c6.7-0.3,13.4-0.8,20.1-1
	c24-0.6,48.3-2,72.4-1c8.6,0.4,17.3,0.6,25.8,0.7c2.9,0,7,1.2,9.5-0.9C477.2,233.6,472.9,230.1,470.1,229.4z M128.7,345.8
	c3,2.1,7,5.9,4.9,10c-2,3.9-7.5,6.2-11.4,7.8c-10.7,4.2-22.3,6.4-33.7,7.8c-9.5,1.2-19.8,2.4-29.2,0.6c-3.5-0.7-8.7-2.2-10.1-5.9
	c-1.7-4.6,4.8-9.9,7.8-12.5c8.2-7.1,18.2-12.7,27.9-17.5c3.2-1.6,7.3-4.6,10.9-5.1c2.6-0.3,6.5,2.2,8.8,3.2
	C112.7,337.3,121.6,340.5,128.7,345.8z M199.1,309.8c3-6.9,12-11.7,18.7-14.4c3-1.2,7.2-2.9,8.8,0.8
	C215.8,296.2,208.9,307,199.1,309.8z"/>
<path class="st0" d="M742.5,300.7c-3.7-4.9-11.6,4.8-14,6.9c-13.3,11.4-28.4,19.5-42.5,29.8c3.2-6.1,6.8-11.9,10-18
	c1.9-3.6,3.8-7.2,5.6-10.9c1.7-3.4,4.4-7.3,4.8-11.2c0.5-4.8-4.4-6.1-8.1-4.5c-6.1,2.7-11.7,8.3-17,12.3
	c-10,7.5-20.2,14.7-30.9,21.1c-3.6,2.2-11.8,8-16.3,6.1c-3.3-1.4-0.8-6.9,0-9.3c2.5-7.4,6.9-14.1,11.5-20.4c1.3-1.8,3.4-5.1,0.6-6.7
	c-3.8-2.2-8.9,2.9-11.5,5c-9.3,7.7-18.9,15.3-29.2,21.6c-3.1,1.9-6.4,3.7-9.9,4.7c-1.4,0.4-3.4,1-4.4-0.5c-1.2-2,0.1-5.6,0.5-7.8
	c1.1-5.8,3.9-13.6,2.2-19.4c5-1.8,2.6-9.7-0.7-12c-4.1-2.9-10.3-1.4-14.6,0.1c-5.6,2-9.9,5.6-15,8.5c-18.6,10.8-35.2,23.9-52.7,36.4
	c-5,3.6-10.2,7.3-16,9.6c-2.3,0.9-5.6,1.8-7.1-0.9c-1.1-1.9-0.6-4.5-0.2-6.5c0.9-5.3,2.8-10.4,5-15.3c9-20.3,23.3-38.5,37.4-55.4
	c4.3-5.1,9.7-10,13.3-15.6c1.2-1.9,2.8-6-0.2-7.2c-4.7-2-9.2,5-11.7,7.9c-9.2,10.7-18.3,21.5-28.1,31.6c-2.6,2.7-7.2,8.6-10.9,9.7
	c-2.2,0.7-7.2-2.3-9.9-2.5c-7.8-0.5-15.7,1.8-22.4,5.5c-24.3,13.2-41.9,34.3-61.2,53.6c-6.4,6.4-12.6,13.2-19.7,18.7
	c-1.8,1.4-6.2,5.3-8.3,2.6c-1.3-1.7-0.1-4.3,0.5-6.1c2-5.4,5.2-10.5,8.3-15.3c6.3-9.6,13.1-18.7,20-27.9c2.2-2.9,7.4-7.6,7-11.6
	c-0.3-3.4-4.9-5.8-6.7-8.5c5.1-2.8,9.4-9.9,12.6-14.6c2.6-3.9,4.9-7.9,6.6-12.2c3.5-8.7,3.2-22.6-9.4-22.8c-1.9,0-3.6,0.3-5.4,0.9
	c-14.7,4.9-24,23.6-20,38.2c0.9,3.4,2.5,7.7,5.1,10.2v0.3c-9.6,6.6-19,12.4-29.9,16.7c-4.7,1.9-9.8,4-15,4c0-4.8,3.5-10.2,1.6-15
	c-1.9-5-8.2-3.6-11.8-1.8c-9.6,4.7-16.5,13.3-25.5,18.8c1.3-4.1,3.3-7.8,5.4-11.6c1.2-2.2,2.6-4.3,3.9-6.5c1.1-1.8,2.3-3.9,1.8-6.1
	c-0.7-3.2-5-2.9-7-1.2c-2.2,1.7-3.6,4.6-5,7c-3,5.3-6.3,10.9-7.3,17c-0.7,4.1,0.5,8.9,5.1,10c3.8,0.9,7.8-1.4,10.9-3.4
	c7-4.5,12.7-12.2,20.4-15.4c-0.1,4.5-3.2,11.9,0.7,15.5c3.6,3.3,11.5,0.9,15.6-0.3c10.4-2.9,20.7-7.4,29.9-13
	c3.9-2.3,8.5-4.9,11.2-8.7h0.3l2,2v0.3c-4.8,4.3-8.5,11.1-12.2,16.3c-7.7,10.8-16.5,22.1-21.2,34.7c-3,8-2,21.3,10,19.6
	c9.5-1.3,18.4-11.5,24.8-17.9c15.6-15.6,30.7-31.6,46.9-46.6c0.4,8.4,8.8,10.4,15.6,8.9c12.5-2.9,23.8-13,32.6-21.8
	c-3.3,5.8-6.9,11.4-9.4,17.7c-3.4,8.4-11.2,28,1.9,32.4c1.6,0.5,3.1,0.6,4.8,0.6c2.3,0,4.4-0.6,6.5-1.4c9.3-3.6,17.5-10.4,25.5-16.1
	c10.3-7.4,20.9-14.6,30.9-22.2c0,5.7,4.5,7.1,9.5,6.3c8.5-1.5,14.4-8.1,21.8-12c-0.1,7.7-4.9,16.5-2.1,24.1
	c2.3,6.1,8.8,6.8,14.3,5.3c11.1-3.1,19.8-10.6,29.2-16.9c-4.1,9.2-4.4,22.7,8.8,22.4c2.1,0,4.1-0.6,6.1-1.3
	c10.6-3.5,20.4-9.8,29.6-16c7.3-4.9,15-10,21.4-16.1c-3.8,9-8.7,17.7-13.6,26.2c-2,3.4-3.9,8.4-6.9,11.1c-2.3,2.1-6,3.6-8.8,5
	c-5.6,2.8-11.2,5.6-16.7,8.5c-19.3,10.4-38.9,20.5-57.1,32.8c-16.1,10.8-40.4,27.2-38.7,49.4c0.6,7.9,8.5,11.5,15.3,12.4
	c14.2,1.9,29.4-7.4,40.1-15.6c20.6-15.7,37.2-36.4,52.2-57.4c4.5-6.3,8.7-12.6,13-19c1.8-2.8,3.4-6.3,5.7-8.7
	c2.8-2.9,7.6-4.4,11.1-6.5c8.1-4.8,16-9.6,23.8-14.8c9.1-6.1,18.1-12.7,25.8-20.4C739.9,308.7,745.3,304.4,742.5,300.7z
	 M394.9,292.5c-5.6-9.7-2.9-20.9,4.8-28.6c2.5-2.6,6.3-5.9,10.2-5.6c7.4,0.7,1.3,12.2-0.5,15.4c-1.6,2.8-3.4,5.5-5.3,8.2
	C401.5,285.5,398.6,289.9,394.9,292.5z M462.9,313.2c-2,0.9-7.5,3.2-9.1,0.6c-2-3.3,3.2-7.8,5.4-9.4c7.4-5.4,17.3-9.2,26.5-7.5
	C480.9,303.6,470.5,310.1,462.9,313.2z M562.9,309.8c1.3-6.7,12.6-12.1,18.4-14.4c3-1.2,7.2-2.9,8.8,0.8
	C579.8,296.2,571.9,306,562.9,309.8z M658.7,366.6c-3.9,5.8-8.1,11.4-12.3,17c-15.4,20.6-34.2,43.6-57.6,55.4
	c-6.3,3.2-13,5.8-20.1,5.9c-2.7,0-5.6-0.1-7.8-1.9c-3-2.5-2.1-7-1.1-10.4c2.6-8.3,9.2-14.8,15.6-20.4c25.9-22.3,58.2-34.7,87-52.4
	C662.7,361.9,659.8,364.9,658.7,366.6z"/>
<path class="st0" d="M493.9,300.3l-0.3,0.7 M1597.2,310.2l-0.3-0.3 M1050.8,312.9l-0.3-0.3 M1231.3,312.9l-0.3-0.3 M1391.5,317
	l-0.3-0.3 M1391.1,317.6l-0.3-0.3 M1641,320.7l-0.3-0.3 M1592.8,333.6l-0.3-0.3"/>
</svg>
