<?xml version="1.0" encoding="utf-8"?>
<!-- Generator: Adobe Illustrator 23.1.0, SVG Export Plug-In . SVG Version: 6.00 Build 0)  -->
<svg version="1.1" id="Layer_1" xmlns="http://www.w3.org/2000/svg" xmlns:xlink="http://www.w3.org/1999/xlink" x="0px" y="0px"
	 viewBox="0 0 1871 652" style="enable-background:new 0 0 1871 652;" xml:space="preserve">
<style type="text/css">
	.st0{fill:#FFFFFF;}
</style>
<path class="st0" d="M1269.1,37.2c-27.8,4.4-50.2,29.3-66.7,50.1c-44.8,56.3-78.3,155.4-25.8,217.6c20.2,23.8,54.3,33.9,80.5,49.6
	c10.7,6.5,26,14.6,30.1,27.2c4,12.2-8.2,21.4-16.5,28.3c-14.4,11.8-31.3,21-48,29.1c-7.8,3.8-18,6.5-24.7,11.9
	c-8.5,6.8,0.1,19.6,9.5,18.6c10.2-1.1,22.1-9.4,31.2-14.1c32.8-16.4,91.1-47.8,64.2-92.2c-6.6-10.8-19.2-18.1-29.8-24.5
	c-22.5-13.5-47.8-23.4-68.8-39.1c-46.6-34.7-35.3-106.1-13.8-151.6c7.4-15.6,16.5-30.6,27.2-44c7.7-9.7,15.6-19.5,25-27.7
	c5.3-4.6,10.6-9.4,16.8-12.9c20.2-11.2,34.7-1.3,41.4,19.8c9.2,28.9,4,56-1.1,84.8c-1.6,9,5.3,17.4,14.8,13c5-2.2,6.2-7.4,7.5-12.2
	c2.7-10.7,4.8-21.8,5.4-32.8C1329.4,98.9,1322.3,28.8,1269.1,37.2z M1045.1,305.4c-5.2-2.2-12.7,1.7-17.5,3.6
	c-15.9,6.3-30.2,15.8-43.2,27c-3.4,3-15.4,16.2-19.7,11.9s-2.3-15.8-3-21.4c-2.5-20.8-3.1-42.2-9.1-62.4c-2.6-8.8-6.6-18.4-16.2-21
	c-17-4.5-27.5,14.6-32.8,27.4c-10.4,25.2-13.4,53.1-25.4,77.6c-4.1,8.3-10.1,21.5-20.2,23.7c-8.5,1.8-14.2-8.3-16.7-14.9
	c-7-18.4-2.6-38.1-0.3-56.8c0.7-6.2-1-20.8-10.9-13.9c-8.9,6.2-9.3,23.8-13.1,33.1c-13,31.2-24.1,63.4-39.2,93.6
	c-4.5,9-9.5,19.1-16.6,26.4c-3.3,3.4-7.9,7-12.7,4c-5.8-3.6-8.1-12.2-9.8-18.4c-4.7-16.7-6.3-34-8-51.2c-1.6-16.4-2.9-33.9-1.4-50.4
	c2.9-30.6,14-58.9,23-88c9-28.8,15.7-58.4,21.6-88c4.7-23.8,8.8-47.8,8.8-72c0-10.4-1.1-22.8-13.6-25.2
	c-21.8-4.2-32.5,32.2-36.9,47.6c-11,38.2-16,77.4-19.8,116.8c-1,11.1-2,22.4-2.5,33.6c-0.3,7.2,0.2,15.1-3.7,21.6
	c-5.1,8.7-13,2.2-20.4,0.6c-8.4-1.7-18.2-0.2-25.6,4.1C638,287,632.6,315,623.9,336.9C612.2,366,601,395.7,586,423.3
	c-3.5,6.6-12.7,25.1-22.6,20.6c-7.7-3.6-10.1-15.6-11.9-23c-5.4-21.8-6.6-44.1-8.2-66.4c-2.7-39.2,13.5-69.9,24.9-106.4
	c12.2-39.4,19.7-81.4,22.5-122.4c1.3-18.7,2.3-39-0.6-57.6c-1.2-7.5-2.9-16.9-9-22.1c-9.4-7.9-21-0.8-26.7,7.7
	c-11.9,17.7-15.6,41-19.3,61.6c-7.9,43.9-11.1,89.1-13.1,133.6c-0.6,14.4-1,28.8-1.6,43.2c-0.2,5.8,1.2,12.9-0.6,18.4
	c-3.8,11.5-13,23-19.1,33.6c-8.6,15.1-18.4,36.6-33.1,46.6c-12.3,8.5-17.8-14.6-19.9-22.6c-5-18.8-5-38.4-3.2-57.6
	c0.8-8.2,3.7-17.4,2.9-25.6c-1-10-12.2-14.2-18.4-5.6c-6.2,8.7-5.8,23.3-6.2,33.6c-1.2,26.6-2.8,55.7,7.9,80.8c1.8,4.2,4.1,8.4,7,12
	c15.4,19.7,36.6,8,49.8-7.2c6.3-7.3,11.7-15.6,16.5-24c5.6-9.8,14.6-21.6,16.6-32.8h0.8c0,33.2,2.3,73,15.1,104
	c5,12,15.2,28.6,30.5,26.8c12.6-1.4,21.2-11.6,28.1-21.2c15.9-22.3,23.3-48.9,34.3-73.6c2.5,5.6,4.6,11.1,8.4,16
	c8.8,11.2,22.6,12.7,33.2,3c11.4-10.4,18.1-26.7,24-40.6c2.5-5.8,4.5-14.6,10.4-17.6c6.7,29.6,4.5,60.6,11.9,90.4
	c3.4,13.3,7.7,28.1,18.5,37.4c15.3,13,31.9,2.7,42.3-11c20.3-26.6,31.8-61.4,42.5-92.8c3,6.8,5,14.2,9.8,20
	c13.4,16.3,36.4,15,51,0.8c19-18.5,25.5-47.3,32.3-72c2.6-9.6,4.9-19.8,9.2-28.8c1.3-2.6,4.2-8.3,7.9-6.9c5.1,1.9,5.2,13.6,6,18.1
	c3.1,19.2,2.9,38.4,4.7,57.6c0.9,9.4,1.4,18.9-1,28c-5.2,19-18.6,35-26.8,52.8c-18,39.1-37,85.8-37,129.6c0,20.9-3.4,63.4,22.4,71.4
	c29.3,9.1,39.2-30.8,45-51.4c11.1-39,15.4-80.5,18.1-120.8c1.7-24.6-0.5-51.2,9.9-74.4c13.9-30.9,42.4-48.2,70.2-65
	C1046.3,318.7,1052.6,308.5,1045.1,305.4z M759.5,86.4h1.6c-0.2,32-9.6,65.9-17.3,96.8c-1.9,7.6-3.3,26.6-9.9,31.2
	C741.9,171.6,740.4,126.7,759.5,86.4z M546.7,201.6c1.8-27,4.9-54,9.4-80.8c1.5-9.1,3.1-18.4,5.9-27.2c0.7-2.3,2.2-7.8,5.4-7.8
	c3,0.1,3.3,6.5,3.4,8.6c0.4,9.3-0.2,18.7-0.9,28c-1.8,25.8-6.4,51.5-11.4,76.8c-2.6,13-4.7,28.2-10.9,40H546
	C543,227.2,545.9,213.7,546.7,201.6z M690.5,308.8c-3.3,17.3-13.8,35.5-21.6,51.2c-2.6,5.2-6.1,15.5-12.6,16.8
	c-7.8,1.6-8.8-19.4-8.8-24c0-15.8,4.5-31.8,11.8-45.6c3.4-6.5,8.6-13.8,16.2-15.6C687.9,288.8,692.5,298.3,690.5,308.8z
	 M939.6,472.8c-2.3,32.8-7.4,65.7-15.4,97.6c-2.6,10.6-5.8,21.3-10.2,31.2c-1.4,3.1-3.6,9.4-8.1,7.7c-4.1-1.6-5.4-7.1-6.2-10.9
	c-2-10.4-1.8-20.7-1.8-31.2c0-34.2,11.8-68.6,24.3-100c3.8-9.4,8.4-27.4,18.1-32C943.9,446.7,940.4,461,939.6,472.8z M368.8,150.4
	c-7.1-28.3-20.2-57-34.6-82.4c-4.3-7.5-11.9-24.3-23.4-19.4c-9.4,4,3.2,20,5.7,25c12.7,25,22.7,51.3,30.1,78.4
	c19.4,71.4,28.2,153.5,7.7,225.6c-6.9,24.1-17.5,59.9-41.1,72.6c-19.9,10.6-37.8-10.5-46.5-26.2c-22.5-40.3-26.5-84.1-32.3-128.8
	c-1.7-12.6,5.6-48.6-14.7-46.3c-10.2,1.1-10.2,18.6-12.1,26.3c-7.3,29-19.4,53.8-33.7,80c-4.5,8.2-9.3,16.1-16.6,22.2
	c-2.2,1.8-6.3,5-9.5,3.8c-4.7-1.8-0.5-10.7,0.4-14c3.8-14.7,7.8-29.4,12.3-44c10.7-34.8,20.6-70,28.2-105.6
	c3.4-16.2,8.2-33,8.6-49.6c0.5-20.1-7.6-51.2-33.6-48.6c-18.7,1.8-34.7,15.8-48,27.8c-32.1,29-58.7,71-64.6,114.5
	c-3.8,28.3,3.2,64,36.6,69.7c5.1,0.9,10.1,1,15.2-0.2c4.2-1,11.3-6.8,6.1-11.2c-2.9-2.4-9.6-1-13.3-2c-9.7-2.6-17.7-10.9-21-20.2
	c-4.9-13.5-3.5-27-0.7-40.8c6.8-33.2,27.8-64.4,51.4-88c8.5-8.5,17.6-16.6,28-22.5c3.3-1.9,8.1-5,12-5c6.6,0.1,9.9,9.4,10.3,14.7
	c1.1,15.8-2.6,31.9-6.1,47.2c-10.2,45-23.1,89.2-35.8,133.6c-5.5,19.4-16.3,44.6-10,64.8c7.2,23.4,30.3,14.7,43.1,2.2
	c15-14.6,24.1-33.9,34.2-51.8c1.8-3.3,6.5-17.4,10.7-17.4c3.7,0,4.4,7.7,5.1,10.2c3.4,12,6.3,24,9.6,36c7.4,26.4,17.3,55,36.6,75.2
	c14.9,15.6,37,23.3,57.5,14.5c31.1-13.4,44.2-51.5,52.9-81.7C395.5,311.4,388.2,227.7,368.8,150.4z"/>
<path class="st0" d="M438.7,232.4c-13.7,1.6-11.3,23,2.4,21.8C455.1,253,453,230.7,438.7,232.4z M1352.3,232.4
	c-14.1,1.7-10.7,23.8,3.2,21.7C1369.1,252,1366.1,230.8,1352.3,232.4z M1820.8,308.8c-1.2-9.1-10.6-8.2-14.6-1.6
	c-12.9,21.2-22.4,43.8-37.1,64c-2.7,3.8-11.9,18.7-17.5,16c-9-4.3-6.5-25.7-6.5-33.6c0-21.3,3.6-42.9,0.1-64
	c-1.8-10.5-5.9-22-16.1-27.2c-12.5-6.4-25.9,0.6-34,10.4c-15.9,19.3-24.7,45.3-34.6,68c-3.1,7.2-6.2,14.6-9.6,21.6
	c-1,2-2.2,6.2-5,6.2c-6.6,0-3.2-15.4-3.2-19c0.1-13.8,2.2-27.9,4.1-41.6c0.8-6,2.2-13.8-3.4-17.8c-9.6-7.1-13.4,4.1-20,7.7
	c-15.4,8.4-32,14-47.1,23.1c-4.2,2.6-14.1,12.7-19.2,10.8c-6.5-2.4-4.6-13.8-5.3-19c-2.2-17-3.2-57.4-29.1-54.2
	c-12.4,1.5-16.3,15.8-27.2,19.8c-9.3,3.4-20-3.8-30.4-0.9c-21.2,5.9-32,33.8-42.1,51.4c-9.8,17.1-19.3,34.6-31.1,50.4
	c-3.5,4.7-9.6,13.8-16.4,13.4c-9-0.5-12.2-17-13.9-23.8c-6.6-26.5-4.5-52.4-0.9-79.2c1.1-8.2-5-20.2-14.8-13.8
	c-10.7,7-9,28.4-9.7,39.4c-1.8,26.7-2.5,57.8,9.9,82.4c9.3,18.6,29.4,24.6,45.4,10.2c5.1-4.6,9.8-9.6,13.9-15
	c5.4-7.3,12.3-16,14.9-24.8h0.8c0,9.8,0,19.5,5.7,28c8.3,12.4,27.4,11,37.4,1.4c7.8-7.4,11.4-18.4,15.9-27.8
	c7.6-16.2,15.9-32.1,24-48c4.1-8,8-16.6,13-24c1.5-2.3,4.6-6.3,7.7-4.2c4.5,3.1,4.6,12.9,5,17.8c1.8,16.4,3.4,34.2-0.5,50.4
	c-2.2,9.4-8.3,16.8-13.2,24.8c-6.5,10.6-12.2,21.5-17.1,32.8c-17.8,41-26.7,84.2-26.7,128.8c0,19,1.4,38,7.8,56
	c3.3,9.3,8.4,18.4,18.6,20.9c11,2.7,20.9-5.7,26.3-14.5c11.2-18,14.5-41.8,16.8-62.4c4.2-37.7,7.8-75,10.4-112.8
	c1.4-19.8-2.8-43,5.2-61.6c11.2-26.1,41.5-47.4,66.9-58.4c-2.4,12.7-3,26.3-3.9,39.2c-1,14.1-1.6,31.2,5,44
	c6,11.8,19.7,12.5,28.5,3.2c21.3-22.6,29-59.8,42.7-87.2c4.2-8.5,8.3-17.2,14-24.8c1.7-2.2,4.8-6.7,7.9-6.8c3-0.1,4.2,5.4,4.7,7.6
	c2,7.8,2.7,17.7,1.8,25.6c-2.6,22.6-5.7,54.5,3,76c1.5,3.7,3.4,7.4,6.2,10.3c18.9,20,41.3-1,52.4-17.5c6.8-10.2,12.8-20.8,17.8-32
	c4.4-9.8,8.6-19.7,12.6-29.6C1818.7,318.8,1821.5,313.7,1820.8,308.8z M1482.1,315.2c-4.7,17.8-16.8,35.4-24.8,52
	c-2.2,4.5-4.6,14.5-10.6,15.4c-2.9,0.5-3.6-3-3.9-5c-0.8-6.3,0.2-13,0.8-19.2c1.5-15.5,6.6-31.8,13.7-45.6c3-5.9,7.4-12.6,14.2-14.6
	C1482.7,294.8,1484.2,307.6,1482.1,315.2z M1530.7,421.6c0,10.7-0.6,21.3-0.8,32c-0.9,35.6-5,72.2-11.8,107.2
	c-1.6,8.4-3.3,17-6.7,24.8c-1.3,3-2.9,7.3-6.3,8.2c-5.1,1.5-7.4-5.4-8.2-9c-2.7-11.3-2.9-22.9-2.9-34.4c0-36.5,6.4-70.3,18.4-104.8
	c2.9-8.4,6.3-16.8,10.2-24.8c1.2-2.4,2.5-6.6,5.1-7.8C1531.7,411.1,1530.7,419.7,1530.7,421.6z"/>
</svg>
