<?xml version="1.0" encoding="utf-8"?>
<!-- Generator: Adobe Illustrator 23.1.0, SVG Export Plug-In . SVG Version: 6.00 Build 0)  -->
<svg version="1.1" id="Layer_1" xmlns="http://www.w3.org/2000/svg" xmlns:xlink="http://www.w3.org/1999/xlink" x="0px" y="0px"
	 viewBox="0 0 1871 652" style="enable-background:new 0 0 1871 652;" xml:space="preserve">
<style type="text/css">
	.st0{fill:#FFFFFF;}
</style>
<g>
	<path class="st0" d="M1490.7,218.5c-8.5-14.3-29.5-18.6-45.1-16.6c-7.5,1-14.9,1.4-22.2,3.6c-22.4,6.7-44.3,24.5-44.5,49.6
		c0,5.3,1.2,10.3,3,15.2c7.1,19.4,25.9,31.9,36,49.5c7.1,12.4,11.9,26.6,12.4,40.9c1.2,30-16.7,59.2-42.1,74.3
		c-26.1,15.5-63.7,19.4-91.3,5.6c-36.2-18.1-50.7-66.1-25.2-98.9c16.3-21,45.1-32.9,71.6-28.6c10.8,1.8,20.4,6.9,28.1,14.6
		c1.4,1.4,5.5,8.2,8,5.3c2.3-2.8-3.9-8.3-5.6-10c-8.1-8-19.2-12.8-30.4-14.3c-43.7-5.9-88.9,25.7-88.9,71.6c0,7.3,0.9,14.4,3,21.4
		c2.5,8.1,6.7,15.7,12.1,22.2c5.8,7.2,12.8,13.5,20.8,18.2c16.1,9.3,34.3,11.5,52.7,10.7c15.3-0.7,30.1-5,43.7-11.8
		c45.1-22.5,61.8-82.6,34.7-125.1c-14.9-23.4-50-46-34.2-77.6c2.1-4.1,4.9-8,8.1-11.3c15.6-16,40.2-22.3,62-20.7
		c12.3,0.9,25.6,5.3,30.8,17.6c2.1,4.9,2.1,10.1,1.2,15.2c-4.2,25.6-33.3,37.2-56.3,30.7c-7.2-2.1-14.2-5.3-19.9-10.1
		c-1.1-0.9-4.2-4.5-5.6-2c-2.3,4.1,6.4,8.4,9.1,10c11.1,6.5,24.7,9.8,37.4,8.1c20.2-2.7,37-17.3,39.8-37.7
		C1495,231.4,1494.3,224.4,1490.7,218.5z M179,211.6c-3.8-2-7.9-3.1-12.1-3.8c-4.9-0.8-10.3-1.1-15.2-0.5
		c-14.1,1.8-27.1,4.1-40.2,10.1c-39,17.9-66.4,55.1-79.7,95c-4.4,13.2-7.8,27-8.5,40.9c-1.8,40.7,17.1,87.9,62,95.3
		c7.7,1.2,15.7,1.2,23.4,0.1c10.3-1.4,20.6-4.3,30-8.8c7.2-3.4,14-8,20.3-12.9c1.5-1.2,6.7-4.5,4.1-6.8c-2.2-1.9-5.3,1.9-6.9,3.1
		c-6,4.8-12.6,8.9-19.5,12.4c-20,10.1-45.9,13.8-66.7,3.7c-30.7-14.8-44.8-51.4-42.5-83.7c3.6-53.2,34-109,83.1-132.9
		c12.8-6.2,26.1-9.8,40.2-11.1c8.6-0.8,17.8-0.5,25.7,3.5c22.1,11,23.8,40.6,13.1,60.1c-5.2,9.6-13.6,17.3-22.9,23
		c-6.7,4.2-14.4,7.2-22.2,8.6c-6,1.1-11.9,1.4-17.9,0.8c-11.1-1.1-24.3-9.8-23.4-22.2c0.4-5.7,4.3-11.6,7.7-16
		c7.1-9.2,17.7-15.3,28.5-18.9c3.4-1.1,7.1-1.4,10.5-2.6c1.9-0.7,2.1-3.4,0-4c-2-0.5-4.7,0.4-6.6,0.9c-5.1,1.3-10.1,2.8-14.8,5.1
		c-18.1,9-39.9,30.9-24.2,51.6c2.1,2.8,4.8,4.9,7.8,6.6c3.7,2.2,8.2,3.3,12.5,3.8c28.5,3.5,61.5-12.6,71.7-40.4
		C204.3,250.5,200.8,222.8,179,211.6z M1847.6,364.1c-0.6-1.4-2.6-1.5-3.5-0.4c-2.1,2.7-3,6.7-4.6,9.6c-5,8.8-11.1,18.8-20.4,23.5
		c-4.1,2.1-9.7,3.4-14,1.3c-8.4-4-8.7-14.5-8.2-22.5c1-15,8-29.4,13.1-43.3c1.6-4.3,4-8.8,4.8-13.3h14.8c1.7,0,4.5,0.3,4.9-2
		s-2.2-2.3-3.7-2.3h-14c3.8-8.1,7.1-16.7,10.4-25c0.7-1.6,4.5-9.2-0.6-7.5c-2.6,0.9-3.7,5.7-4.6,7.9c-2.3,5.3-4.5,10.6-6.6,16
		c-0.9,2.3-1.6,5.7-3.2,7.7c-1,1.2-2.9,0.9-4.3,0.9h-11.3c-1.7,0-4.9-0.3-4.5,2.3c0.3,2.1,2.9,2,4.5,2h13.7
		c-7.3,19-17.9,39.3-17.9,60.1c0,8.6,2.1,20.2,11.3,23.4c16.7,5.8,31.7-10.5,38.7-23.8c1.8-3.4,3.4-6.9,4.8-10.5
		C1847.2,367.1,1848.1,365.5,1847.6,364.1z M348.5,362.1c-2.3-12.1-11-22-20.2-29.5c-3.6-3-7.4-5.6-10.9-8.8c-1.1-1-3.2-2.3-3.5-3.9
		c-0.4-2.1,1.7-5.8,2.5-7.8c2.2-5.8,4.9-13.6,4-19.9c-0.4-2.9-1.2-6.1-4.1-7.5c-5-2.5-11.1,0.5-13.8,4.8c-4.1,6.3-4.6,15.9-1.5,22.6
		c1.4,2.9,6.8,7.5,6.6,10.5c-0.5,6-5.2,13.5-7.4,19.1c-2.4,6-4.7,12-7.1,17.9c-0.6,1.6-2.4,4.9-0.4,6.2c3.4,2.1,5.4-6.5,6.1-8.5
		c4.1-10.8,9.8-21.6,12.8-32.8c14.1,14.1,35.3,25.2,33.1,48.4c-1.6,16.2-16.5,29.3-33.1,25.6c-5.6-1.2-8.7-6-13.7-7.8
		c-2.5-0.9-4.1,1.6-2.6,3.6c9.4,12.7,32,11.1,42.7,1.5C347.3,387.7,350.8,374,348.5,362.1z M310,317.2c-7.3-5.9-10-21-2-27.5
		c7.3-5.9,8.2,4.5,7.4,9.2c-0.4,2.4-1.1,4.7-1.7,7C312.7,309.8,311.3,313.5,310,317.2z"/>
	<path class="st0" d="M1193.6,371.8c-3,6.6-7,12.7-11.5,18.3c-7.9,9.9-27.2,22.5-35.5,5.5c-1.1-2.2-1.6-4.6-1.9-7
		c-2-15.8,6-29.9,9-44.9c1.2-6,3.2-15.3-2.9-19.4c-7.5-5.1-18.5,6-23.4,10.8c-16,15.8-30.2,33.2-42.8,51.9c-3,4.4-5.8,8.9-8.9,13.3
		c-1,1.5-2.8,3.8-4.9,3.4c-3.3-0.7,0.9-8.5,1.5-10.4c-7.9,7.9-22.3,16.5-31.8,5.5c-1.5-1.7-2.7-3.7-3.5-5.9
		c-2.3-5.6-1.5-11.3-1.4-17.2h-0.4c-7.5,17.4-32.1,37.1-51.1,24.3c-7.3-4.9-8.5-11.6-12.1-18.8c-3.9,9-13.9,18.7-23.4,21.6
		c-13.4,4-24.5-5.1-24.6-18.8h-0.4c-4.9,12.7-25.9,27.9-38.2,15.6c-5.2-5.3-5.9-12.9-5.9-19.9h-0.4c-1.3,3-3.6,5.7-5.8,8.2
		c-8,9.6-27.1,24-39,11.7c-6.6-6.7-5.9-15.6-5.9-24.1H828c-1.2,3.2-3.9,5.5-6.2,7.8c-8.2,8.2-19.5,12.9-31.2,11.2
		c-3.2-0.5-6.5-1.5-9.4-2.9c-1.3-0.7-3.4-2.7-4.8-2.5c-1.7,0.2-3.6,2.7-4.9,3.7c-3.4,2.7-7.1,4.7-10.9,6.5
		c-17.4,8-42.3,4.6-45.5-17.8c-3.4-24.2,16.6-49.9,38.1-58.7c8.3-3.4,18.6-5,27.3-2.1c3.3,1.1,7.9,3.7,9.1,7.3
		c0.5,1.7-1.1,3.5-2.8,2.7c-2.6-1.1-4.3-4.1-7-5.4c-7.1-3.3-16-1.7-23,1.1c-20,7.8-39.6,30.5-37.4,53.1
		c2.3,22.7,29.3,22.9,44.4,13.1c2.7-1.7,6.6-3.9,8.3-6.6c0.9-1.4-0.6-2.7-1.3-3.8c-2.1-3-3.3-6.2-4-9.8c-1.9-9.9,1.2-21.8,8.7-28.7
		c8.5-8,18.8-3.7,18.3,8.1c-0.6,13.4-6.9,22.8-14,33.5c4.2,2,7.8,4.2,12.5,4.9c12.2,1.9,23.8-5.6,30.7-15.1
		c2.5-3.4,3.8-7.4,6.1-10.8c0.7-1.1,2.1-1.4,2.8-2.5c1.9-2.9,2.7-6.9,3.9-10.1c3.2-8,6.2-16.1,9.3-24.2
		c6.3-16.6,12.9-33.1,19.5-49.5c4.5-11.3,9.1-22.5,14.2-33.5c1-2.1,3.6-10.2,6.7-9.4c3.9,1-0.6,7.3-1.4,9c-4.4,9-8.1,18.4-11.8,27.7
		c-10.8,27.1-21.4,54.4-32.2,81.5c-4.6,11.7-11.4,27.1-5.1,39.4c5.8,11.3,19,6.7,26.8,0.5c16.6-13.3,22.5-34,29.7-53.1
		c2-5.2,4.1-10.4,6.2-15.6c0.6-1.6,1.4-5,3.9-4c1.8,0.7,1.1,3,0.6,4.4c-1.5,4.2-3.2,8.3-4.8,12.5c-5.9,15.1-17.5,35.6-12.5,52.3
		c0.5,1.8,1.4,3.5,2.6,5.1c8.3,11.2,21.5,0.9,28-6.6c2.9-3.3,7-7.4,8.4-11.7c2.1-6.3,2.1-13.7,4.1-20.3c3.7-12.5,9.1-24.5,13.8-36.7
		h-13.7c-1.6,0-4.2,0.2-4.5-2c-0.4-2.7,2.8-2.3,4.5-2.3h11.3c1.4,0,3.3,0.3,4.3-0.9c1.6-2,2.3-5.3,3.2-7.7
		c2.1-5.2,4.4-10.4,6.5-15.6c0.9-2.3,2.1-7.4,4.8-8.3c5.1-1.7,1.2,5.9,0.6,7.5c-3.4,8.3-6.6,16.8-10.4,25h14c1.6,0,4.2,0,3.7,2.3
		c-0.4,2.3-3.2,2-4.9,2h-14.8l-4.5,12.5l-11.1,31.6c4.1-0.9,2.4,4.2,1.4,6.2c-1.2,2.8-3.3,5.7-4,8.6c-1.8,7.9,2.8,20.4,11.9,21
		c14.2,1.1,24.7-13.8,30.5-24.9c1.4-2.7,1.2-5.7,1.6-8.6c0.5-4,1.6-8,3-11.7c6-16.4,22.3-33,40.5-34.3c11.7-0.8,23.8,2.4,29.5,13.6
		c1.2,2.4,4.4,8.5,2.5,11.2c-1.3,1.8-3.3,0.6-3.8-1.1c-1.1-3.5-1.9-7-3.9-10.1c-6.2-9.2-17.6-11-27.8-8.6
		c-16.1,3.7-30.7,19.9-34.2,35.9c-0.5,2.3,1.8,3.2,1.3,5.5c-0.6,3.1-2.8,5.9-3.2,9c-1.9,13.3,12.4,26.7,25.3,24.3
		c16.9-3.2,27.6-19.7,34.8-34c1.9-3.8,3.3-8,5.3-11.7c0.7-1.2,2-2.4,3.5-1.5c2.9,1.8-1.7,10.8-2.5,13.2c-3.1,9.8-6.9,30.2,6.9,34
		c7.9,2.1,15.2-4.7,20.3-9.8c7.6-7.8,10.7-17,14.5-26.9c3.1-8.3,6.4-16.6,9.6-25c2.4-6.3,4.6-12.8,5.7-19.5c0.3-1.7,0.4-6,3.3-4.5
		c1.8,0.9,1.2,3.4,1,4.9c-0.7,4.5-2,8.9-3.4,13.3c-3.1,10.1-7.6,19.7-11.1,29.6c-0.8,2.2-0.2,4.4-1.1,6.6c-2.5,6.2-6,11.7-8.3,17.9
		h0.4c3.5-7.4,9.6-14.2,14.6-20.7c10.6-13.7,21.8-27.7,35.3-38.5c7.1-5.7,22.2-14.1,27.5-1.2c2.1,5.1,1.5,11.1,0.7,16.4
		c-1.9,11.3-6.7,21.8-8.7,33.1c-1.1,6.3-2.1,14.4,1.9,19.9s10.5,5.3,16,2.4c8.8-4.6,15.4-14.5,20-23.1c1.3-2.4,3.3-10.1,5.8-11.1
		C1198.3,361.2,1194.3,370.5,1193.6,371.8z"/>
	<path class="st0" d="M910.2,290.5c-8.1,1.1-5.7,12.2,2.3,11.1C919.9,300.5,917.6,289.5,910.2,290.5L910.2,290.5z M1685.9,290.5
		c-8.2,0.9-5.7,12.3,2.3,11C1695.5,300.4,1693.2,289.6,1685.9,290.5z"/>
	<path class="st0" d="M1652,363c-1.7,0-2.3,1.7-2.8,3c-1.3,3.2-2.7,6.4-4.3,9.4c-4.8,8.8-11.3,17.6-20.6,21.9c-4.3,2-9.9,3-14,0
		c-5-3.6-5.3-11-4.4-16.5c2.1-13.3,8.4-25.2,12.4-37.8c1.6-5.1,3.9-14.7-0.7-19c-3.2-3-8.3-2.8-12.4-2.8h-26.5c1-3,1.9-6.2,2.3-9.4
		c0.2-2.1,0-4.2-0.6-6.2c-1.7-5.9-7.2-8.9-12.6-5.3c-7,4.8-12.2,20-1.9,24.2c2.3,0.9,4.6,1,7,1c-11.7,25-17.1,54.2-43.7,68.1
		c-16.5,8.7-44.3,9.8-53.4-10c-1.4-3.1-2-6.4-2.3-9.8c-0.4-3.9,0.6-8.7,1.7-12.5c4.3-15.4,15.9-32.4,32.2-36.5
		c7.6-1.9,18.9-2.2,22.4,6.5c2.7,6.5-0.5,14.2-3.1,20.3c-0.9,2-2.5,4.1-2.8,6.2c-0.4,3.2,3,2.7,4.3,0.8c5.3-8.1,10.3-24.1,3.9-32.8
		c-5.9-7.8-18.7-7.3-27.1-5c-15.9,4.4-28.7,20.9-33.4,36.2c-1.5,5-2.7,10.7-2.5,16c0.1,3.8,0.7,7.8,2,11.3
		c6.2,16.7,25.1,20.6,40.9,19c25.4-2.6,43.4-22.5,52.9-44.8c3.5-8.2,6.3-16.7,9.4-25c0.8-2.2,1.6-7.3,4-8.1
		c4.5-1.5,10.5-0.5,15.2-0.5c5.6,0,16.1-1.8,20.6,2.1c4.3,3.6-0.4,13.8-1.6,18.2c-3.9,13-10.6,25.5-11.2,39.4
		c-0.3,6.9,1.6,14.5,8.6,17.5c16.2,6.9,31.4-10.4,38.1-22.9c2.1-3.9,4.1-7.9,5.5-12.1C1654,365.7,1654.2,363.1,1652,363z
		 M1576.2,313.7c-0.4,2.5-1.2,4.9-1.8,7.4c-2,0-4.3,0.2-6.2-0.4c-6.9-2.4-2.8-12.8,1.2-16.3c2.7-2.4,5.4-1.4,6.6,1.9
		c0.3,0.9,0.5,1.8,0.6,2.7C1576.7,310.6,1576.5,312.2,1576.2,313.7z"/>
	<path class="st0" d="M507.9,363.3c-1.3-0.9-2.7-0.1-3.4,1.1c-1.9,3.4-3.1,7.1-5,10.5c-4.6,8.2-9.8,16.8-18,21.8
		c-3.9,2.4-9.8,3.9-14,1.2c-5.5-3.4-5.7-11.4-4.9-17.2c2.3-17.1,11.6-33.3,11.2-50.7c0-1.7-0.3-3.5-1-5.1c-5.7-14-21.8-0.7-27.5,5.5
		c-4.3,4.6-8.2,9.6-11.8,14.8c-5.1,7.2-11.2,14.9-14.7,23h-0.4c2.7-11.4,8.6-22,8.6-33.9c0-4.3,0.2-8.9-2.7-12.4
		c-5.3-6.4-14.7-1.2-19.5,2.8c-9.2,7.8-16.1,18.3-22.7,28.3c-3,4.5-7,9.4-8.9,14.4c0-2.7,1.7-5.7,2.7-8.2c2.2-5.4,4.4-10.9,6.4-16.4
		c2.6-7.2,4.6-14.9,4.6-22.6c0-1.7-0.9-9.9-4.4-6.4c-1.4,1.4,0,4.3,0.1,6c0.3,4.3-0.5,8.7-1.7,12.9c-4.5,16.5-11.9,32.5-18.1,48.4
		c-2.3,5.7-4.4,11.4-6.6,17.2c-0.6,1.6-1.8,5.3,1.1,5.3c2.5,0,3.2-2.7,4-4.6c2-5,4.4-9.7,6.9-14.4c8.9-17.7,20.7-35.6,34-50.3
		c3.4-3.7,11.6-13.9,17.6-10.1c5,3.2,3.1,11.6,2.3,16.4c-2.7,15.3-8.7,30.4-14.1,44.8c-1.7,4.6-3.7,9-5.2,13.7
		c-0.5,1.7-0.7,4.3,1.8,4.2c2-0.1,2.7-3.5,3.3-5c2.4-5.6,5.3-11,8.1-16.4c8.7-16.3,19.3-32.4,31.4-46.4c3.7-4.3,10.1-12.4,16.5-12.1
		c8.2,0.4,5.7,13,4.6,18c-3.4,15.9-12.1,31.6-9.9,48.4c0.3,2.3,0.9,4.6,2,6.6c8.5,16,27.9,3.5,35.4-6.2c4.6-5.9,8-12.6,10.9-19.5
		C507.3,369,510,364.7,507.9,363.3z M1750.3,320.3c-3,0.7-6,2.1-8.6,3.8c-6.1,3.9-11.7,8.7-16.8,13.8c-8.3,8.3-15,17.6-22.6,26.5
		c1.6-7.2,4.6-14.1,7-21.1c2.5-7.4,5.6-14.9,7.1-22.6c0.3-1.6,1.6-8.5-2.4-6.5c-1.7,0.8-1.5,3.8-1.8,5.3c-0.9,4.6-2.6,9.2-4.1,13.6
		c-4.2,12.4-9.3,24.5-13.9,36.7c-2.8,7.4-5,16-8.9,23c-2.7,4.9-11.5,7.9-16.7,6c-7.1-2.5-9.8-11.7-9.1-18.5
		c1.6-14.6,7.5-27.7,12.6-41.3c1.9-5,4-9.8,5.7-14.8c0.5-1.6,0.7-4.5-1.8-4.1c-2.1,0.3-2.7,3.7-3.4,5.3c-2.2,5.5-4.3,10.9-6.4,16.4
		c-5.2,14-12.4,28.7-10.9,44.1c0.9,9.5,6.9,17.9,17.1,17.9c3.3,0,6.3-0.9,9.4-2c-7.4,22.7-18.2,44.1-25.7,66.7
		c-1.8,5.4-3.8,10.8-5.3,16.4c-0.5,1.9-1.1,5.7,2.1,5c2.3-0.5,2.7-4.6,3.3-6.5c2.1-6.4,4.1-12.8,6.6-19.1
		c5.1-13.2,10.2-26.5,15.1-39.8c3-8.2,5.3-18.8,10.1-26.1c2.1-3.2,5.3-6.1,7.9-9c0.9,2.7,1.7,5.6,3.6,7.8c8.3,9.8,24.9,7.4,35.4,3
		c21.8-9.3,35.9-30.3,38.1-53.7C1774.6,332.5,1766.8,316.4,1750.3,320.3z M1768.9,347.2c-2.2,21.9-17.4,42.9-38.5,49.9
		c-8,2.7-21.4,5-27.5-2.7c-6.4-8.1-0.3-14.4,3.5-21.8c1.6-3.1,3.7-6.3,2.3-9.8c6.5-7.5,12.4-15.8,19.9-22.4
		c4.8-4.1,9.1-8.4,14.4-11.9c2.5-1.6,5.3-3.2,8.2-4C1765.4,320.7,1770.1,336.2,1768.9,347.2z M298,364.1c-3.2,4.6-4.8,9.7-8.7,14
		c-11.3,12.6-26.5,15.5-40.9,6.6v-0.4c8.9-6.4,14-21.8,14-32.4c0-6-0.9-12.8-8.6-12.9c-5.7,0-10.3,4.6-13.3,9
		c-6.7,9.9-8.8,28.2,1.6,36.7c-12.6,12.5-41.1,23.4-51.6,2.3c-1.4-2.8-2.1-5.9-2.5-9c-0.8-6.4,1.4-13.7,4.1-19.5
		c6-13.3,17.1-25.2,30.5-31.2c7.6-3.5,17.2-5.8,25.4-2.5c2.7,1.1,5.6,5.6,8.2,5.9c1.6,0.2,2.5-1.6,2.1-2.9c-0.5-2.1-2.8-3.9-4.5-5
		c-7.2-4.8-17.3-4.4-25.3-2.3c-20,5-35.5,22.3-42.2,41.3c-4.1,11.6-4.1,26.6,6,35.4c11.2,9.7,29.4,6.5,41.3,0c3.7-2,7.5-6.9,11.3-8
		c1.6-0.5,3.7,1.5,5.1,2.2c3.3,1.6,6.9,2.8,10.5,3.2c14.2,1.4,26.8-5.6,35.3-16.7c2.4-3.1,6.4-8.4,6.4-12.5
		C302.2,362.7,299.3,362.2,298,364.1z M245.6,381.1c-1.2,0.4-2.2-1.4-2.8-2.2c-1.8-2.6-3-5.9-3.4-9c-0.9-8.7,2.9-24,12.8-26.3
		c5.2-1.2,6.7,4.7,6.4,8.8c-0.7,7.8-4,15.6-7.9,22.2C249.8,376.3,247.7,380.5,245.6,381.1z"/>
	<path class="st0" d="M675.8,319.9c-2.1,0-4.2,0-6.2,0.7c-3.7,1.1-7,3-10.1,5.2c-5.7,3.9-10.7,8.8-15.6,13.6
		c-7.4,7.4-16.4,16-21.1,25.4c0.1-4.1,2.3-8.6,3.6-12.5c2.9-8.2,5.9-16.3,8.5-24.6c0.8-2.7,4.3-11.2,1.4-13.3
		c-3.3-2.5-3.5,4.4-3.9,5.9c-2.1,8.4-5.1,16.5-8.3,24.6c-3.5,8.8-6.7,17.7-10.1,26.5c-1.4,3.7-2.4,9-5,12.1
		c-4.6,5.5-14.1,7.3-20.9,6.6c-5.3-0.5-8.9-3.2-13.7-5c3.6-5.2,7.4-9.7,10-15.6c1.6-3.7,3-7.6,3.6-11.7c1.1-7.5,0.6-22.3-11.3-18.3
		c-1.5,0.5-3,1.3-4.3,2.2c-11.6,8.3-17.2,33.1-4.3,43v0.4c-11,7.5-20.2,14.6-34.3,13.6c-2.8-0.2-5.6-0.9-8.2-2.2
		c-18.2-9.1-11.5-33.1-3-46.5c8.7-13.7,25.8-26.8,42.7-26.8c4.4,0,9,1.1,12.5,3.9c1.4,1.1,3.2,4.4,5.4,3.2c4.2-2.3-3.2-7.6-5-8.6
		c-6.4-3.5-14.9-3.4-21.8-2c-21.8,4.4-38.1,23.4-44.8,43.8c-3.8,11.6-2.7,27,8.2,34.7c11.1,7.8,27.7,5.2,39-0.9
		c2.9-1.6,5.7-3.4,8.2-5.5c1.1-0.9,2.7-2.9,4.3-3c1.3-0.1,2.8,1.2,3.9,1.9c2.3,1.3,4.8,2.3,7.4,2.9c8.3,2,16.1,0.2,23.8-2.8
		c-1.7,7.1-5.2,14.2-7.9,21.1c-6.9,17.8-14.8,35.3-20.9,53.4c-2,6-4.2,11.9-5.9,17.9c-0.5,1.7-2.1,5,0,6.2c2.8,1.7,3.9-2.9,4.4-4.7
		c2.1-6.5,4.1-13.1,6.6-19.5c9.4-23.8,17.3-48.2,27.3-71.8c1.4-3.2,3.4-6.2,4.8-9.4c2.4,5,2.1,10.6,6.6,14.7
		c7.8,6.9,20.9,5.5,30,2.5c22.7-7.5,39.4-29.4,41.7-53C694.5,336.2,691.2,320,675.8,319.9z M687.3,356.6
		c-6.1,21.3-24.1,41.3-47.3,42.9c-10.1,0.7-18.4-2.8-19.9-13.6c-0.3-1.9-0.8-4.4,0-6.2c1.2-2.7,3.5-4.8,5-7.4c1.6-2.8,2.3-6.2,3.8-9
		c5.7-9.9,15.6-19,24-26.6c5.9-5.3,13.2-11.8,21.5-12.7C691.8,322.3,690.4,345.9,687.3,356.6z"/>
</g>
</svg>
