<?xml version="1.0" encoding="utf-8"?>
<!-- Generator: Adobe Illustrator 23.1.0, SVG Export Plug-In . SVG Version: 6.00 Build 0)  -->
<svg version="1.1" id="Layer_1" xmlns="http://www.w3.org/2000/svg" xmlns:xlink="http://www.w3.org/1999/xlink" x="0px" y="0px"
	 viewBox="0 0 1871 652" style="enable-background:new 0 0 1871 652;" xml:space="preserve">
<style type="text/css">
	.st0{fill:#FFFFFF;}
</style>
<path class="st0" d="M654.5,467.1c0.1-3.4,4.7-6.6,6.5-9.2c3.5-5,5.5-10.6,6.5-16.5c4.3-25.5,1.5-53.3,1.5-79.2v-87.8
	c0-20.7,2.4-45.2-9.8-63.4c-19.7-29.4-78.7-31.2-100.7-3.3c-8.6,11-10.5,23.6-11.7,37c-1.8,19.5-0.5,39.7-0.5,59.4v103.6
	c0,19.8,0,41.4,14.6,56.8c15.2,16,41.1,18.5,62,18.5c1.9,12.9,9.8,26.7,14.5,38.9l10.6-3.3c-3.1-11.4-8.4-22.6-12.6-33.7
	c-1.3-3.6-2.6-10.4-6.1-12.4c-4.7-2.8-14.3-1-19.7-1.6c-21.1-2.5-42.9-9.6-49.7-32.1c-3.7-12.3-2.4-25.6-2.4-38.3V265.8
	c0-14.9-1.1-30.6,6.1-44.2c16.3-30.6,71.9-30.1,88.3,0c11.2,20.7,6.5,50,6.5,72.6v91.7c0,17.6,1.8,36.2-2,53.5
	c-1.1,5-3.3,10-6.7,13.9c-2.3,2.6-6.5,5.1-7.5,8.6c-1.2,4.2,1.3,8.7,2.8,12.5c3.4,9,6.7,18.1,10,27.1c1.1,2.8,2.2,9.6,5,11.2
	c2.5,1.4,7.2-1.1,9.6-1.9c-2.8-10.5-7.3-20.7-11-31C657.5,476,654.4,471,654.5,467.1z M1482.3,293.5c0-18,3-39.2-1.3-56.8
	c-4.7-19.1-23.4-26.6-41.6-24.2c-19.7,2.6-30.4,13.5-32.2,33.4c-1.4,14.5-0.1,29.7-0.1,44.2v88.4c0,19.7-4.2,44.9,3.9,63.4
	c7.2,16.4,27.2,19,43,17c3.6-0.5,7.2-1.5,10.6-2.8c20.3-8.6,17.8-32.3,17.8-50.4V293.5H1482.3z M1450.6,448.3
	c-17.5,2.7-30.6-6.5-32.2-24.2c-1.6-16.4-0.1-33.7-0.1-50.2v-99.7c0-18.3-4.4-46.1,19.8-50.5c18-3.2,31.8,5.8,33.5,24.1
	c1.6,16.6,0.1,34.1,0.1,50.8v99.7C1471.7,417.6,1475.7,444.4,1450.6,448.3z M1482.3,293.5c0-18,3-39.2-1.3-56.8
	c-4.7-19.1-23.4-26.6-41.6-24.2c-19.7,2.6-30.4,13.5-32.2,33.4c-1.4,14.5-0.1,29.7-0.1,44.2v88.4c0,19.7-4.2,44.9,3.9,63.4
	c7.2,16.4,27.2,19,43,17c3.6-0.5,7.2-1.5,10.6-2.8c20.3-8.6,17.8-32.3,17.8-50.4V293.5H1482.3z M1450.6,448.3
	c-17.5,2.7-30.6-6.5-32.2-24.2c-1.6-16.4-0.1-33.7-0.1-50.2v-99.7c0-18.3-4.4-46.1,19.8-50.5c18-3.2,31.8,5.8,33.5,24.1
	c1.6,16.6,0.1,34.1,0.1,50.8v99.7C1471.7,417.6,1475.7,444.4,1450.6,448.3z M1506,295.5c0-24,3.7-51.7-4.9-74.6
	c-9-23.8-36-35.2-60.5-32.1c-20.3,2.6-39.3,6.1-50,26.1c-13,24.4-7.5,59.1-7.5,85.8v97.7c0,19.3-1.7,40.3,7.3,58.1
	c12.4,24.6,42.5,29.4,67.3,26.2c22.1-2.8,39.8-16.8,45.3-38.7c4.6-18.3,2.9-38.1,2.9-56.8L1506,295.5L1506,295.5z M1494.5,432.1
	c-3.3,21.1-17,36.5-38.7,39.4c-19.2,2.6-43.6-0.5-54.2-18.9c-10.4-18-7.2-40.9-7.2-60.7V283.6c0-18.1-3-39.5,3.6-56.8
	c7.5-19.4,23.7-24.9,42.6-27.5c21.9-2.9,45.1,8.3,51.7,30.1c7.1,23.6,3.1,52.1,3.1,76.6v80.5
	C1495.5,401.5,1496.9,417.3,1494.5,432.1z M1481,236.7c-4.7-19.1-23.4-26.6-41.6-24.2c-19.7,2.6-30.4,13.5-32.2,33.4
	c-1.4,14.5-0.1,29.7-0.1,44.2v88.4c0,19.7-4.2,44.9,3.9,63.4c7.2,16.4,27.2,19,43,17c3.6-0.5,7.2-1.5,10.6-2.8
	c20.3-8.6,17.8-32.3,17.8-50.4V293.5C1482.3,275.5,1485.3,254.3,1481,236.7z M1450.6,448.3c-17.5,2.7-30.6-6.5-32.2-24.2
	c-1.6-16.4-0.1-33.7-0.1-50.2v-99.7c0-18.3-4.4-46.1,19.8-50.5c18-3.2,31.8,5.8,33.5,24.1c1.6,16.6,0.1,34.1,0.1,50.8v99.7
	C1471.7,417.6,1475.7,444.4,1450.6,448.3z M1482.3,293.5c0-18,3-39.2-1.3-56.8c-4.7-19.1-23.4-26.6-41.6-24.2
	c-19.7,2.6-30.4,13.5-32.2,33.4c-1.4,14.5-0.1,29.7-0.1,44.2v88.4c0,19.7-4.2,44.9,3.9,63.4c7.2,16.4,27.2,19,43,17
	c3.6-0.5,7.2-1.5,10.6-2.8c20.3-8.6,17.8-32.3,17.8-50.4V293.5H1482.3z M1450.6,448.3c-17.5,2.7-30.6-6.5-32.2-24.2
	c-1.6-16.4-0.1-33.7-0.1-50.2v-99.7c0-18.3-4.4-46.1,19.8-50.5c18-3.2,31.8,5.8,33.5,24.1c1.6,16.6,0.1,34.1,0.1,50.8v99.7
	C1471.7,417.6,1475.7,444.4,1450.6,448.3z M1482.3,293.5c0-18,3-39.2-1.3-56.8c-4.7-19.1-23.4-26.6-41.6-24.2
	c-19.7,2.6-30.4,13.5-32.2,33.4c-1.4,14.5-0.1,29.7-0.1,44.2v88.4c0,19.7-4.2,44.9,3.9,63.4c7.2,16.4,27.2,19,43,17
	c3.6-0.5,7.2-1.5,10.6-2.8c20.3-8.6,17.8-32.3,17.8-50.4V293.5H1482.3z M1450.6,448.3c-17.5,2.7-30.6-6.5-32.2-24.2
	c-1.6-16.4-0.1-33.7-0.1-50.2v-99.7c0-18.3-4.4-46.1,19.8-50.5c18-3.2,31.8,5.8,33.5,24.1c1.6,16.6,0.1,34.1,0.1,50.8v99.7
	C1471.7,417.6,1475.7,444.4,1450.6,448.3z M1649.3,292.2c0-23,3.8-50.1-4.9-71.9c-9.4-23.5-36-34.6-60.4-31.4
	c-20.1,2.6-39.3,6.3-49.6,26.1c-12.7,24.4-7.1,58.5-7.1,85.1v99c0,18.6-2,38.7,6.1,56.1c12.1,25.5,42.4,30.8,67.8,27.5
	c23.2-3,40.2-17.2,45.9-40.1c4.4-17.5,2.3-36.9,2.3-54.8v-95.6H1649.3z M1637.8,433.4c-3.4,20.8-17.7,35.2-38.7,38.1
	c-20.3,2.7-44.6-1.2-55.1-20.9c-9.4-17.8-6.3-40.7-6.3-60.1V282.3c0-18.9-2.7-40.3,4.9-58.1c7.8-18.1,24.3-22.5,42-24.8
	c23-3,45.5,9.5,51.9,32.1c2.8,10.1,2.2,20.7,2.2,31v126.1C1638.7,403.3,1640.1,418.8,1637.8,433.4z M1582.6,212.6
	c-22.7,3.1-30.8,17-32.3,38.7c-2.8,41.6-0.1,84.3-0.1,126.1c0,19.7-3.9,44.7,3.6,63.4c7.1,17.5,27.3,20.5,44,18.3
	c28.1-3.7,28.4-31,28.4-53.3v-111c0-18.4,2.8-39.4-1.5-57.4C1620.1,217.9,1601.3,210.1,1582.6,212.6z M1614.9,295.5v103
	c0,19.3,4.4,46.2-21.1,49.9c-14.7,2.1-29.2-4.3-31.5-20.2c-2.3-16.3-0.2-34.4-0.2-50.8v-103c0-18.3-4.9-46.7,19.8-50.6
	c15.9-2.5,30.1,4,32.7,20.9C1617.2,260.8,1614.9,279.1,1614.9,295.5z M226.2,203.1c-1.8-5.1-5.9-8.3-11.2-9
	c-14.8-2.2-31.3-0.2-46.2-0.2c-6.4,0-13.5-0.5-18.3,4.7c-4.8,5.3-4.2,15-4.2,21.7c-0.1,14.5-2,29-2,43.6c-1.9-6.4-1.2-14.5-1.3-21.1
	c-0.2-7-1.3-14.1-1.3-21.1c-0.1-6.9,0.5-16.6-3.7-22.4c-4.5-6.1-12.7-5.3-19.4-5.3c-15.4,0-31.6-1.5-46.9,0.1
	c-6.1,0.7-11,4.4-12.7,10.4c-2.4,8.3-0.5,19.2-0.5,27.7v245.5h10.6V230.1c0-6.1-1.9-16.3,1-21.8c2.5-4.7,8.4-4,12.9-4h29.7
	c4.2,0,9.9-0.9,13.9,0.9c6.5,3.1,5,16.8,5.3,22.8c1,21.4,2.6,43.4,5.1,64.7c0.7,6.4-1.8,25.3,7.5,25c8.4-0.3,6.1-18.9,6.8-25
	c2.6-21.9,2.7-44.1,5.3-66c0.7-5.8-1.1-18.3,5.1-21.4c3.8-1.9,9.1-1.1,13.2-1.1h28.4c4.1,0,10-0.8,12.4,3.4
	c3.2,5.5,1.5,15.5,1.5,21.7v248.2h9.9v-248C227,221.5,228.8,210.7,226.2,203.1z M378.9,411.6c-4.9-48.6-10.7-97.2-15.2-145.9
	c-1.5-16.5-3.6-33-5.2-49.5c-0.8-7.4-0.8-16-8.1-20.3c-5.3-3.2-12.5-2.1-18.5-2.1h-39.6c-6,0-12.3,0.9-15.6,6.6
	c-4,6.9-3.4,16.7-4.4,24.4c-2.4,19.1-4.5,38.3-6.5,57.4c-4.6,42.7-10,85.3-14.5,128c-2.3,21.4-7.1,43.8-7.1,65.3l10.6,1.3
	c8.4-66.7,15.8-133.7,23-200.6c1.8-17.2,3.8-34.3,5.9-51.5c0.7-5.2-0.3-15.2,4.2-18.7c3.4-2.6,9.1-1.7,13.1-1.7h32.3
	c4.5,0,10.6-0.7,13.1,4c3.2,6.1,2.1,16.3,3,23.1c2.2,18.7,4,37.4,5.9,56.1c4.2,42,9,84,13.2,126.1c2.1,20.9,6.3,42.4,6.5,63.4
	l10.6-1.3C385.3,454.5,381,432.8,378.9,411.6z M524.7,435.4c-1.8-27.3,2.5-55.2-0.9-82.5c-0.9-6.7-2.6-13.2-5.9-19.1
	c-1.5-2.6-5.5-5.7-5.8-8.6c-0.3-2.4,3-5.3,4.1-7.3c3.2-5.4,5.4-11.1,6.7-17.2c2.2-10.4,1.8-21.1,1.8-31.7c0-17.3,1.1-36.6-7.9-52.1
	c-16-27.7-54.2-23.1-81.2-23.1c-10.3,0-27.9-3.3-32.3,9.2c-3,8.6-1.4,19.5-1.4,28.4v246.2h11.2V236.1c0-8-1.8-18.7,0.3-26.4
	c2.3-8.3,19-5.3,25.5-5.3c22.5,0,55.2-3.2,68.4,19.8c8.4,14.7,6.8,32.6,6.8,48.8c0,10.2,0.4,20.7-3.1,30.4
	c-1.8,5.1-4.8,9.8-8.3,13.9c-2,2.3-5.9,4.6-6.2,7.9c-0.5,4.9,7.3,10,10.3,13.2c4.4,4.8,5.9,10.8,6.5,17.2c2.7,26-0.9,52.5,0.9,78.5
	c0.9,14,4.9,27.1,9.2,40.3l10.6-3.3C531.7,458.8,525.5,448.1,524.7,435.4z M815,407.7V193.8h-10.6v207.9c0,10.5,0.8,21.3-1.2,31.7
	c-6.7,35.7-50.8,50.5-80.7,31c-24-15.7-19.1-49.2-19.1-73.9V193.8h-10.6v196.7c0,26.5-5,60,17.2,79.7c9.6,8.6,21.9,11.5,34.3,12.7
	c29.6,3,58.9-7.4,67.7-38.4C815.5,432.6,815,420,815,407.7z M791.9,349.6V193.8h-11.2v196.7c0,19.3,6.1,51.8-19.1,57.3
	c-3.5,0.7-7,1-10.6,0.7c-30.4-2.1-23.8-38.8-23.8-60V193.8H716v196c0,21.1-5.9,56.1,18.5,66.3c22.8,9.6,52.3,1.1,56.5-25.4
	C795,404.7,791.9,376,791.9,349.6z M879.7,204.4h70v-10.6h-75.2c-8.6,0-22.1-2.5-28.8,4.2c-4.7,4.7-4.2,11.6-4.2,17.6v238.9
	c0,6.7-0.7,14.1,4.7,19c7,6.5,20.3,4.1,29,4.1h74.6V467h-69.3c-6.6,0-20.5,2.6-25.7-2.2c-4-3.7-2.7-10.8-2.7-15.6V220.9
	c0-4.2-1.1-10.9,2.2-14.1C859.3,201.8,873.2,204.4,879.7,204.4z M1008.4,204.4h70v-10.6h-75.2c-8.6,0-22.1-2.5-28.8,4.2
	c-5.1,5-4.2,12.4-4.2,18.9v238.3c0,6.1-0.7,13.1,4,17.8c6.9,7,20.1,4.7,29,4.7h75.2v-10.6h-69.3c-6.7,0-20.4,2.6-25.7-2.2
	c-4.1-3.7-2.7-10.7-2.7-15.6V220.9c0-4.3-1.1-10.9,2.2-14.3C987.9,201.8,1002,204.4,1008.4,204.4z M1358.7,203.7
	c-1.6-5.6-6-8.9-11.7-9.7c-14.8-2.1-31.2-0.2-46.2-0.2c-6.3,0-13.5-0.4-18,4.8c-4.6,5.2-3.3,12-3.9,18.3
	c-1.3,14.1-0.7,28.2-2.5,42.2c-1.1-3.8-0.4-7.9-0.8-11.9c-0.9-9.8-1.4-19.8-1.8-29.7c-0.3-6.2,0.6-13.3-3.6-18.5
	c-4.7-5.8-11.5-5.3-18.2-5.3c-15.6,0-33.5-2.5-48.8,0.3c-5.6,1-10.1,4.7-11.7,10.2c-2.5,8.6-0.9,19.5-0.9,28.4v244.9h11.2V230.1
	c0-5.9-2-16.4,0.8-21.8c2.4-4.8,8.6-4,13.1-4h29.7c4.2,0,9.9-0.9,13.9,1.1c6.2,3.2,4.2,15,4.9,20.7c2.8,21.3,4.4,43.9,5,65.3
	c0.2,6.3-1.3,26.4,7.3,26.4c8.4,0,7.1-20.2,7.3-26.4c0.7-21.3,3.8-42.7,5.2-64c0.4-6.1-1.2-19,5.3-22.2c3.8-1.8,9.1-0.9,13.2-0.9
	h28.4c4.4,0,10-0.6,12.4,4c2.8,5.3,0.8,15.8,0.8,21.8v247.5h10.6V232.1C1359.5,223.2,1361.1,212.4,1358.7,203.7z M1789.2,347.6
	V193.8h-10.6V312c-8.6-25.5-11.7-54.2-17.6-80.5c-2-9.3-2.6-21.2-6.9-29.7c-3-5.9-9-7.9-15.2-7.9c-17-0.1-36.8-2.8-53.5,0.3
	c-5.9,1.1-10.4,5-11.7,10.9c-2.2,9.8-0.9,21-0.9,31v241.6h11.2V221.6c0-5.5-1.8-13.9,4.6-16.4c3.9-1.6,9-0.8,13.2-0.8h27.7
	c4.6,0,10.2-1,13.7,2.7c5.9,6.3,6.1,22,8.2,30.3c6.5,26.7,12.5,53.7,18.3,80.5c2.3,10.6,4.8,21.1,7.2,31.7c0.8,3.5,1,9.2,4.9,10.8
	C1789.9,363.5,1789.2,352,1789.2,347.6z M1812.9,450.6V193.8h-11.2v258.7c0,4.6,1.2,14.7-5.9,14.7c-6.2,0-7.3-8.9-8.3-13.3
	c-3.3-15-6.7-30-10.1-44.9c-10.2-44.4-20.3-88.8-30.2-133.3c-2.9-13.2-5.8-26.4-8.9-39.6c-1.1-4.8-1.3-12.4-4.4-16.4
	c-2-2.6-5.8-2.1-8.8-2.1c-6.2,0-26.7-3.4-28.2,4.6c-1.6,8.4-0.1,18.5-0.1,27.1v228.4h11.2V228.2c4,0,13.7-1.8,16.8,1.1
	c3.2,2.9,3.3,11.4,4.2,15.4c3.3,14.1,6.5,28.2,9.6,42.2c10.1,45.6,20.5,91.1,31,136.6c2.6,11.4,5.1,22.9,7.8,34.3
	c1.5,6.5,2.6,13.1,7.9,17.7c8.3,7.3,21.6,3.1,25.8-6.5C1813.6,463.3,1812.9,456.8,1812.9,450.6z"/>
<path class="st0" d="M1335.6,220.3c-3-5.5-19.5-2.7-24.9-2.7c-2.6,0-5.7-0.2-7.5,2.1c-2.6,3.4-1.6,9.7-2.1,13.7
	c-1.7,13.1-2.2,26.5-3.1,39.6c-3.2,45.7-9,91.5-11.2,137.3c-0.7,15-2.4,29.9-3.4,44.9c-0.3,4.7-1.4,12.7-7.9,12.3
	c-6.8-0.3-5.6-9.2-6.2-13.7c-1.9-14.7-3.2-30.1-3.7-44.9c-0.7-20.9-3.8-41.8-5.2-62.7c-1.8-26.5-3.4-53.4-6.5-79.9
	c-1.3-11.1-2-22.5-2.8-33.7c-0.3-3.6,0.6-10.6-2-13.5c-2.8-3.3-12-1.6-15.9-1.6c-4.6,0-13.8-1.7-17.6,1.3c-2.7,2.2-1.6,8.1-1.6,11.2
	v247.5h10.6V228.2h15.8c0,17.4,2.7,34.8,3.9,52.1c3.3,47.7,9,95.4,11.3,143.2c0.2,4.4,0.8,8.8,1.2,13.2c1.4,14.8-2.3,45.3,20.6,42.8
	c7.3-0.8,12.9-6.2,15-13.1c4.3-13.7,3.2-31.2,4.2-45.5c4.5-64.2,13-128.4,15.8-192.7h13.2v249.5h10.6V232.8
	C1336.4,229.2,1337.5,223.5,1335.6,220.3z M1078.4,228.2v-10.6h-60.7c-5.4,0-17.8-2.3-22.2,1.3c-3.4,2.7-1.5,13.3-1.5,17.2v49.5
	c0,4.2-2,15.8,2.1,18.3c4.9,3,16.6,0.8,22.3,0.8h58.7v-10.6h-72.6v-66h73.9V228.2z M949.7,228.2v-10.6H889c-5.3,0-17.9-2.3-22.2,1.3
	c-3.4,2.8-1.6,13.2-1.6,17.2v49.5c0,4.2-2,15.8,2.1,18.3c4.9,3,16.6,0.8,22.3,0.8h58.7v-10.6h-72.6v-66h74V228.2z M500.9,418.2
	c-0.3-14.3,0-28.6,0-42.9c0-7.3,1-15.4-1.2-22.4c-3.1-10.1-12.3-13.7-21.9-15.4c-4.6-0.9-13.4-0.5-13.9-7c-0.3-3.6,3.8-6.1,6.7-7.3
	c8.4-3.8,17.1-7.1,23.2-14.5c11.7-14.1,7.1-38.3,7.1-55.4c0-7.7-0.5-16-5.1-22.4c-11.2-15.7-34.1-13.2-51-13.2c-5,0-17.1-2.3-18.9,4
	c-2,7.3-0.3,17.5-0.3,25.1v231h11.2V228.2c13.7,0,32.2-3,44.2,4.9c13.9,9.1,9.2,33.7,9.2,47.9c0,6.3-0.5,12.5-4.2,17.8
	c-8.7,12.5-37.2,14.3-35.2,33c2,19.5,33.2,11,38.8,29c1.8,5.8,0.7,13.1,0.7,19.1v37c0,23.2,4.5,43.1,10.6,65.3l10.6-3.3
	C507.1,458.2,501.4,439.8,500.9,418.2z M356.4,424.8c-3.8-38.3-8.1-76.6-11.9-114.8c-1.9-19.1-4-38.3-5.9-57.4
	c-1-9.7-0.3-21.8-3.3-31c-2.3-7.2-21.6-4-27.9-4c-2.6,0-6.2-0.5-8.4,1.1c-3.8,2.9-3.1,12.9-3.6,17.4c-1.6,15.6-3.4,31.3-5.5,46.9
	c-6.2,45.9-10.4,92-16,137.9c-2.3,18.8-2.4,39-6.8,57.4l11.2,1.3c2.1-26.5,6.3-52.8,9.1-79.2c4-37.8,8-75.8,13.1-113.5
	c1.8-13.8,3.3-27.7,4.8-41.6c0.4-3.8-0.2-13.3,2.6-16.1c2.8-2.9,13.5-1.1,17.4-1.1l5.1,52.1L343.8,409l7.1,70l10.6-0.7
	C361.6,460.5,358.2,442.5,356.4,424.8z M203.1,219.8c-1.5-2.4-4.8-2.2-7.1-2.2c-5.3,0-21.8-2.6-25.1,2.1c-2.5,3.6-1.8,11.4-2,15.7
	c-0.5,11.4-1.7,23-2.7,34.3c-4.4,46.5-8,93.3-11.2,139.9c-1.1,15-2.4,30-3.8,44.9c-0.5,4.9-0.3,12.9-7.4,13.1
	c-6.4,0.1-6.3-8.6-6.6-13.1c-0.7-14.5-2-29.1-3.4-43.6c-4.5-47-7.2-94.2-11.7-141.2c-1.1-11.5-2.5-23.4-2.8-35
	c-0.1-4,0.5-12.5-2.4-15.6c-2.9-3.2-11.5-1.6-15.4-1.6c-4.5,0-13.9-1.8-17.6,1.1c-3,2.4-2.2,8-2.2,11.4v247.5h11.2V228.2h15.2
	c0.5,24.2,4.2,48.4,5.9,72.6c2.8,40,5.6,80.2,9.4,120.1c1.5,15.2,0.7,31.9,4.3,46.9c1.7,6.7,6.5,11,13.4,11.7
	c9,1,16.8-4.4,19.3-13.1c4-13.7,2.2-29.4,4.1-43.6c4.6-34.5,5.1-69.6,8.4-104.3c2.8-29.8,7.1-60.5,7.1-90.4h13.2v249.5h10.6V231.5
	C203.9,228.2,204.9,222.7,203.1,219.8z M1624.7,237.4c-4.6-19.5-23.4-27.3-42.1-24.8c-22.7,3.1-30.8,17-32.3,38.7
	c-2.8,41.6-0.1,84.3-0.1,126.1c0,19.7-3.9,44.7,3.6,63.4c7.1,17.5,27.3,20.5,44,18.3c28.1-3.7,28.4-31,28.4-53.3v-111
	C1626.2,276.4,1628.9,255.4,1624.7,237.4z M1614.9,295.5v103c0,19.3,4.4,46.2-21.1,49.9c-14.7,2.1-29.2-4.3-31.5-20.2
	c-2.3-16.3-0.2-34.4-0.2-50.8v-103c0-18.3-4.9-46.7,19.8-50.6c15.9-2.5,30.1,4,32.7,20.9C1617.2,260.8,1614.9,279.1,1614.9,295.5z
	 M1482.3,293.5c0-18,3-39.2-1.3-56.8c-4.7-19.1-23.4-26.6-41.6-24.2c-19.7,2.6-30.4,13.5-32.2,33.4c-1.4,14.5-0.1,29.7-0.1,44.2
	v88.4c0,19.7-4.2,44.9,3.9,63.4c7.2,16.4,27.2,19,43,17c3.6-0.5,7.2-1.5,10.6-2.8c20.3-8.6,17.8-32.3,17.8-50.4V293.5H1482.3z
	 M1450.6,448.3c-17.5,2.7-30.6-6.5-32.2-24.2c-1.6-16.4-0.1-33.7-0.1-50.2v-99.7c0-18.3-4.4-46.1,19.8-50.5
	c18-3.2,31.8,5.8,33.5,24.1c1.6,16.6,0.1,34.1,0.1,50.8v99.7C1471.7,417.6,1475.7,444.4,1450.6,448.3z M645.4,292.8
	c0-17.8,3-38.7-1.3-56.1c-4.6-19-23.6-26.5-41.6-24.2c-20.1,2.6-30.3,13.9-32.2,34.1c-1.3,13.2-0.1,27-0.1,40.3v118.8
	c0,8.6-0.7,17.4,1.6,25.7c5.8,20.6,27.2,30.4,47.3,27.5c28.3-4.1,26.4-34.4,26.4-55.9V292.8H645.4z M615,448.4
	c-16.7,2.4-31.9-9.6-33.5-26.2c-1.6-16.2-0.1-33.2-0.1-49.5v-99c0-18.5-4.1-46,20.5-49.9c17-2.7,30.6,5.1,32.8,22.8
	c2,16.2,0.2,33.8,0.2,50.2v100.3C634.8,414.8,639.3,444.9,615,448.4z"/>
<path class="st0" d="M949.7,453.9v-11.2h-73.9V327.8h72.6v-10.6h-58.7c-5.8,0-17.5-2.2-22.4,1.3c-2.6,1.8-2,5.2-2,8v21.1v78.5v19.1
	c0,2.4-0.5,5.7,1.6,7.5c4.1,3.5,17,1.1,22.2,1.1h60.6V453.9z M1078.4,453.9v-11.2h-73.9V327.8h72.6v-10.6h-59.4
	c-5.6,0-17.6-2.2-22.2,1.4c-2.2,1.7-1.6,5.4-1.6,7.9v21.1v78.5v19.1c0,2.4-0.5,5.7,1.6,7.5c4.1,3.5,17,1.1,22.2,1.1h60.7V453.9z"/>
</svg>
