<?xml version="1.0" encoding="utf-8"?>
<!-- Generator: Adobe Illustrator 23.1.0, SVG Export Plug-In . SVG Version: 6.00 Build 0)  -->
<svg version="1.1" id="Layer_1" xmlns="http://www.w3.org/2000/svg" xmlns:xlink="http://www.w3.org/1999/xlink" x="0px" y="0px"
	 viewBox="0 0 1871 652" style="enable-background:new 0 0 1871 652;" xml:space="preserve">
<style type="text/css">
	.st0{fill:#FFFFFF;}
</style>
<path class="st0" d="M1631.5,261.7c-2.9-3-6.4-0.9-9,1.1c-5.8,4.7-11.2,10.4-16.4,15.8c-15.6,16.3-29.3,34.6-42.5,53
	c-5.5,7.7-13.1,15.4-16.8,24.2h-0.8c1.2-28.6,0.2-57.2,0-85.8c0-5.9,1.7-25.4-3.3-28.9c-8.5-6-19.5,14.3-23.2,19.6
	c-12.7,18.4-22.5,38.7-34.2,57.7c-5.3,8.7-15.1,17.7-18.1,27.3h-0.8c0-26.5,7-51,10.5-77.2c0.6-4.9,2.7-24.3-7.3-20.5
	c-6.6,2.6-2.5,12.4-5.5,17.4c-8.4,13.8-22.4,29.6-35.9,38.5c-5.8,3.8-12.2,7.4-19.5,6c-27.2-5.3-30.3-39.9-51.5-52.3v-0.8
	c5.8-4.4,10.1-11.2,14-17.2c7.4-11.1,16.4-22.9,17.8-36.7c2.7-25.6-25.5-15.7-37.3-6c-7.2,5.8-11.9,13.9-17.9,20.8l4.1-34.3l10-67.9
	l10.4-58.5l6.7-35.9c9.8-0.8,0.9-12.9-6.2-11.4c-4.5,0.9-6.6,9.9-7.3,13.7c-2.7,14.8-4.9,29.6-7.8,44.5
	c-7.7,40.2-14.4,81-19.2,121.7c-2.5,20.7-0.9,46.7-10.1,65.5c-4,8-19.3,13.6-26.7,18.3c-19.1,11.9-37.1,25.7-54.6,39.9
	c-13.5,11-26.1,22.9-39,34.5c-3,2.7-9.8,11.7-14,11.8c-4.1,0.1-10.3-7.4-13.3-9.9c-11.9-9.8-23.9-19.3-35.9-29.1
	c-40.3-32.6-95-81.7-66.5-138.8c6.3-12.7,15.5-23.9,25.2-34.3c35.1-37.7,97.7-65.7,149.7-60.7c11.6,1.1,24.7,3,35.1,8.8
	c5.5,3.1,10.5,12.4,17.2,11c5.3-1.1,4-6.2,1.8-9.8c-4.2-6.9-10.2-10.6-17.4-13.8c-17.9-8-38.7-7.3-57.7-6.6
	c-51.3,2.3-103.4,27-139.6,63.2c-18.8,18.8-34.6,44.5-35.9,71.8c-2.4,55.5,46.7,91.5,85,123.3c9.5,7.9,19.3,15.4,28.9,23.2
	c4.9,4,9.8,9.2,15.6,11.9c-22.5,22.5-44.2,45.2-61.9,71.8c-12,18-24.3,36.2-33,56.2c-9.2,21.1-20.1,52.5-2.5,72.5
	c16.5,18.9,46.5,18.5,69.3,15.8c55.6-6.6,131.7-46.7,122.1-113.3c-3.1-21.8-16.9-40.7-30-57.7c-12.4-16.1-28.8-35.2-46.1-46v-0.8
	c11.2-7.9,20.8-18.8,31.2-27.8c27.4-24,57.4-50.2,89.7-67.3c0,6,2.2,11.5,2.3,17.2c0.3,26.3-5.8,54.2-9,80.3
	c-5.1,41.3-8.2,83.3-11.1,124.8c-1.3,18.5-2.4,36.8-2.4,55.4c0,7,4.4,17.2,12.3,9.2c4.3-4.4,0.2-10.8,0.2-16.2
	c0-14.3,1.1-28.7,2.5-42.9c5.2-54.6,8.5-109.2,15.3-163.8c1.6-13.5,2.2-27.1,4.3-40.6c0.6-4.1-0.7-10.5,2.4-13.6
	c4.9-4.9,12.2-8.3,17.7-12.9c1.8-1.5,4.4-4.5,7-3.8c6.3,1.8,11.5,15,14.7,20.1c8,13,18.6,26.4,33.7,31.4
	c27.1,8.9,45.4-15.2,61.6-32.2c-1.8,9.4-3.9,18.7-5.8,28.1c-2.2,11-4.1,24.8-1.1,35.9c2.5,9.2,13.3,7.5,19.3,2.8
	c2.5-2,4.8-4.3,6.8-6.7c21.4-25,31-59.1,52.5-84.2c0,25.5,0.8,50.9,0.8,76.4c0,10.1,1.8,25.5-1.3,35.1c-2.7,8.1-9.6,16.1-14,23.4
	c-9.2,15.3-17.9,30.8-25.8,46.8c-16,32.2-24.6,68.7-31.5,103.7c-4.6,23.1-8.5,45.9-8.4,69.4c0,11,3.5,24,16.4,25.6
	c32,4,44.1-42,49.5-65.4c10.7-46.6,15.9-94.6,22.2-142c1.5-11.4,2.8-22.9,3.3-34.3c0.3-7.7-0.9-16.7,1.3-24.2
	c2.7-9,10.9-17.5,16.3-25c16.7-23.2,34.2-45.9,53.3-67.1C1619.6,280.2,1636.6,267.1,1631.5,261.7z M1227.4,423.7
	c13.9,16.9,28.3,42.8,26.8,65.5c-2.8,39.5-45.4,66.4-79.4,77.8c-19,6.3-40.9,11-60.8,9c-9.8-1-20.2-3.2-27.1-11.1
	c-18.3-21.2,0.1-51.2,9.2-71.8c7.6-17.1,17.4-33.1,28.3-48.4c16.9-23.7,36-45.7,56.6-66.3C1198.1,390.3,1214.3,407.7,1227.4,423.7z
	 M1348,250.3c-4.4,1.9-12.5-1.1-17.9,0.2c3.4-16.1,17.8-32.8,28.9-44.5c4.9-5.1,10.5-10.1,17.9-10.9c2.9,15.8-10.2,31.3-19.1,42.9
	C1354.9,241.7,1352.4,248.5,1348,250.3z M1531.3,414.3c-0.9,12-1.8,23.9-3,35.9c-4.7,43.8-9.9,89.5-22.1,131.8
	c-5.9,20.4-12.3,44.5-34.2,51.5c-13.4-16.8-5.3-49.1-1.6-68.6c11.6-60.2,27.3-117.5,61.6-169.3
	C1533.4,401.3,1531.7,408.5,1531.3,414.3z M929.9,257.8c-4.4,0.3-7.2,5.1-9.4,8.3c-5.6,8.4-10.9,17-15.9,25.7
	c-14,24.5-27.2,49.7-38.4,75.7c-4.9,11.5-11.2,30.5-22.9,36.7c-1.7-4.6-4.9-8.3-5.9-13.3c-3.1-15.7,0.1-34,1.2-49.9
	c3.4-49.6,15.9-98.2,22.8-147.4c2.5-17.9,5.5-35.8,6.9-53.8c0.3-4.1,3.1-15.2-0.9-17.9c-2.4-1.6-7.3-1.2-8.5,1.6
	c-3,6.5-2.8,16.9-3.7,24l-115.4,9.4c0-13.2,0.9-26.7-0.1-39.8c-0.3-4.3-2-11.3-7.7-10.5c-5.9,0.9-4.7,7.7-4.7,12.1
	c0,13.3-1.5,26.5-1.6,39.8c-36.3,0.8-73.2,7.6-109.2,12.2c-6.9,0.9-33.4,2.6-29.9,14.2c0.9,3.2,4.1,5,7.3,4.5
	c3.5-0.5,4.8-3.9,7.9-5.3c5.5-2.4,12.1-2.8,17.9-3.6c34.9-4.6,71.4-4.8,106.1-11.2l-5.3,63.2l-2.8,24.8l-19.3,19.3l-46.8,37.1
	c-1.2-14.3-9.4-27.8-10-42c-0.2-2.8,2.6-4.4,2.5-7.1c0-2.7-2.8-4.1-3.7-6.4c-1.1-2.8-0.2-6.5,0.9-9.2c0.9-2.3,2-4.4,3.6-6.2
	c9.7-11.6,17.9-4.1,29.4-1.9c3,0.5,8.6-1,7.3-5.1c-1.2-3.9-6.9-6-10.4-7.3c-12-4.7-26.6-3.2-35.8,6.6c-5.2,5.5-7.5,13.6-7.9,21.1
	c-0.2,4.1,1.2,9.7-1.2,13.3c-5.3,8.1-14.1,15.1-20.4,22.6c-12.1,14.2-23.3,29.3-34.1,44.5c-4.3,6.1-10.1,11.8-12.9,18.7h-0.8
	c0-28.4-0.8-56.7-0.8-85c0-6.2,2.2-25-3.3-28.9c-8.1-5.8-18.9,13.7-22.4,18.8c-12.9,18.7-22.7,39.2-34.7,58.5
	c-5.1,8.2-15.1,17.4-17.6,26.5h-0.8c-2.1-26.8,8.3-50.8,10.1-77.2c0.3-5,1.2-12.4-0.9-17.1c-2.2-5-8-3.1-10.1,0.7
	c-17.9-3.3-33.6,18.6-38.2,34.3c-2.3-8,0.3-17.3,2.6-25c0.9-3,0.6-6.6-2.7-7.9c-6.3-2.7-9.2,3.6-12.2,7.9
	c-7.3,10.5-14.1,21.5-20.3,32.8C380,343.2,355.9,394,329.1,443.5c-8.1,15-17.1,32.1-31.7,41.6c-5.7,3.7-13.4,7.8-20.3,4.8
	c-8.3-3.6-13.5-12.9-17.3-20.7c-11.6-23.6-7.6-47.6-7.6-72.5c0-31.7,4.2-63.8,9-95.2c7.7-49.9,19-100.5,39.9-146.6
	c11.8-26.1,31.7-68.4,67.3-62c36.7,6.6,39.5,47.3,50.3,75.3c1.6,4,8.7,5.9,10.8,1.3c1.2-2.7-0.2-6.4-0.8-9
	c-1.7-7.6-3.8-15.2-6.3-22.6c-10.8-32.6-32.8-64.4-72-55.2c-16.5,3.9-29.2,15-39.5,27.9c-19.1,23.9-30.7,55.1-39.5,84.2
	c-14.7,49-23.6,99.7-28.5,150.5c-2,21.3-1.4,42.7-3.4,64c-2.7,30,0.3,73.8,30.7,90.1c24.2,12.9,46.6-14.4,59-31.7
	c26.4-37.1,44.9-81,65.3-121.7c6.6-13.1,13.3-26.1,20.4-39c3.6-6.6,8.6-13.1,10.7-20.3h0.8c-1.2,6.2-1.4,13.2-1.6,19.5
	c-0.2,7-2.7,16.7-1.2,23.4c1,4.5,8,5.2,10.8,2c3.3-3.7,3.4-12.2,5-16.8c4.9-13.9,12.1-27.6,20.3-39.8c5.1-7.6,8.7-13.3,18.2-13.3
	c-1,23.5-11.6,46-11.7,69.4c0,6.6-1.6,18,3.4,23.2c8.7,9,22.2-5.9,26.8-12.2c9.9-13.6,17.4-29.3,26.1-43.7
	c7.3-12.1,16.5-23.9,22.5-36.7h0.8c0,25.2,0.8,50.5,0.8,75.7c0,11.1,1.9,25.2-1.2,35.9c-2.1,7.3-8.6,14.7-12.6,21.1
	c-8,12.9-15.9,26.2-22.8,39.8c-17.9,35.6-29.4,75.4-36.3,114.7c-4,23-10.9,47.4-8.2,71c1.6,14,9.5,25.9,25.5,22.2
	c12.6-2.9,21.3-14.4,26.8-25.3c11.9-23.7,16.6-51.2,20.9-77.2c6.4-38.5,11.5-77.5,16.2-116.2c1.4-11.7,1.2-23.4,2.3-35.1
	c0.4-3.8-0.5-8,0.7-11.7c3.8-11.7,14.9-23.1,22.2-32.8c16.2-21.6,32.2-44,51.4-63.2c2.6,9.6,4.4,19.2,6.6,28.9
	c0.9,3.5,3.4,8,2.7,11.7c-0.6,3.4-4.4,6.1-6.5,8.6c-5.5,6.7-11.6,16-7.8,25c3.2,7.5,17.8,16.1,25,9.1c5.8-5.5,4.6-18.2,4-25.5
	c-0.3-3.4-2.3-8.3-0.2-11.4c4.3-6.1,12.4-10.8,18.3-15.3c14.5-11.4,29.8-21.9,42.9-34.9c0,34-5.4,68.3-7.7,102.2
	c-2.1,30.7-2,62.4-6,92.8c-1.8,13.8-2.7,30.6-0.9,44.5c0.7,5.9,6,11.2,12.2,7.4c4.4-2.7,0.2-19.3,0.2-24.6c0.2-24,2.6-48.6,4.8-72.5
	c6.1-63.7,10.2-128,14.6-191.9c1.1-15.8,2.5-31.7,3.2-47.6c0.2-4.2-0.7-14.6,2.7-17.5c2.2-1.9,5.6-1.1,8.3-1.4
	c7.8-0.8,15.6-1.8,23.4-2.3c27.5-1.6,55.1-7.7,82.7-7.8c-1.6,20.8-5.8,41.8-9,62.4c-1.9,12.2-2.7,25.7-6.6,37.4
	c-3,9.3-9.7,18.2-13.6,27.3c-4.4,10.4-9.5,19.7-16.1,28.9c-1.6,2.2-5.7,8.3-9,6.4c-3.7-2.2-4.4-10.4-4.9-14.2
	c-2.1-14.7,0-29,1.4-43.7c0.4-4.3,4.4-16.9-1.6-18.5c-7.6-2-10.4,6.1-13,11.5c-7.9,15.8-15.5,33.2-25.7,47.6
	c-1.3,1.9-2.9,3.7-4.4,5.5c-0.9,1-1.8,2-2.8,2.8c-11.8,9.4-3.3-14.2-1.2-18.3c2.3-4.8,5.2-9.5,8.1-14c4.6-7.3,10.2-13.3,15.1-20.3
	h0.8c5.1,3.9,10.4-2.2,5.3-6.7c-6.4-5.7-16.5,2.1-20.8,6.7c-11,11.8-25.5,34.8-25,51.5c0.5,16.5,17.9,17.4,27.2,7.8
	c3.9-4.1,7.4-8.7,10.7-13.3c4.8-6.7,10.5-14.7,12.8-22.6h0.8c0,14.3-2,33.4,7.4,45.2c14.3,17.9,36.2-13.3,40.2-25.7h0.8
	c-0.3,16.6-3.5,33.2-3.9,49.9c-0.2,9.7-1.6,19.1-1.6,28.9c0,15.1,8.1,48,29.6,32.1c2.7-2,5.1-4.5,7.1-7.2
	c9.3-12.2,14.8-28.2,21.2-42.1c9.8-21.5,20.9-42.4,32.3-63.2c5.9-10.8,13.2-21.1,19-32C935.7,263.9,935.9,257.4,929.9,257.8z
	 M542.4,415.9c-1.4,11.6-1.7,23.4-3.1,35.1c-5.6,45.7-9.5,94.1-24.1,138.1c-6.1,18.3-11.8,38.8-32.2,44.5
	c-12.7-18.1-4.9-48.2-1.4-68.6c6.2-36,14-72.3,28.2-106.1c9.3-22.2,21.6-42.3,33.2-63.2C545.2,400.8,543.1,410.3,542.4,415.9z"/>
</svg>
