<?xml version="1.0" encoding="utf-8"?>
<!-- Generator: Adobe Illustrator 23.1.0, SVG Export Plug-In . SVG Version: 6.00 Build 0)  -->
<svg version="1.1" id="Layer_1" xmlns="http://www.w3.org/2000/svg" xmlns:xlink="http://www.w3.org/1999/xlink" x="0px" y="0px"
	 viewBox="0 0 1871 652" style="enable-background:new 0 0 1871 652;" xml:space="preserve">
<style type="text/css">
	.st0{fill:#FFFFFF;}
</style>
<path class="st0" d="M561.3,539.7c-18-20.9-39.2,15.3-51.8,24.5c-25.3,18.8-57,19.9-83.7,3.2c-23.7-14.9-40.2-39.2-53.8-63.1
	c-16.2-28.4-29.8-58.3-42.5-88.4c-10-23.4-20-48.9-34.8-69.8c33.6-13,65.4-32.1,90.1-58.6c49.2-52.8,73.8-141.9,25.5-203.7
	c-52.5-67-162.8-68.7-236.5-41.9C117,62.8,62,102.2,42.4,162c-12.9,39.4-4.3,88.7,40.3,102.4c10.6,3.3,25.6,7,36.3,2.9
	c11.8-4.6,14.8-20.8,6.3-29.9c-6-6.4-13.4-4.9-21.2-6c-10.2-1.5-19.6-5.6-25.5-14.5c-7.7-11.7-5.7-27.4-1.5-40
	c9.3-28.2,28.7-51.9,52.1-69.8C177.1,70.3,245.8,56.4,305,66.2c34.9,5.8,69.5,23.5,85.3,56.8c29.2,61.6-14.5,132.5-65.8,166.5
	c-12.6,8.4-33.7,23.3-49.3,23.8c-5.7,0.2-11.3-8.2-14.9-11.7c-8.4-8.3-19.3-16.4-30.7-19.5c3.4-14.8,10-29.4,15.2-43.7
	c12.5-35,25.5-69.8,37.2-105.1c4.6-13.6,16.4-39.2-6.8-43.4c-2.7-0.5-5.7-0.5-8.4,0.2c-15.6,3.7-20.6,33.7-25.1,47
	c-10.8,31.7-22.2,63.4-34,94.9c-4.8,12.8-7.6,29.1-14.8,40.7c-3.6,5.9-20.1,4.7-26.5,6.1c-18.9,4.2-41,12.8-48.8,32.2
	c-12.2,29.9,16.1,49.6,42.3,53c-8.6,37.5-26.7,74.4-39.3,110.7c-4.3,12.4-14.1,31.8,1.2,40.8c25.5,15,33.9-27.5,39.3-43.6
	c8.6-25.6,18.4-50.8,27.2-76.3c2.5-7.2,5.3-24.5,11.7-28.8c7.2-4.8,23.7-2.8,32.3-4.1c6.3-0.9,19.1-6.3,25-3.9
	c5.4,2.1,8.9,12.6,11.5,17.4c9.2,16.9,17.5,34.4,25.2,52.1c23.7,54.3,47.7,118,93.6,157.8c37.3,32.4,87.2,39.5,131.1,16.7
	c15.9-8.2,30-21.1,40.9-35.1C565.7,559.9,568.2,547.9,561.3,539.7z M153.3,324.9c4.4-8,16.4-8.6,24.2-11.2
	C178.9,331.5,164.4,327.5,153.3,324.9z M212.8,327.7l3.7-11.2l14.9,9.3L212.8,327.7z M1818.9,365.2c-13.2-0.4-22.3,15.3-30,23.9
	c-13,14.8-28.5,28.4-44.4,40.1c-7.6,5.7-16.2,11.7-26,12c1.5-33.9,42.2-77.7,12.6-108.5c-4.2-4.4-9.2-7.8-14.5-10.8
	c-6.3-3.6-13.3-7.3-20.5-9c2.2-11,4.3-22.2,2.2-33.5c-1.4-7.8-4.4-15.9-9.2-22.3c-3.9-5.2-8.8-9.6-14.4-12.9
	c-44.7-26.5-80.7,36.3-50,70.6c5.9,6.5,13.2,12.4,21.2,15.8c-15.8,33.5-47.6,63.6-75.3,87.3c-10.7,9.1-24.3,22.1-39.1,22.4
	c3-14.4,11-27,15.2-40.9c5.9-19.4-9.5-36.4-29.1-26.7c-25.6,12.6-47.9,34.5-71.6,50.3c-10.3,6.9-22.6,16.3-35.3,17.4
	c0.6-28.3,27.3-61.2,46.5-80c6.5-6.4,17.2-17,27-17.4c10-0.5,11.6,8.9,15.8,15.5c3.6,5.7,10.1,8.6,16.7,8.4
	c15.9-0.6,20-15.9,15.4-28.8c-13.5-37.9-56.5-39.1-85.2-18.9c-17.9,12.6-28.9,29.7-43.2,45.6c-19.3,21.4-42.2,41.9-66.5,57.4
	c-16.1,10.2-37.7,22.9-57.7,17.4c-9.3-2.6-19-21.2-9.8-29c6.2-5.3,23.1-4.5,31.2-7.3c28.9-10.5,63.9-40.5,51.6-75.3
	c-10.2-29-44.6-25.6-65.6-11.4c-15.9,10.9-28.5,26.5-38.1,43.1c-4.2,7.2-6.7,15.8-11.6,22.3c-17,22.3-40.2,39.8-60,59.5
	c3.6-11.3,7.1-22.9,10.1-34.4c2.8-10.5,7.9-23.5,6.3-34.4c-2.4-16.6-19-21.4-32.3-13.5c-28,16.6-51.7,41.4-78.1,60.4
	c-11.3,8.1-23.4,18.7-37.2,21.9c1.3-29.2,26.9-60.4,46.5-80c6.8-6.8,15.9-17.2,26-18.6c8.1-1.1,14.1,7.4,19.5,11.9
	c7,5.8,19.3,5.5,25.8-1c10-10,4.1-23.2-4.4-31.2c-13.9-13.2-34-20.8-53-15.2c-30.2,8.9-48.1,35.1-67.2,57.9
	c-13.5,16.2-28.6,31.9-44.4,45.8c-12.3,10.8-29,29.1-46.5,29.5c1.6-17.8,15.5-32.4,16.6-50.2c1-19-19.6-24-33.3-16.2
	c-24.5,14.1-46.2,33.7-69.8,49.4c-10,6.7-22.9,16.5-35.3,17c3.7-29,25.5-58,45.6-78.1c7.2-7.2,16.5-17.1,27-19
	c11-2,12.8,8.6,17.4,15.3c5.3,7.9,15.9,10.4,24.5,6.5c2.7-1.2,4.9-3.2,6.7-5.6c6.3-9.3,1.3-23.3-4.2-31.6
	c-13-19.6-37.9-27.5-60.1-19.5C855,318.8,840,342.9,820.6,364c-25.7,28-52.3,57.4-86,75.5c0-31.4,11.6-62.9,22.3-92.1
	c15.3-41.7,31.6-82.8,48.8-123.7c7.7-18.3,15.6-36.5,23.3-54.9c3.6-8.7,9.7-20,8.7-29.8c-2-19.7-27.4-21.4-36.5-6.5
	c-20.1,32.8-32.3,71.4-49,106c-8.6,17.7-17,35.5-26,53c-4.5,8.7-11,17.6-13.7,27c-5-5.8-10-12-16.7-15.9
	c-18.5-10.7-39.8-3.5-55.8,8.4c-23.3,17.4-36.6,43.2-56.7,63.3c-15.4,15.4-28.9,24.6-50.2,15.8c9-24.2,2.3-61.4-19.5-76.4
	c-13.9-9.7-31.2-10.7-47.4-7.4c-34.2,7-60.1,39.5-71.5,70.9c-9.5,25.9-13.6,60.4,5.9,82.8c34.7,40,103.1,8.4,118.8-34.4
	c17.9,8.4,34.4,7.1,53,2.8c0,7.7-0.7,15.7,1.7,23.3c6.7,22.3,29.9,28.5,50.4,23.5c24.3-5.8,43.8-25.8,59.4-44
	c6-6.9,13.6-14.7,16.8-23.3h0.9c-1.2,9.2-3.5,19.6-2.5,28.8c0.7,7.3,1.2,14.4,4,21.4c16.9,41.4,66.7,5.4,87.8-10.2
	c1.5,5.6,2.8,11.1,6.1,15.8c24.6,34.3,72.9,1.5,97.1-15.7c5.9-4.1,11.6-8.5,17.7-12.2c0,6.6-0.3,13.2,2,19.5
	c11.6,33.5,52.8,23.9,75.2,9.6c7.4-4.7,14.3-11.6,22.3-15.2c1.9,21,24.8,31.7,43.7,27.9c34.1-6.9,64.1-36.5,90.2-57.7
	c-4,17.2-11.9,33.9-18.4,50.2c-3.1,7.5-5.8,17.8-11.5,23.6c-23,23.3-50.1,42.4-73.3,65.7c-10,10-23.9,23.9-25,39.1
	c-0.3,3.4,0.3,6.9,1.3,10.2c9.2,30.8,51.1,14.4,67.5,0.8c20-16.5,34.9-39.6,47.2-62.2c5.3-9.8,9.2-21.8,15.8-30.7
	c8.1-11.1,22.5-20,32.9-29c17.5-15.1,33.9-32.5,52.1-46.4c12.3,51.7,80.2,38.9,113.5,20.1c9.3-5.3,17.9-11.6,27-17.3
	c1.1,5.9,2.1,11.4,4.9,16.7c21.3,39.7,75.5,3.7,99.2-13.1c6-4.3,12-8.4,17.7-12.9c0,8.4-0.5,16.5,3.1,24.2
	c12.2,26.2,45.9,21.2,66.7,10c35.5-19.3,65.7-52.4,89.7-84.4c8.9-11.9,19.8-24.4,25.7-38.1c6.5,3.1,20.1,5.8,23.1,13
	c2.9,7-6.1,22.2-8.7,28.8c-9.8,24.6-25.7,68.2,4.3,85.3c34.5,19.6,71.9-15.6,95.8-36.6c7.1-6.2,13.8-12.7,19.9-19.8
	c6.6-7.6,14.9-14.5,20.1-23.3C1842.2,381.1,1833.6,365.5,1818.9,365.2z M1315.8,342.6c1.9,11.3-17.9,22.6-27,24.2
	C1295.5,356,1305.1,348.8,1315.8,342.6z M498,376c-3.4,24.2-21.6,61-49,64c-24.7,2.7-28.2-18.3-23.8-37.9
	c5.7-25.4,25.8-56.4,53.6-60.1C498.8,339.4,500.1,361.9,498,376z M687.6,361.2c-10.3,21.9-28.7,44.5-46,61.4
	c-7.3,7.1-17.4,15.6-27.9,16.8c-5.7,0.7-5.7-4.2-5-8.5c1.3-8.4,3.5-16.3,6.7-24.2c8.3-20.7,20.7-40.9,36.5-56.7
	c5.7-5.7,12.4-13.2,20.5-15.2C682,332.4,691,353.7,687.6,361.2z M1652.8,276.3c8.9-3.1,8.9,16.4,8.9,20.7
	C1657.9,294.8,1641.7,280.2,1652.8,276.3z"/>
</svg>
