<?xml version="1.0" encoding="utf-8"?>
<!-- Generator: Adobe Illustrator 23.1.0, SVG Export Plug-In . SVG Version: 6.00 Build 0)  -->
<svg version="1.1" id="Layer_1" xmlns="http://www.w3.org/2000/svg" xmlns:xlink="http://www.w3.org/1999/xlink" x="0px" y="0px"
	 viewBox="0 0 1871 652" style="enable-background:new 0 0 1871 652;" xml:space="preserve">
<style type="text/css">
	.st0{fill:#FFFFFF;}
</style>
<path class="st0" d="M222.5,249c-23.2-37.2-76.1-41.5-111.1-19c-22.4,14.4-37,38.6-40.3,65c-3.8,30,5.3,61.7,32.1,78.6
	c6.4,4,13.8,7,21.2,8.5c2.3,0.5,8.7,0.3,10.1,2.3c1.1,1.6,0.4,4.5,0.1,6.3c-0.5,4.1-0.7,8.3-1,12.4c-1.4,19.2-4.6,38.3-12,56.1
	c-9.3-5.4-20.7-10.7-31.7-9c-10.9,1.7-15.8,13.7-8.5,22.3c7.6,8.9,22.5,8.9,32.4,4.5c3.2-1.4,7.4-6.1,10.6-6.4
	c1.9-0.1,4.1,1.1,6,1.5c4.2,0.9,8.6,1.7,12.9,1.8c25.3,1.1,47.1-4.1,64.3-23.9c12.3-14.1,19.7-32.3,24.8-50.1
	c6.7-23.3,9.3-47.1,9.3-71.3C241.6,301,237.3,272.7,222.5,249z M92.5,469.8c-2.7-1.2-6.7-3.5-6.2-6.9c0.6-3.8,4.8-4.8,8.1-4.6
	c6.8,0.4,15.9,3.4,21.2,7.8C108.6,470.4,100.6,473.2,92.5,469.8z M228.7,378.2c-3.2,15.9-7.6,32.1-15.1,46.5
	c-8.6,16.4-20.9,32-39.2,37.9c-8,2.6-16.1,3.1-24.4,3.1c-6.7,0-14.4-0.4-20.7-2.8c9.2-25.2,14-52.6,14.3-79.6
	c21-2.7,38.2-15.7,46.2-35.4c3-7.5,5.2-15.8,5.8-23.9c0.2-2.9,0.2-8-4.1-7.7c-2.6,0.2-3.9,2.6-4.1,4.9c-1,7.3-2,14.2-4.4,21.2
	c-5.8,16.3-20.7,31.4-38.8,32.2c0-33.2,1.5-66.6,2.3-99.8c0.2-8.7,2.5-17.2,3.1-25.8c0.1-2.3-1.6-4.7-4-4.8c-3.4-0.1-4.4,4-5,6.6
	c-1.6,7.6-2.3,15.7-2.4,23.5c-0.4,33.4-0.1,67.5-2.8,100.7c-38.9-0.1-59.8-41.2-56.5-75.4c4.9-51.3,58.8-90,108.5-69.7
	c22.8,9.3,35.4,32.2,41.1,55C236.1,315.3,234.9,347.6,228.7,378.2z M1490.4,295.9c-2-4.1-6.1-11-5.9-15.6c0.1-2.1,2.7-2.5,4.2-3.2
	c4.5-1.9,9-3.8,13.3-5.9c14.9-7.5,34-21.8,26.5-41c-6.2-15.9-28.2-18.4-39.8-7.4c-13.1,12.5-18,33.6-14.7,51.1
	c-6.3,0.9-12.8,4.1-18.9,6.1c-10.2,3.4-20.5,6.3-30.8,9.2c-3.3,0.9-16.6,3.1-10.8,9.3c3.2,3.4,12.6-0.9,16.3-2
	c15.3-4.4,30.5-10.8,46-14.4c1.1,7,5,14.4,8.2,20.7c6.2,12.4,13,24.5,19.3,36.8c12.9,25.3,16.4,57.5,3,83.3
	c-11.1,21.5-32.3,37.6-56.7,39.9c-38.1,3.6-74.9-28.5-74.1-67.5c0.9-38.1,37.9-66.8,74.5-54.1c6,2.1,11.8,5.3,16.6,9.6
	c10.7,9.5,16.7,23.9,12.7,38.1c-1.2,4.2-2.9,8.2-5.2,12c-1.3,2.2-3.2,4.6-2.2,7.4c2.3,6,7.7,0.8,9.4-2.3c4.5-8.1,7.5-16.9,7.7-26.2
	c1.2-37.5-42-55.9-73.6-48.4s-51.2,40.5-48.2,71.9c1,10.2,4.1,20.6,9.2,29.4c5,8.7,11.3,16.7,19.3,22.9
	c30.3,23.9,75.3,20.8,102.5-6.4c11.5-11.5,19.4-26.4,22.9-42.3c6-27.3-1.2-55.1-14.2-79.1C1501.2,317.1,1495.7,306.6,1490.4,295.9z
	 M1482.2,270.6c-1.1-3.9-0.9-8-0.4-12c1.6-14,9.4-37.1,27.6-33.8c10.3,1.8,14.4,12.5,10,21.4c-3.5,7-10.1,11.5-16.9,15.1
	C1495.9,264.8,1489.1,267.9,1482.2,270.6z"/>
<path class="st0" d="M719.4,333.6c0.4-1.6,0.7-4.5,2.2-5.5c2.2-1.5,6.5,0,9,0c7.4,0,14.8-0.3,22.1-1c6.2-0.6,12.3-1.6,18.4-2.8
	c27.6-5.5,64.7-16.5,70.7-48.7c0.9-4.6,1.1-10.1,0.2-14.7c-5.6-28.9-37.3-39.1-62.2-28.1c-33.9,15-53.9,51.9-64.9,85.6
	c-5.1-1.6-10.5-2-15.6-3.5c-11.5-3.5-22.3-9.6-30.8-18.1c-3.2-3.2-9.4-14.3-14.7-12.1c-2.7,1.2-2.5,4.4-1.3,6.6
	c2.5,4.7,6.6,9.2,10.5,12.9c12.4,11.8,31.8,21.8,49.2,22.1c-1.2,9.2-4.3,18.3-5.8,27.6c-5.6,35.9-6.3,87.5,27.4,110.9
	c26.6,18.5,60.1,5.6,81-15.2c4.9-4.9,9.5-9.8,13.8-15.2c1.6-2.1,4-4.5,3.6-7.4c-0.6-3.7-5-4.4-7.5-2.1c-3.3,2.9-5.6,7.1-8.6,10.4
	c-7,7.7-14.9,15.2-23.8,20.6c-5.9,3.6-12.1,6.7-18.9,8.2c-32.1,7.2-52.9-20.7-58.5-49c-4.3-21.9-3.4-44.5,1-66.2
	C716.8,343.7,718.1,338.6,719.4,333.6z M743.2,278c12.7-19.3,34-43.1,59.7-41.4c21.5,1.5,36.9,21.9,28.9,42.7
	c-4.5,11.8-14.8,19.7-25.7,25.2c-10.4,5.2-22.2,8.3-33.6,10.6c-16.3,3.3-32.1,4.2-48.8,4.2C727,305,735.2,290.2,743.2,278z"/>
<path class="st0" d="M1302.2,366.3c-11.5-14.5-30.3-18.8-44.5-29.8c-8-6.2-12.9-14.7-10.7-25c3.5-16.2,24.6-27.1,38.3-15.1
	c9.6,8.4,9,18.4,8.3,29.8c-0.2,3,2.1,6.3,5.5,4.5c4.6-2.5,3.5-13.1,3.3-17.4c-1.2-16.8-16-32.1-33.6-29.7
	c-6.5,0.9-12.7,2.3-17.9,6.5c-12.8,10.1-16.7,30.9-7.2,44.4c14.6,20.8,45.4,20.9,57.2,45.1c1.7,3.4,2.8,7.2,3.4,11
	c0.6,4.5,0.3,8.9-0.6,13.3c-1.2,5.2-3.2,10.1-6.5,14.3c-17.2,21.8-51.6,11.9-56.6-14.7c-1.7-9.3-0.1-20.1,6-27.6
	c2.5-3.1,7.6-5.4,9.4-8.8c2-3.7-1.4-6.8-5.1-5.6c-13.7,4.5-18.9,23.4-18.9,36c0,25.7,21.3,43.4,46.5,40.3
	C1312.4,433.7,1321.3,390.3,1302.2,366.3z M1771.7,365.4c-11.3-13.8-29.6-18.1-43.4-28.6c-7.9-6-13.3-14.6-11.2-24.8
	c3.6-17.6,26.3-27.9,40-14.1c8.4,8.4,7.4,18.2,6.7,28.8c-0.2,3,2.3,5.6,5.4,4.2c5.2-2.3,3.8-15,3.3-19.4
	c-1.9-16.3-16.7-30.1-33.6-27.9c-6.7,0.9-13,2.5-18.4,6.9c-12.6,10.3-15.8,31.1-6.3,44.4c14.6,20.3,44.8,20.5,56.6,44.2
	c1.9,3.8,3,7.8,3.7,12c0.7,4.4,0.2,9.1-0.8,13.3c-1.3,5.2-3.4,10-6.7,14.3c-16.6,21.2-50.3,11.5-55.9-13.8
	c-2.3-10.1-0.7-21.3,6-29.4c2.4-3,7.5-5.1,9.2-8.4c2-3.7-1.6-6.8-5.2-5.5c-18.8,6.7-22.3,36.2-15.9,52.1c7.3,18,25.2,26.7,43.9,24.2
	C1783.5,433.4,1791.2,389.1,1771.7,365.4z M1065.7,404.5c-1.6,5.6-1.1,10.5-4.7,15.6c-8.3,11.6-26.6,13.1-36.3,2.3
	c-8-8.9-6.1-21.2-6.1-32.2v-51.1c0-8.6-0.8-17.7,0.1-26.2c0.9-8.6,6.6-16.2,14.6-19.4c10.7-4.2,23.4,0.2,29,10.2
	c2.6,4.6,1.7,9.7,3.5,14.3c0.8,2,3.2,2.8,5.2,1.9c5.4-2.3,1-14.7-0.6-18.4c-5.2-11.9-18.7-19-31.6-17.3c-4,0.6-7.8,1.3-11.5,2.9
	c-18.4,8.3-17,28.3-17,45.1v50.6c0,12.3-2.2,26.8,3.2,38.2c6.8,14.4,24.2,19.4,38.7,15.2c10.6-3,18.1-12,20.4-22.6
	c0.6-2.9,2-8.5-0.4-10.9C1070.1,400.8,1066.4,401.7,1065.7,404.5z M495.9,427.9c-1.7-8.3-4.1-16.5-5.9-24.8
	c-6.5-30.5-14.5-60.7-21.4-91.1c-1.6-7.1-3.4-14.1-5-21.2c-0.6-2.8-1.7-6.1-5.2-5.3c-3.5,0.8-3.5,5.2-4.2,8
	c-1.9,8-3.9,15.9-5.7,23.9c-6.5,29.4-14.3,58.5-20.8,87.9c-1.6,7.1-3.2,14.1-5,21.2c-0.6,2.3-2,6-0.3,8.1c1.6,2,5.1,1.8,6.4-0.3
	c2-3.2,2.4-8.6,3.2-12.4c1.4-6.6,3.2-13.2,4.6-19.8c0.5-2.2,0.7-6.4,2.3-8c1.6-1.6,6.3-0.7,8.4-0.7h23c2.3,0,7.7-1,9.1,1.1
	c1.7,2.3,1.7,6.8,2.4,9.5c1.8,7.6,3.7,15.3,5.4,23c0.7,3.3,1.5,10.3,6.5,9C497.3,435,496.5,430.6,495.9,427.9z M440.3,385.6
	l10.5-44.6l7.9-34l5.6,22.5l13.3,56.1H440.3z M921.1,427c-1.5-7.1-3.3-14.1-5-21.2c-7.3-29.3-13.5-59-20.8-88.3
	c-2.1-8.3-3.8-16.6-5.9-24.8c-0.7-2.7-1.1-7.3-4.8-7.2c-3.9,0-4.3,4.2-5,7.2c-1.7,8.1-4,16.2-5.7,24.4
	c-6.4,29.9-14.7,59.3-21.1,89.2c-1.5,6.9-3.2,13.8-4.9,20.7c-0.6,2.3-2.1,6,0,8c4.9,4.6,7.1-3.4,7.8-6.6c1.9-8.5,4-16.9,5.9-25.3
	c0.5-2.3,0.7-7.8,2.8-9.2c2.4-1.6,8.5-0.5,11.3-0.5h29c1.6,11.8,5.4,23.8,8.1,35.4c0.7,3,3.3,10.7,7.8,6.3
	C922.9,433,921.6,429.4,921.1,427z M865.8,385.6l11.7-49.7l6.7-29l5.6,22.5l13.3,56.1h-37.3V385.6z M1606.8,426.5
	c-1.7-7-3.4-14.1-5.1-21.2c-6.9-29.3-13.4-58.6-20.7-87.9c-2.1-8.2-3.9-16.6-5.8-24.8c-0.7-2.9-1.2-7.5-5.1-7.2s-3.9,4.6-4.6,7.6
	c-1.9,8-3.9,15.9-5.7,23.9c-6.7,30-14.5,59.7-21.2,89.7c-1.6,6.9-3.3,13.8-4.9,20.7c-0.6,2.4-1.8,6.1,0.6,8c5,3.8,6.8-4.4,7.5-7.5
	c1.9-8.5,4-16.9,5.9-25.3c0.5-2.2,0.7-7.4,2.8-8.7c2.5-1.6,8.5-0.5,11.4-0.5h29c1.6,12.1,5.6,24,8.2,35.9c0.6,3,3.4,10.1,7.6,5.7
	C1608.7,432.8,1607.4,429.1,1606.8,426.5z M1551.7,385.6c5.4-26,11.2-52.6,18.4-78.2c4.3,8,5.1,20.1,7.1,29
	c3.5,16,10,32.8,11.3,49.2L1551.7,385.6L1551.7,385.6z M322.7,416c-6.3-18.8-12-37.8-18.1-56.6c6.1-1.9,11.4-7.9,14.4-13.3
	c7.5-13.6,7.6-34.2-0.9-47.4c-9.1-14.1-25.9-12.9-40.6-12.9c-4.4,0-11.1-1.2-15.2,0.4c-3.2,1.3-2.3,6-2.3,8.8v132.9
	c0,2.3-0.6,5.9,1.5,7.4c4.8,3.5,6.3-3.3,6.3-6.5v-65.3c9.8,1.2,19.8,0.6,29.4-1.4c0.6,6.9,4.2,14.5,6.4,21.2
	c4.1,12.4,7.9,24.9,12,37.3c1.2,3.6,3.9,19.8,10.4,14.4C330,431.7,324,419.9,322.7,416z M267.8,355.7v-62.1c12.4,0,29.7-2.9,40,5.3
	c14.3,11.4,10.9,42.2-3.7,51.7C293.3,357.6,280,356.2,267.8,355.7z M394.8,428.4h-41.4v-74.1H381c3,0,7.9,0.6,8.1-3.7
	c0.3-4.6-5-4.1-8.1-4.1h-27.6v-52.9h41.4c3.7,0,13,1.5,11.4-5.1c-1.1-4.4-9.9-2.8-13.2-2.8h-36c-3.9,0-10.9-1.3-11.5,4.1
	c-1.2,10.9,0,22.6,0,33.6V420c0,3.9-1.1,9.7,0.4,13.3c1.6,4.1,8.1,2.8,11.5,2.8h35.4c3.4,0,11.9,1.6,13.2-2.8
	C408,426.8,398.5,428.4,394.8,428.4z M589.3,427.9V294.5c0-3,0.9-8-3.2-8.6c-4.3-0.6-6.1,6-7.4,9c-4.7,10.5-9.7,20.8-14.5,31.3
	c-4.3,9.3-10.3,19.1-13,29h-0.9c-2.9-10-9-19.5-13.2-29c-4.6-10.7-9.8-21.2-14.6-31.7c-1.4-3-3.2-9.7-7.7-8.5
	c-3,0.7-3.2,4.1-3.2,6.7c-0.1,6.8,0,13.5,0,20.2V427c0,3-0.7,8,3.2,9c5.8,1.4,5.1-6.6,5.1-9.9V308.8h0.5c1.5,5.1,4.4,9.9,6.5,14.7
	c4.7,10.6,9.5,21.3,14.5,31.7c1.6,3.2,4,13.1,8,13.7c6,1,8.5-9,10.4-13.2c4.5-10.2,9.2-20.3,13.9-30.4c2.5-5.4,6.1-11.2,7.5-17h0.5
	V427c0,3.2,0.6,12.6,6.3,8.3C590,433.8,589.3,430.2,589.3,427.9z M997.8,286.4c-4.5-2.5-14.2-0.6-19.3-0.6h-62.1
	c-2,0-4.6-0.2-6.1,1.6c-1.8,2.3-0.3,5.8,2.4,6.2c6.6,1.1,14,0.1,20.7,0.1h16.1v134.8c0,2.9-0.5,7.7,3.7,7.7c4,0,4.1-4.3,4.1-7.3
	V293.6c12.7,0,26,1.1,38.6,0C999.6,293.2,1001.2,288.3,997.8,286.4z M1147.3,426.1v-132c0-2.3,0.6-5.9-1.5-7.5
	c-3-2.2-6.2,0.6-6.3,3.8c-0.5,10.1,0,20.3,0,30.4v25.8h-45.1v-25.8c0-10.3,0.4-20.6,0-30.8c-0.1-3.1-3.5-5.4-6.3-3.2
	c-2.2,1.7-1.6,5.4-1.6,7.8v131.6c0,2.9-0.8,7.4,1.9,9.3c6.1,4.3,5.9-6.3,5.9-9.3v-71.8h45.1v72.2c0,3.1,0.4,13.2,6.3,8.7
	C1148.2,433.4,1147.3,428.7,1147.3,426.1z M1214.5,428.4h-40.9v-74.1h27.1c3,0,7.9,0.6,8.1-3.7c0.3-4.7-5-4.1-8.1-4.1h-27.1v-52.9
	h40.9c3.7,0,13,1.5,11.4-5.1c-1.1-4.4-10.3-2.8-13.7-2.8h-35.9c-4.2,0-10.5-1.2-11,4.6c-1,11,0,22.5,0,33.6V420c0,4-1,9.6,0.5,13.3
	c1.7,4.2,8.3,2.8,11.9,2.8h35c3.4,0,11.9,1.6,13.2-2.8C1227.6,426.8,1218.3,428.4,1214.5,428.4z M1684.5,286.6
	c-4.5-3.3-6.4,2.9-6.4,6.1v34c-13.2-9.8-25.5-21-38.2-31.6c-3.2-2.6-9.7-10.5-14.3-9.1c-2.8,0.8-2.8,3.7-2.8,6.1V425
	c0,3.3-1.2,10.5,3.7,10.9c4.3,0.4,4.1-4.3,4.1-7.2V298.2c11.3,9.8,23,19.1,34.5,28.7c3.4,2.8,11.6,7.4,12.7,11.8
	c1.7,6.8,0.1,16,0.1,23v67.2c0,2.4-0.1,5.4,2.3,6.8c4.4,2.4,5.5-2.9,5.5-5.9V294C1686,291.7,1686.7,288.1,1684.5,286.6z"/>
</svg>
