<?xml version="1.0" encoding="utf-8"?>
<!-- Generator: Adobe Illustrator 23.1.0, SVG Export Plug-In . SVG Version: 6.00 Build 0)  -->
<svg version="1.1" id="Layer_1" xmlns="http://www.w3.org/2000/svg" xmlns:xlink="http://www.w3.org/1999/xlink" x="0px" y="0px"
	 viewBox="0 0 1871 652" style="enable-background:new 0 0 1871 652;" xml:space="preserve">
<style type="text/css">
	.st0{fill:#FFFFFF;}
</style>
<path class="st0" d="M766,321.5c25.5-25.6,49-55.4,67.6-86.4c6.1-10.2,13.2-20.9,16.2-32.5c1.1-4.4,1.8-11.5-4.4-12.1
	c-5.7-0.6-9.7,4.5-13.3,8.1c-9.5,9.5-17.3,20.5-25.1,31.3c-12.5,17.5-23.8,35.8-34.4,54.5c-4.6,8.1-8.7,16.6-12.9,24.9
	c-1.6,3.3-2.7,7.5-5.1,10.3c-9.3,11.4-30.3,16.9-44.4,16.9c2-6.1,2.3-23.7-9.3-19.3c-6.3,2.4-6.6,11-4.9,16.4c0.6,1.8,2.6,4.2,2.2,6
	c-0.5,2.8-3.9,5.9-5.7,7.9c-5.8,6.8-16.6,17.8-26.4,17.7c-4.1-0.1-6.3-4.4-7.1-7.8c-1.7-7.4,2.5-16.2,5.9-22.6
	c4.8-9.1,14.4-21.6,25.1-24.1c4.8-1.1,10.4,5.3,14.3,2.3c2.8-2.3,1.1-5.7-1-7.7c-3.8-3.5-9.6-4.2-14.4-3.2
	c-13.7,2.9-21,14.8-30.2,24c-18.1,18.2-35.8,37.3-55.7,53.6c-7.3,6-14.7,12.2-23.2,16.5c-2,1-6.8,3.9-8.9,2c-2.7-2.4,1-11.3,2-14.1
	c4.5-13.6,10.8-26.3,16.6-39.4c10.9-25,32.7-44.3,49.5-65.5c4.4-5.5,8.5-11.2,12.7-16.8c1.6-2.1,3.3-5.7,5.9-6.8
	c4-1.6,11.3-0.2,15.7-0.2c14.5,0,29,2.2,43.5,2.3c-2.6,11.1,16.5,6.8,17.2-0.6c0.6-6.8-11.5-7.3-16.1-7.6
	c-18.3-1.4-36.8-2.8-55.1-2.8c17.9-23.3,33.8-51,44.5-78.3c2.8-7.2,5.6-14.8,5.3-22.6c-0.2-4.9-4.1-7.7-8.7-5.4
	c-8.1,4-13.7,14.6-18.8,21.6c-13.3,18.6-25.5,38.3-37.2,58c-3.5,5.8-7,11.5-10.4,17.4c-1.5,2.5-3,6.6-5.6,8.1
	c-5.2,3-17.7,0.6-23.7,0.6c-19.7,0-40.1-1.4-59.7,0.5c-5.5,0.5-17.6-2.4-21.9,1.6c-2.6,2.4-1.2,6.6,2.1,7.1c5.9,1,13.6-0.5,19.7-0.5
	c26.2,0,52.6-0.6,78.9-0.6c-4.3,10.4-11.3,20.2-16.6,30.2c-6.3,11.7-11.5,26-19.6,36.5c-16.2,21.1-49.9,38.9-76.8,39.4
	c5-9.5,8.1-18.9,9.3-29.6c0.7-6-0.9-15.9,1.5-21.4c1.9-4.3,15.1-7.7,9.7-15.1c-2.3-3.2-7.3-1.7-10-0.1c-7.3,4.5-13.7,11.3-20.3,16.7
	c-4.9,4.1-10.6,7.1-15.7,10.8c-15,11.1-28.9,22-45.2,31.2c-9.4,5.3-21.5,12.1-32.5,12.5c0.3-13,8.5-26.7,14.8-37.7
	c1.9-3.4,8.2-10.4,6-14.4c-1.4-2.5-4.6-2.8-6.6-1c-4.1,3.7-5.9,9.2-10.1,13c-11.4,10-24,18.7-37.1,26.2c-6.3,3.7-14,8.1-21.5,8.7
	c3.5-15,15.4-27.3,20.6-41.8c4.1-11.1-3.8-18.7-14.8-19.7c1.4-5.1,3-9.8,3.6-15.1c1.2-11.7-8.5-25.1-21-16.4
	c-13.1,9.2-12.5,33.2,4.6,36.7c-2.7,5.7-7.1,13.8-12.3,17.5c-6.3,4.5-15.1,5.9-21.9,9.7c2.1-3.9,4.2-7.8,4.9-12.2
	c2.5-14-8.8-22.6-20.6-26.9c-21.1-7.5-45.6-10.8-65.5-21.3c32.8-9.3,65.7-18.7,96.3-34.1c9.2-4.6,26.9-13.6,24.8-26.3
	c-2-11.9-19.7-14.8-29.4-16.7c-31.1-6.2-62.6-3-94-3l14.5-20.3c0.7,3.4,3.8,5.3,6.8,2.7c3.9-3.5,10.2-19.8,3.1-22.5
	c-5.1-1.9-9.9,5-12.5,8.2c-6.1,7.4-11.4,15.4-17,23.2c-2,2.8-4,7.5-7.1,9.3c-3.8,2.1-10.7,1.4-15,1.8c-10.3,0.8-20.5,2.3-30.7,3.6
	c-31.9,4.2-64.9,10.3-95.1,21.5c-17.8,7-38.6,14.9-49.9,30.9c-3.5,5-9,16.6-4.9,22.5c1.8,2.6,5.5,2.1,7-0.5
	c1.9-3.5,0.7-8.3,2.6-12.1c5.5-11.1,17.1-18,27.7-23.6c34.7-18.2,77.5-25.7,116-30.7c12.3-1.6,25-2,37.1-4.2
	c-9.3,16.7-21.1,32.5-31.3,48.7c-14.8,23.4-28.9,47.3-43.6,70.8c-15.9,25.5-30.8,51.7-45.8,77.7c-16.1,28.1-32.4,56.7-45.2,86.4
	c-2.9,6.7-6.8,14.6-7,22c-0.1,4.9,4,7.8,8.6,6c6.3-2.5,0.6-6,0.5-9.5c-0.1-3.6,2.7-8.4,4.1-11.5c9.3-21.1,20.5-41.2,31.3-61.5
	c29.6-55.7,63.4-109.5,96.7-163c9.8-15.8,19.7-31.6,30-47c3.8-5.6,7.4-14.7,12.8-18.8c2.5-1.9,6.7-1.5,9.7-1.5c6,0,11.9-0.6,18-0.6
	c23,0,46.2-1,69,3.1c6.7,1.2,19.3,2.7,23.3,9.1c1.9,3.1-1.6,6.1-3.6,8.1c-5.8,5.6-13.2,9.1-20.3,12.6
	c-23.5,11.8-49.1,19.6-74.2,26.9c-6.1,1.8-22.9,3.4-24.2,11c-1.7,9.3,14.8,12.9,21.3,15.1c16.5,5.5,33.6,9,49.9,15.2
	c10.4,3.9,21.6,10.3,15.5,23.1c-1.3,2.7-2.8,5.2-4.6,7.5c-10.9,14.8-31.6,21.1-47.4,29.5c-33.8,17.9-67.4,36.1-100.9,54.5
	c-11.5,6.3-22.9,12.8-33.6,20.3c-3.5,2.4-10.2,7.4-6,12.2c3.8,4.4,12.2,0.3,16.5-1.2c15.5-5.4,30.4-12.8,45.2-20
	c31.7-15.4,62.6-32.9,91.6-53c11.1-7.7,20.6-18.2,31.9-25.5c12.2-7.9,28.2-10.1,40-18.3c6.6-4.6,12.9-14.7,15.7-22.2
	c3.5,0.8,10.7,1.9,11.3,6.4c0.5,3.5-3,8.6-4.5,11.6c-5.5,10.1-13.5,20.1-16.2,31.3c-2.8,11.1,5.8,14.4,15.3,11.8
	c3.4-0.9,6.7-2.3,9.9-3.8c5.2-2.5,10.2-5.3,15.1-8.3c7-4.4,13.8-9,20.3-14.2c-2.9,7.4-10.5,21.9-4.8,29.5c2.3,3,6.6,3.2,10,2.7
	c7.8-1.1,15.5-3.8,22.6-7.1c21.1-10,39-23.4,57.4-37.5c7.1-5.5,14.9-9.7,21.5-15.9c0,14.4-0.2,37-13.3,46.6
	c-5.6,4.1-17,0.2-23.8,1.2c-3.3,0.5-7.5,2.3-7.5,6.2c0,3.4,3.2,5.3,6.3,5.7c7,0.9,15.3,0.4,22-1.6c8.7-2.7,18.3-1.9,27.3-3.7
	c18.8-3.8,38.6-11.5,53.4-24.1c-6.1,14.7-13.6,29.1-17.3,44.7c-1.3,5.3-3,13.6,1.7,17.7c7.4,6.3,20.8-1.7,27.2-6
	c22-14.6,40.5-34.3,59.2-53c-0.5,4.2-1,8.6-0.4,12.8c0.3,2.2,1,4.4,2,6.4c9.5,18.9,34.5,1.3,43.4-8.7c2.9-3.2,6.7-10.3,10.7-12
	c4.3-1.8,10.9,0.2,15.6-0.6c9.9-1.9,18.1-6.1,27.3-10c-2,4.6-3.2,9.6-4.2,14.5c-2.5,12.2-2,25.6,13.5,24.9c2.6-0.1,5.1-0.8,7.5-1.6
	c17.2-5.5,32.7-17.1,47-27.8c5.5-4.1,10.9-8.3,16.2-12.6c2.1-1.7,5.1-3.6,5.1-6.7c0-9.6-12,1-14.4,2.9c-14.7,11.8-30.1,23.3-47,31.8
	c-4.2,2.1-17.6,10-20.4,3c-1.4-3.5-0.2-8.1,0.4-11.6C755.5,341,758.6,329,766,321.5z M799.3,257.1c12.5-19.5,25.8-39.8,42.2-56.3
	c0.6,7.9-9.1,20.2-13.2,26.7c-11.1,17.6-23.1,34.7-36,51c-5.3,6.6-10.6,15.4-17.5,20.3C780.9,284.3,790.7,270.4,799.3,257.1z
	 M662,213.6c12.8-20.6,25-43.6,41.4-61.5c0.9,7-5.8,17.5-8.6,23.8c-8.3,18.6-19.2,36.5-30.4,53.4c-3.1,4.6-7.1,14.1-12.1,16.8
	c-2.6,1.4-7,0.6-9.8,0.6C646.1,235.3,655.6,223.9,662,213.6z M630.9,265.8l6.6-10.4l9-0.6l-19.6,26.1l-11.7,13.3L630.9,265.8z
	 M357.7,282.7c-0.1,2-0.6,3.9-1,5.8c-0.7,2.8-1.6,5.6-3,8.1c-2.4-0.7-5-1.2-6.7-3c-4.8-5.1-2.4-16.4,3.8-19.5
	C356.4,271.4,357.9,278.8,357.7,282.7z M1842.5,321.3c-4.1,1.4-7.7,6-11,8.7c-13.4,11-28.7,21.6-45.2,27.1c-5.3,1.7-14.3,4.6-19,0.2
	c-3.7-3.5-5-15.2-0.1-18.3c3-1.9,9-0.5,12.6-1.3c11.6-2.5,32.8-12.8,29.3-27.7c-3.1-13.6-22.3-6-29.3-1.3c-7.5,4.9-13,12.1-19.7,18
	c-10.7,9.3-22.5,17.5-34.8,24.4c-6.7,3.8-14.8,8.7-22.6,9.4c0.9-3.9,2.7-7.5,4.5-11c1.4-2.8,3.1-5.4,4.6-8.1
	c6.3-11.1,22.6-33.3,3.7-40.5c-2.3-0.9-4.5-1.6-7-1.8c1.6-4.8,3-9.5,3.6-14.5c1.4-11.7-8.2-26-21-17c-13.1,9.2-12.4,33.2,4.6,36.7
	c-9.5,20.4-31,36.5-49.3,48.7c-3.8,2.6-17.4,12.8-21.5,6.8c-2.1-3,0.1-8.9,0.9-12.1c2.8-11.1,6.9-21.8,10.8-32.5
	c1.2-3.4,6.1-13.4-1.2-13.6c-5-0.1-9.2,9.5-11.6,13c-9.1,13.2-18.8,27-30.7,37.8c-3.9,3.5-13,12.8-19.1,9.2
	c-4.3-2.6-2.4-9.5-1.6-13.3c2.7-12.2,8.3-23.7,13.8-34.8c1.6-3.1,8.5-14.2-0.2-13.7c-3.1,0.1-4.7,3.8-5.9,6.2
	c-2.8,5.5-5,12.8-9.2,17.4c-19.6,21.9-41.9,43.3-64.9,61.6c-5.6,4.5-11.5,8.8-18,11.9c-1.8,0.9-5.3,2.8-7.4,1.8
	c-3.7-1.9,1-12.8,1.9-15.5c5.3-15.9,12.5-31.4,20.1-46.4c5-10,12.1-17.1,19.3-25.5c9.3-10.8,18.4-21.8,27.1-33.1
	c4-5.2,8-10.4,11.8-15.7c1.5-2,3.1-5.7,5.5-6.8c3.5-1.7,11.5-0.1,15.5-0.1c14.7,0,29.4,2.2,44.1,2.3c-2.6,11,16.4,6.8,17.2-0.6
	c0.8-6.8-11.5-7.3-16-7.6c-18.3-1.5-36.8-2.8-55.1-2.8c17.6-22.9,34-50.7,44.3-77.7c2.7-7.3,5.7-14.7,5.6-22.6c-0.1-5-3.7-8.4-8.7-6
	c-8.1,3.9-13.9,14.6-18.9,21.6c-13.2,18.7-25.3,38.3-37.1,58l-10.8,18c-1.4,2.3-2.7,6.1-5.2,7.5c-5.2,3-17.7,0.6-23.7,0.6
	c-19.7,0-40.1-1.4-59.7,0.5c-5.5,0.5-17.6-2.4-21.9,1.6c-2.6,2.4-1.2,6.6,2.1,7.1c5.9,1,13.6-0.5,19.7-0.5c26.2,0,52.6-0.6,78.9-0.6
	c-5.3,12.2-13.2,23.7-19.5,35.4c-5.6,10.3-10,22.7-17.2,31.9c-6.3,7.9-14.9,14.7-22.4,21.5c-6.6,6-13.7,12-21.5,16.5
	c-1.7,1-6.9,4.7-8.7,2.3c-2.1-2.8-0.1-10,0.6-13.1c2.7-11.4,6.4-22.8,10.8-33.6c1.6-3.9,6.6-10.7,4.1-15c-1.4-2.6-4.3-2.4-6.3-0.5
	c-3.3,3.1-4.7,8.8-7.1,12.6c-7.1-13.7-23.9-8.3-33.6-1c-6.8,5-12.2,11.6-18.6,17.2c-10,8.9-20.8,17.1-31.9,24.5
	c-7,4.7-15.5,11.4-24.4,11.6c0.1-16.1,13.4-29.5,13.3-45.8c-0.1-13.1-12.3-17.1-22.6-11.4c-3.8,2.1-7.3,4.9-10.4,7.9
	c1-5.7-0.8-12.8-8.1-9.6c-8.4,3.5-13.2,12.1-20.3,17.3c-16.9,12.6-35.9,24.8-54.5,34.7c1.6-7.8,4.1-15.5,6.2-23.2
	c1.4-4.9,2.3-9.9,4.3-14.5c2.1-4.9,4.2-10.8,3.2-16.2c-0.6-3.4-5.2-4.8-7.6-2.1c-3.9,4.5-3.3,13.6-5.8,19
	c-5.8,12.5-16.8,24.3-27.7,32.5c-4.6,3.5-14.4,10.8-20.2,6.6c-6.8-5-1.4-17.1,1.6-22.8c5.5-10.4,15.9-23.9,28.5-25.4
	c4.4-0.5,7.5,1.6,11.6,2.1c2.9,0.3,5.5-2,4.6-5.1c-0.9-3.2-5.2-4.6-8.1-5.2c-8.6-1.9-17.2,0.9-24.4,5.8c-6.9,4.8-11.6,11.7-18,17.1
	c-13.9,11.8-29.5,21.9-45.8,30c-8.1,4.1-18,9.5-27.3,9.7c0.6-13.4,8.8-27.7,15.5-38.9c1.9-3.2,8.3-10.4,4.9-14.1
	c-5.2-5.8-10.4,6.2-12.4,9.5c-7.2,12.2-16.9,28.8-16.2,43.5c0.5,11.1,13.7,8.1,20.9,5.9c19.3-5.9,38.6-17.4,54.5-29.6
	c-3.4,11.9-1.8,27.4,13.9,27.3c2.6,0,5-0.5,7.5-1.3c12.8-4.2,21.6-14.4,30.7-23.5c-1.9,6-2.8,15.3-6.7,20.2c-3.9,5-12.3,8-17.7,11.3
	c-13.7,8.5-27.5,16.9-41.2,25.5c-36.8,23-71.5,48.6-99.4,82.1c-12,14.4-25.3,31.5-28.5,50.5c-3.3,19.6,10.1,31.4,29.3,30.1
	c24.8-1.7,48.3-16.4,67.3-31.4c36-28.4,60.1-68.2,78.4-109.5c4.8-10.8,9.2-21.9,13-33.1c2-5.7,3.1-13.5,6.5-18.5
	c1.7-2.5,5.2-3.9,7.7-5.5c5.7-3.7,11.6-7.1,17.4-10.7c18.2-11.3,36.5-22.1,51.6-37.2c-3,7.1-6.9,14.2-10.8,20.9
	c-2.4,4.1-4.9,8.1-7.4,12.2s-6.9,9.1-7.6,13.9c-0.6,4.2,4,6.6,7.1,3.8c5.3-4.6,8.1-13.1,11.8-18.9c6.1-9.5,13.5-18.2,21.4-26.1
	c3.4-3.4,11.3-12.4,16.8-10.6c6,2,3.4,9.9,1.9,14c-3.4,10.3-10.4,20.9-11.1,31.9c-0.7,9.8,4.3,15.3,14.4,12.6
	c3.5-0.9,6.7-2.5,9.9-4.1c5-2.5,9.9-5.3,14.5-8.4c6.4-4.3,12.9-8.9,18.6-14.1c-0.6,3.2-1.7,6.6-1.7,9.9c0,10.8,9.2,16.4,19.1,12.9
	c11.8-4.2,27.8-17.7,33.1-29.2h0.6c-0.9,4.6-2.1,9.2-2.7,13.9c-0.3,2.7-0.9,5.5-0.6,8.1c0.9,9.6,8.2,12.5,16.7,9
	c13.3-5.3,22.3-16.7,33.6-24.7c-5.5,14.2-12.5,27.5-16.2,42.3c-1.3,5.1-3,13.1,1.2,17.3c7.3,7.4,21.7-1.6,28.3-5.9
	c23.7-15.5,43.3-37.4,63.2-57.2c-3.3,11.8-4.3,32,13.9,28.7c2.6-0.5,5.2-1.3,7.5-2.6c14.3-7.1,23.5-21.3,33.6-33.1
	c-1.8,8.8-8.2,22.2-2.5,30.7c6.6,9.8,21.7,2.1,29.2-2.4c13.1-7.9,24.8-17.9,36-28.2c8.5-7.9,17.4-17.3,21.5-28.5
	c3.2,0.7,10.7,1.8,11.4,5.8c0.6,3.7-2.9,9-4.6,12.2c-5.5,10.1-13.2,20-16.2,31.3c-3,11.1,5.9,14.3,15.2,11.8
	c3.4-0.9,6.7-2.3,9.9-3.8c5.2-2.5,10.2-5.2,15.1-8.2c7.4-4.6,14.2-10,21.5-14.8c-0.3,4.6-1.2,9.3-0.4,13.9
	c1.9,11.5,11.7,14,21.9,13.3c17.8-1.2,34.7-12.8,48.7-22.9c5.6-4.1,11.1-8.4,16.2-13c1.9-1.7,4.8-3.6,5-6.3
	C1848.6,322.3,1845.6,320.3,1842.5,321.3z M1790.9,312.4c2.1-0.8,8.4-2.8,9.7,0.1c1.4,2.8-3.3,6.8-5.1,8.4
	c-6.7,5.7-16.2,9.4-24.9,9.5C1774.4,322.6,1783,315.4,1790.9,312.4z M1569.5,216.5c13-21.6,26.2-45.8,43.3-64.4
	c0.9,7-5.7,16.9-8.5,23.2c-8.1,18.6-19.3,36.3-30.2,53.4c-3.1,4.9-7.4,14.5-12.5,17.4c-2.6,1.5-6.9,0.6-9.7,0.6
	C1555.3,236.3,1563.9,226,1569.5,216.5z M1540.3,265.8l6.6-10.4l9-0.6l-19.1,25.5l-12.2,13.9L1540.3,265.8z M1203,428.8
	c-19,41.4-45.6,80-83.7,106c-14,9.6-31.8,20-49.3,20.5c-6.4,0.2-13.7,0.5-18.4-4.7c-5-5.5-3.8-13.8-1.9-20.2
	c4.6-14.8,14.3-28.2,24.1-40c30-36.1,67.9-62.7,107.5-87.2c13.2-8.2,27.3-19.8,41.8-25.3C1218.3,395.3,1210.5,412.4,1203,428.8z
	 M1444.4,320.9c-1.3,4.1-5.7,8.3-8.4,11.6c-7.6,9.5-20.1,26.5-33.2,28.2c-9.2,1.2-3.8-13.4-2-17.2c5.6-11.8,17.5-28.1,31-31
	C1436.1,311.7,1446.3,314.9,1444.4,320.9z M1703.3,286.7c-0.6,3.4-2,6.6-2.8,9.9c-10.3-2.1-14.4-17.2-3.5-22.5
	C1704.5,270.4,1704,282.8,1703.3,286.7z M1444.4,182.8c-6.7-5.6-22-2.3-30-1.7c-29.3,2-58.6,7.3-87.6,12.5
	c-64,11.5-127.8,25.5-190.8,42.1c-21.1,5.6-42.2,11.3-63.2,17.3c-10.1,2.9-21.4,8.2-31.8,9.3c-4.4,0.5-11.5-5.8-15.2-8
	c-14.5-8.7-33.6-19.5-38.2-37.1c-5.3-20.4,14.6-39.2,30.6-47.7c30-15.8,66.6-18.4,99.8-14.4c11.8,1.4,28.1,3.8,37,12.5
	c11.9,11.6-12.8,19-20.8,20.2c-18.8,3.1-39.1,0.1-57.4-5c-6.8-1.9-13.5-5.3-20.3-6.7c-3.8-0.8-7.3,2.7-4.8,6.3
	c3.5,5,15.9,7,21.6,8.6c22.3,6.4,48.7,9.1,71.3,3.1c12.1-3.2,28.9-13.8,20-28.5c-10.2-16.9-39.7-18.6-57.1-19.8
	c-35.8-2.5-79,1.7-107.9,25.3c-15.8,13-27.8,35.8-17.7,55.9c5.9,11.8,16.9,20.5,27.6,27.7c5.9,3.9,12.4,9,19.1,11.2v0.6
	c-31.7,7.3-63.3,20.6-93.4,32.7c-19.5,7.8-39,16.3-57.4,26.7c-19,10.7-40.8,23.1-51.7,42.7c-7.8,13.9-7,30.5,7.6,39.6
	c4.7,2.9,9.8,4.9,15.1,6.4c8.1,2.4,16.5,3.6,24.9,4.4c18.2,1.7,36.5,0.1,54.5-2.1c40.1-4.8,80.4-16.6,116-35.9
	c17.4-9.5,34.7-21.6,45.6-38.4c6.3-9.6,9.7-22.5,5.5-33.6c-5.3-13.9-17.6-23.1-29.7-30.9c-4.8-3.1-11.1-5.6-15.1-9.7
	c9.3-1.4,18.7-5.3,27.8-7.9c18.3-5.2,36.7-10.4,55.1-15.1c62.8-15.9,125.9-30.7,189.7-42.2c36.3-6.6,73.3-14.3,110.2-14.3
	c-2.4,1.7-14.6,8-5.8,11.1C1434.1,202.1,1452.7,189.8,1444.4,182.8z M1059.5,284.1c16.6,10.8,36.4,25.8,26.7,48
	c-1.9,4.1-4.6,8.1-7.4,11.6c-10.3,12.8-24.7,22.5-39,30.3c-30.7,16.9-65.7,27.3-100.3,32.7c-28.2,4.4-58.3,7.2-86.4,0.2
	c-14.6-3.7-28.6-12-21.8-28.9c1.3-3.2,3.2-6.4,5.2-9.3c12.4-17.6,33.9-28.9,52.5-38.7c31.8-16.8,65.8-29.7,99.8-41.5
	c15.5-5.4,32-12.8,48.1-15.7C1043.4,271.4,1054.3,280.6,1059.5,284.1z"/>
</svg>
