<?xml version="1.0" encoding="utf-8"?>
<!-- Generator: Adobe Illustrator 23.1.0, SVG Export Plug-In . SVG Version: 6.00 Build 0)  -->
<svg version="1.1" id="Layer_1" xmlns="http://www.w3.org/2000/svg" xmlns:xlink="http://www.w3.org/1999/xlink" x="0px" y="0px"
	 viewBox="0 0 1871 652" style="enable-background:new 0 0 1871 652;" xml:space="preserve">
<style type="text/css">
	.st0{fill:#FFFFFF;}
</style>
<path class="st0" d="M231,186.9c-3.5-1.2-8.4-1.2-12.1-0.7c-13.8,2.1-27.4,8.7-39.8,14.9c-32.4,16.2-64.1,39.7-88.1,66.8
	c-8.9,10-18.1,21.8-21.4,35.1c-1.4,5.8-1.8,13.1,1.6,18.3C76,329,84.4,330,92.6,330c18.1,0,34.3-10.1,51.5-14.4
	c3.6-0.9,7.2-1.8,10.9-1.7c16.3,0.2,14.5,18.6,11.8,29.8c-9.1,38.6-40.7,73.4-73.8,93.5c-9.6,5.8-19.8,11-31.2,11
	c-6.2,0-13.1-2.6-15.8-8.6c-3.5-7.6,0.2-16.5,3.6-23.4c8.9-17.8,23.7-33.9,39.1-46.3c5.3-4.3,11.1-7.9,16.8-11.7
	c1.3-0.9,3.9-3.9,1.1-5c-2-0.7-5,1.9-6.6,3c-5.9,3.9-11.7,8.1-17.2,12.7c-16.9,14.1-34.1,33-41.2,54.2c-4.1,12.2-1.8,25.2,12,29.3
	c3.3,0.9,6.7,0.9,10.1,0.8c12.8-0.3,25.5-8.3,35.9-15.1c27.7-18,51.1-43.7,64.8-73.8c4.8-10.5,9.3-23,9.3-34.7c0-4.9-0.4-9.9-3.3-14
	c-5.7-8.4-17.5-6.9-26-4.8c-15.8,3.9-30.5,12.4-46.8,14.2c-7.2,0.8-15.4,0.6-20.6-5.5c-4.5-5.4-4.1-12.1-2-18.3
	c3.8-11.4,11.4-21.1,19.2-30c7.4-8.6,16.2-16.1,24.7-23.4c21.4-18.4,44.3-33.5,69.4-46.1c8.5-4.2,18-8.3,27.3-10.2
	c4.4-0.9,9.1-1.4,13.3,0.5c10.1,4.7,6.5,16.2,2.7,23.8c-9.2,18.3-25,34.8-39.3,49.1c-4.6,4.6-9.7,8.8-14.4,13.3
	c-1.1,1.1-3.2,4.3-0.4,4.9c2.3,0.5,4.3-2.3,5.8-3.6c4.8-4.3,9.5-8.8,14-13.4c15.6-15.6,33.5-33.8,41.2-55
	C241.8,202.3,241.3,190.5,231,186.9z M1434.6,186.2c-2.7-0.4-5.9-0.3-8.6,0c-16,2.3-32,10.5-46,18.1c-30.5,16.5-60.9,38.8-83.6,65.2
	c-2.3,2.7-4.5,5.4-6.7,8.2c-8.6,11.2-22.1,33.1-9.8,46.3c5.1,5.4,12.3,6,19.3,6c16,0,31.1-7.8,46-12.8c8.5-2.8,21.5-6.9,27.7,2.2
	c2.8,4.2,2.6,8.9,2.3,13.6c-0.6,11.3-5.1,22.7-10.1,32.8c-14,28.2-36.2,52.8-62.9,69.6c-10.8,6.7-23,14-36.3,12.6
	c-2-0.2-4-0.8-5.8-1.5c-12.5-5.1-9.2-19.7-4.6-29.2c8.5-17.4,22.9-33.6,37.7-45.8c6.2-5.1,13.8-8.9,19.8-14.1
	c1.6-1.4,1.8-4.8-1.1-4.2c-6.3,1.4-13.4,8.5-18.3,12.3c-17.5,13.5-34.7,32-43.5,52.6c-5.1,12-6.8,28.7,8.4,33.8
	c2.3,0.7,4.6,1.3,7,1.3c14.8,0.2,27.1-6.6,39.4-14.3c27.7-17.3,50.3-42.8,64.9-71.9c5.4-10.8,10.5-24.4,10.5-36.7
	c0-5.1-0.1-9.9-2.9-14.4c-5.4-8.7-17.5-7.4-25.9-5.3c-15.9,3.9-30.8,12.4-47.2,14.3c-7.4,0.8-15.8,0.5-20.8-5.9
	c-9.6-12.2,3.7-30.4,11.1-40.2c1.9-2.6,4-5.1,6.2-7.4c26.8-28.8,59.1-52.6,94.4-69.9c8.5-4.2,18-8.3,27.3-10.2
	c4.6-0.9,9.4-1.5,13.7,0.7c9.5,4.8,6.5,16.1,2.4,23.6c-9.9,18.1-24.6,34.3-39,48.8c-4.7,4.7-9.5,9-14.4,13.5
	c-1.1,0.9-3.5,4.4-0.7,5.1c2.2,0.5,4.3-2.3,5.8-3.5c5-4.4,9.7-9.2,14.4-13.9c15.2-15.2,33.7-33.3,40.7-54.2
	C1448.7,201.3,1447.7,187.9,1434.6,186.2z M833.9,427.3c-1.5-2.4-4.5,0.2-5.8,1.3c-5.5,4.8-11.2,8.9-17.9,11.8
	c-20.5,9-47.3,6.6-65.5-6.5c-24.4-17.4-31.7-57.6-63.6-65c2.1-3.7,3.6-8.8,6.5-11.9c2.5-2.7,7.1-4.3,10.3-6.2
	c7.4-4.3,14.7-8.7,21.8-13.4c30.7-19.8,61.8-44.9,79.1-77.7c8.3-15.7,13.5-34.8,6-51.9c-7-15.8-26.7-21.4-42.5-21.4
	c-33.2,0-69.7,13-95.5,33.9c-8,6.4-15.2,13.7-20.8,22.3c-2.5,3.9-5,8.5-4.9,13.3c0.1,3.3,4.7,10.7,8.3,6.1c2-2.6-2.8-4.7-3.1-7.3
	c-0.5-3.7,2.3-7.6,4.2-10.5c18.2-27.1,53.5-43.3,84.6-50.2c8.9-2,18.5-3.5,27.7-2.8c6.4,0.4,12.7,1.6,18.7,3.7
	c3.8,1.3,7.4,3.2,10.5,5.8c23.7,19.5,6.9,54.1-7.6,73.5c-9.6,12.8-20.8,23.9-32.9,34.3c-18.4,15.8-39.2,28.7-60.1,41
	c7.1-17,15.6-33.5,22.4-50.7c8.3-20.7,15.4-42.1,21.2-63.6c1.4-5.3,3-10.6,4.3-16c0.4-1.6,0.9-4.9-1.9-4.4c-2.8,0.5-3.2,5.3-3.7,7.5
	c-2,7.7-4.1,15.4-6.5,23c-10,32.1-21.8,63.4-35.9,94c-2,4.3-4,10.4-7.1,13.9c-3.7,4.1-11,6.4-15.8,9.1c-3.3,1.9-6.8,3.5-10.1,5.4
	c-1.3,0.7-2.9,1.5-3,3.2c-0.1,1.2,0.6,2.1,1.9,2.1c2.9,0,6-1.1,9-1.3c2.8-0.3,5.5,0.3,8.2,0.3c-3.2,7.6-8.5,14.9-13,21.8
	c-12.6,19.5-27.4,37.7-45.5,52.4c-8,6.5-20,16.8-31.2,14.9c-8.2-1.4-9.4-10.7-8.9-17.4c0.2-2.3,2.1-8.4-1.6-8.5
	c-2.7-0.1-2.7,2.7-3,4.6c-0.6,4.8-0.8,9.7,0.1,14.4c1.7,9.2,9.8,12.8,18.5,11.4c13-2.1,24.3-11.3,33.9-19.7
	c16.6-14.5,30.3-32.4,42.1-51c3.4-5.3,6.7-10.6,9.8-16c0.9-1.5,2.1-5.1,3.9-5.5c2.4-0.5,6.6,2.4,8.5,3.5c8.1,4.8,14.4,12,19.9,19.5
	c8.4,11.4,14.8,24,24.6,34.3c11.3,12,28.1,18.4,44.4,19.1c16.1,0.7,32.2-2.8,46-11.5c3.3-2.1,6.6-4.5,9.4-7.3
	C833,430.5,834.8,428.8,833.9,427.3z M1172,292.6c-5.6-10.3-19.2-6.5-24.6,1.6c-1.5,2.3-5.1,8.4-3.2,11.2c1.1,1.7,3.3,0.3,3.9-1.1
	c1.4-3.1,1.9-6.2,4.1-8.9c3.8-4.9,11.3-6.2,14.9-0.4c2.8,4.4,1.8,10.1,0.4,14.8c-3,10.6-8.9,20.2-14.9,29.3
	c-19.5,29.3-49.9,56.4-83.7,67.7c-14.6,4.9-34.3,7.9-44.8-6.5c-7.3-10.1-6.4-23.1-4.5-34.7c4.1-25.5,13.8-50.9,25-74.1
	c3.4-6.9,6.7-13.8,10.3-20.7c1.2-2.3,2.5-6.4,4.7-7.8c2.8-1.8,8.1-1,11.2-1.2c10.5-0.7,20.8-0.2,31.2,0.4c3.3,0.2,9.5,2.3,12.4,0.7
	c1.9-1.1,1.8-3.2-0.4-3.8c-3.7-1-7.9-1.1-11.7-1.5c-13.7-1.3-26.9-0.3-40.6,0.3c3.6-6.2,8-12.6,11.1-19.1c1.1-2.4-0.9-4.5-3.2-2.8
	c-4.2,3.1-7.3,11.5-9.8,16c-1,1.8-2.1,5.1-4.1,6c-4.5,2-11.4,1.7-16.3,2.7c-10.3,2.1-19.9,5.1-29.3,10.1c2.3-2.8,4.8-5.6,6.9-8.6
	c0.7-1,1.3-2.7,0-3.5c-1.9-1.2-3.8,1.1-4.9,2.3c-3.6,4.1-6.7,8.7-9.8,13.3c-0.9,1.3-3.4,4-2.3,5.7c0.8,1.2,2.5,0.8,3.5,0.2
	c2.8-1.6,5.3-3.8,8.2-5.4c12.4-7.1,26-8.9,39.8-11.5c-23.4,40.1-40.1,84.2-67.1,122.1c-6.3,8.9-13.6,18-21.8,25.2
	c-2.5,2.2-6.8,6.6-10.5,4.7c-5.6-2.9-1.5-15.6-0.4-20.2c4.9-19.5,12.7-39,21.7-56.9c2.6-5.2,5.3-10.5,8-15.6c0.7-1.3,2.6-5-0.5-4.9
	c-1.7,0-2.5,1.7-3.2,3c-1.9,3.4-3.6,6.5-6.2,9.4c-8.2,9.1-19.6,17.4-30.7,22.6c0.7-2,1-4.1,1.3-6.2c0.2-1.6,0.2-3-0.2-4.7
	c-2.3-11.9-15.8-8.6-23.8-5.1c-15.2,6.7-28.1,17.4-37.7,30.8c-3,4.2-6.9,9-8.3,14c-0.2-3.2,1.8-7.1,2.8-10.1
	c2.6-7.7,5.3-15.4,8.3-23c11.2-28.1,23.9-55.2,38.9-81.5c5.1-9,10.9-17.7,16.9-26.1c1.2-1.8,6.6-6.7,4.8-9.1
	c-2.5-3.1-7.6,5.7-8.7,7.2c-7,9.8-13.5,20-19.5,30.4c-6.2,10.9-12.1,22.1-17.4,33.5c-3.6,7.9-6.5,16.6-10.7,24.1
	c-7.7,13.7-17.1,27.3-27.7,39c-3.5,3.9-7.4,7.6-11.2,11.3c-5.9,5.7-17.7,14.1-24.3,4.7c-0.9-1.3-1.5-2.8-1.9-4.3
	c-0.5-2-0.5-4.2-0.3-6.2c1.1-16.6,10.3-33.4,17.6-48c7-14,15.6-27,23.3-40.6c1.4-2.5,0.7-6.1-2.7-3.7c-5.4,3.8-13.2,11.3-16,17.4
	c-9.6-9.2-21.3,0.7-29.3,7.1c-13.4,10.8-25.7,23.5-34.9,38.1c-3.4,5.4-7.2,11.2-8.5,17.5c-1.4,6.6,3.6,8.3,9.1,6.7
	c8-2.3,14.5-8.8,20.3-14.5c5.5-5.5,11.1-10.9,16.2-16.8c5.1-5.8,10.3-11.6,15.2-17.5c4-4.8,7.5-9.7,12.6-13.3
	c-8,17-17.7,32.6-23.5,50.7c-2.6,8-5.3,16.9-3.5,25.4c2.4,11.2,13.8,12.6,22.7,8.1c11.3-5.7,20.5-16.8,28.2-26.4
	c3.2-4,7-8.2,9.2-12.9h0.4c-3.3,10.1-7.4,19.9-10.8,30c-2,6.1-3.9,12.2-5.7,18.3c-2.1,7.1-4,14.3-5.8,21.4c-0.4,1.6-2.4,6.4,0.5,6.7
	c3,0.3,3.7-3.9,4.3-5.9c2.1-7.1,4.7-14.2,7.4-21.1c8.4-20.9,21.6-41.8,41.7-53.3c5.7-3.3,16.3-9.4,23-6.4s5.1,13.9,0.3,18.1
	c-3.9,3.4-9.2,6-13.6,8.9c-8.4,5.7-16.9,12.4-22.9,20.7c-2.9,4-7.7,11.5-5.6,16.8c1.1,2.8,4.4,2.6,6.7,1.8
	c5.3-1.9,10.5-6.4,14.4-10.3c6.4-6.2,12-13.1,16.7-20.7c2.8-4.4,5.2-10.5,8.7-14.4c2.7-3,7.7-4.5,11.2-6.5c6.5-3.7,12.8-8,18.3-13.1
	c-8,19.1-17.3,38.1-21.4,58.5c-1.1,5.5-4.3,17.7,1.9,21.3c3.2,1.8,7.4,0.8,10.5-0.7c6.9-3.4,12.4-10.4,17.5-15.9
	c15.2-16.4,25.9-36.2,36.4-55.8c4.6-8.6,11.4-18,14.3-27.3h0.4c-4.3,18.5-12.2,35.4-14,54.6c-0.5,5.1-0.3,10.6,0.6,15.6
	c0.7,3.5,1.6,7,3.4,10.1c9.6,17.3,31.1,17,47.8,12.4c37.1-10.1,70.6-40.3,91.4-71.7c6.5-9.8,12.4-20.7,15.6-32
	C1173.7,303.9,1174.6,297.5,1172,292.6z M840.2,300.8c-0.9,4.8-7.8,10.3-10.8,14c-10.4,12.9-21.7,25.9-34,37
	c-4.1,3.7-11,11-17.2,10.5c-3.2-0.2-2-3.9-1.2-5.8c2.3-5.5,5.9-11,9.2-16c8.3-12.4,18.8-23.3,30.1-32.8c5-4.2,10.4-9.2,17.2-10.3
	C835.7,297.1,840.8,297.5,840.2,300.8z M925.9,372.2c-5.1,8.2-11.5,15.9-19,22.1c-1.7,1.4-8.3,7.7-10.7,5.9
	c-2.9-2.1,3.3-10.3,4.6-12.1c7.7-10.4,19-17.4,29.5-24.6C930.4,366.4,927.3,369.8,925.9,372.2z M513.2,328.8c-2.1-2-5.5,3.1-6.6,4.4
	c-5.7,6.6-13.5,11.6-20.8,16.2c-6.8,4.3-14.4,7.4-21.1,11.9c0-9.6-2.3-19-2.7-28.5c-0.6-14.6,4.4-29.7,14.8-40.2
	c4.8-4.8,13.6-14.2,21.5-10.8c12.1,5.3,2,21.6-3,27.9c-1.3,1.6-2.6,3.2-4,4.7c-0.9,1-4.1,6.2,0,5.1c3-0.8,5.7-5.2,7.6-7.4
	c4.9-6,9.5-13.1,9.9-21.1c0.6-10.6-9.2-16.2-18.7-13.1c-3.1,1-5.9,2.8-8.6,4.7c-4.2,3-7.8,6.7-11,10.8c-5.2,6.7-9,14.4-11.1,22.6
	c-1,3.9-0.5,9.3-2.3,12.9c-2.1,4.3-6,8.3-8.9,12.1c-7.4,9.8-15.4,19.4-24.1,28.1c-5.4,5.4-10.6,10.7-17.2,14.7
	c-2.1,1.2-5.2,3.7-7.8,2.8c-8.3-2.7-2.8-15.9-0.9-21c7.6-20.2,19.7-38.6,29.5-57.7c2.7-5.1,5.6-10.2,8.5-15.2c0.7-1.2,3-4.1,1.3-5.5
	c-1.5-1.2-3.4,0.6-4.4,1.5c-3.4,3-6.7,6-10.1,8.9c-12.2,10.5-29.4,25-46.4,25.4c1.4-2.4,2.3-5,2.7-7.8c0.3-2,0.4-3.8,0.1-5.9
	c-0.7-6.3-5.5-9.6-11-4.6c-5.2,4.8-7.6,19.1,1.5,21.3c-6.7,9.7-12.4,20.1-19.7,29.6c-4.6,6.1-9.8,12.3-15.4,17.5
	c-6.8,6.2-22.6,21.5-29.5,6.7c-0.8-1.7-1.2-3.5-1.3-5.5c-0.1-2.7,0.3-5.2,0.9-7.8c4.8-22.5,16.4-43.9,28-63.6
	c3.5-5.9,6.9-11.8,10.5-17.5c0.9-1.5,3.6-4.6,2.3-6.5c-1.6-2.4-4.7,1.1-5.9,2.2c-4.3,4.3-10.6,9.2-13.3,14.8
	c-2.6-1.5-4.7-3.1-7.8-3.4c-9.8-1.1-19.4,8.8-26.1,14.5c-23,19.6-39.1,45.6-60.4,66.9c-6.6,6.6-13.5,13-21.5,17.7
	c-3,1.8-6.9,4.1-10.5,2.7c-6.1-2.3-5.2-10.6-4.4-15.7c2.4-15,8.5-29.9,13.7-44.1c5.1-13.6,10.7-27,16.9-40.2
	c1.6-3.5,4.1-12.1,7.8-13.8c1.8-0.9,3.9-0.5,5.8-0.7c3.5-0.5,7.1-1.3,10.5-2.2c12.6-3.4,25.1-9.2,38.2-10.1
	c5.5-0.4,10.3,0.5,15.6,2.2c1.4,0.4,3,0.5,3.6-1.1c1-2.3-1.5-3.3-3.2-3.9c-4.3-1.5-9.1-1.8-13.6-1.5c-18.7,1.3-36.9,9.4-55.4,12.8
	c4.3-9.3,9.4-18.5,14.7-27.3c0.7-1.2,5.6-10.1,0.2-7.3c-2.3,1.2-3.5,4.8-4.8,6.9c-3.7,6.3-7.3,12.7-10.7,19.1
	c-1.1,2-2.5,6.6-4.6,7.8c-1.2,0.7-3.6-0.1-4.9-0.4c-5.1-1.2-9.7-4.5-13.1-8.5c-1.2-1.4-3-5.8-5.2-5.5c-5.3,0.7,0.2,7.8,1.6,9.4
	c4.9,5.5,12.4,9.3,19.8,9.4c-10.1,24.4-22,47.8-30.4,72.9c-3.7,11.1-8.5,23.6-7.3,35.5c1.3,12.8,12.3,12.4,21.4,7.7
	c11.3-5.9,19.7-15.6,28.5-24.5c4.3-4.3,10.5-9.4,13.3-14.8h0.4c-0.5,1.4-0.9,2.8-1.1,4.3c-0.6,4.6,3.2,6.4,7.3,5.7
	c6.5-1.2,11.9-5.5,16.8-9.7c15.2-13.5,28.6-29.4,41.5-45.1c2.2-2.7,5.3-4.9,7.4-7.5c1.9-2.5,3.1-5.5,5.3-8.1
	c-3.9,8.3-9.2,16.1-13.5,24.2c-7.3,13.5-13.3,28-17,42.9c-2.2,8.9-3.6,23.6,7.6,26.9c9.8,2.9,20-4.9,26.5-11.3
	c9.9-9.8,18.7-20,26.4-31.6c2.8-4.3,5.6-8.5,8.2-12.9c1.2-2,2.3-5,4.1-6.4c1.6-1.2,5-0.7,6.9-1.1c4.1-0.7,8.3-2.1,12.1-4
	c12.7-6.1,23.1-15,34.3-23.3c-2.2,5.1-5.4,9.9-8.1,14.8c-8.3,15.3-17.1,30.8-24,46.8c-3.2,7.6-8.1,19.3-2.4,26.9s16.8-0.7,21.9-4.8
	c17.1-13.5,28.8-31.3,42.9-47.5c0.3,6.1,1.3,12.3,2.1,18.3c0.4,2.4,1.5,6.6,0.5,8.9c-1.1,2.4-6,4.1-8.1,5.6
	c-6.8,4.8-13.5,10.7-15.6,19.1c-0.8,3.4-1,7.7,1.3,10.5c5.4,6.6,14.9,1.7,19.1-3.5c4.1-5,6.4-11.5,7.1-17.9
	c0.4-2.7-0.2-9.6,1.8-11.5c3.4-3.3,9.4-5.3,13.5-7.6c8.9-5,17.7-10.4,25.4-17.2c2.8-2.4,5.5-4.9,7.8-7.9
	C513.3,331.7,514.4,329.9,513.2,328.8z M322,300.8c-0.4,1.8-2.3,3.7-3.4,5.1c-2.8,3.5-5.8,7-8.7,10.5
	c-10.2,12.2-21.1,23.9-32.4,35.1c-4.1,4.1-10.9,10.8-17.2,10.8c-3.4,0-2.3-3.7-1.4-5.7c2.5-5.5,5.9-11,9.2-16
	c8.2-12.4,18.6-23.3,30-32.8c5-4.2,10.5-9.3,17.2-10.3C317.3,297.1,322.6,297.5,322,300.8z M453.7,392.4c-2.4,2.7-6.8,6-10.5,3.6
	s-2.7-7.2-1.4-10.6c2.7-7,11.8-14.9,18.9-17.2C460.7,376.4,459.3,386,453.7,392.4z M1820.7,264.8c-4.3-1.4-9.2-1.8-13.7-1.4
	c-18.7,1.8-36.6,9.4-55,12.8c5.2-8.9,9.6-18.3,14.7-27.3c0.9-1.7,2.6-3.5,3-5.5c0.4-1.8-1.4-2.7-2.8-1.9c-2.3,1.2-3.7,5.2-5,7.3
	c-3.7,6.3-7.2,12.7-10.7,19.1c-1.1,2-2.3,6.2-4.4,7.4c-1.2,0.7-3.6-0.1-4.9-0.4c-5.1-1.2-9.8-4.5-13-8.5c-1.1-1.4-3.2-5.9-5.3-5.5
	c-5.1,1.1,0.2,7.6,1.7,9.4c4.8,5.5,12.5,9.3,19.8,9.4c-4.7,11.3-10.3,22.3-15.1,33.5c-2.1,5.1-3.9,12.7-7.6,16.8
	c-10.3,11.2-27.4,15.4-41.3,19.9c5.1-7.6,10.3-16.5,11.3-25.7c0.7-6.2-2.3-11.4-9-11.3c-1.8,0-3.7,0.4-5.5,0.8
	c-19.1,5-34.3,19.9-47.2,33.9c2.7-5.7,6.4-11.1,9.8-16.4c1.3-2.1,4.1-4.9,4.4-7.4c0.3-1.9-2-2.1-3.2-1.3c-1.7,1.1-2.9,3.3-3.5,5.2
	c-2.5-0.4-3.7,2.1-5,3.9c-3.4,4.5-6.8,9-10.6,13.3c-10,11.2-21.1,22.8-33.9,30.7c-4.4,2.7-10.5,6.8-16,6.5
	c-6.4-0.4-2.7-9.3-1.4-12.6c4.7-12.7,10.7-25.3,16.7-37.4c1.6-3.3,3.5-6.7,4.8-10.1c0.5-1.4,0.1-3.2-1.8-2.9c-2,0.4-2.8,2.9-3.6,4.5
	c-2.1,4.3-5,7.9-7.8,11.7c-11,14.7-22.7,29.5-36.5,41.8c-3.4,3-7.1,5.5-10.9,7.9c-1.6,1-3.9,2.3-5.9,1.8c-8.4-2.2-3.2-15.8-1.2-20.7
	c8-19.9,19-39,29.4-57.7c2.9-5.2,5.7-10.5,8.7-15.6c0.7-1.2,3.2-4.2,1.3-5.5c-1.6-1.1-3.5,0.6-4.6,1.6c-3.5,3.2-7,6.2-10.5,9.3
	c-8.8,7.6-18.1,14.4-28.5,19.6c-5.1,2.5-11.4,5.2-17.2,5.4c1.1-2.7,2.3-5.3,2.6-8.2c0.2-1.9,0.2-4,0-5.9c-0.5-5.7-5-8.9-10.1-4.9
	c-6,4.8-8.9,19.1,0.4,22.1c-4.6,7.4-11.4,13.3-17.5,19.5c-13.7,13.7-28.2,26.5-45.6,35.2c-8.5,4.3-23.7,9.8-31.3,1
	c-6-6.9-1.7-18.3,1.3-25.7c8.8-21.4,22.3-39.5,38.6-55.8c5.3-5.3,11.1-10.6,17.9-13.9c1.9-0.9,5.6-3.2,7.5-1.1
	c1.5,1.6,0.6,4.3-0.1,6.1c-1.9,4.6-4.8,9-8,12.9c-1.2,1.4-4.3,3.6-3.5,5.8c1.5,3.7,6.1-2.3,7.1-3.4c4.3-5,9.4-11.5,10.2-18.3
	c0.5-4.3-0.7-8.5-5.8-8.5c-9.6,0-19.1,9.2-25.7,15.1c-17.9,16-32.3,36.5-41.8,58.6c-3.6,8.4-8,19.5-3.9,28.5
	c6.9,15.1,27.5,7.8,38.6,2.8c2.4-1.1,4.7-2.4,7-3.7c17.5-9.6,32-23.7,46-37.7c3.5-3.5,7.3-7,10.5-10.9c1.1-1.4,1.4-3.4,2.9-4.4
	c1.7-1.2,5-0.7,6.9-1.1c4.2-0.7,8.2-2.3,12.1-4c12.3-5.3,24.5-14.6,34.3-23.6c-10.4,24.2-28.6,45.8-35.7,71.4
	c-2,7.1-2.8,21.5,8.4,20.4c1.5-0.2,2.9-0.5,4.3-1.1c10.1-4.1,18.8-13.6,26.1-21.3c6.6-6.9,12.2-14.8,18.7-21.8
	c-3.7,8.8-8.2,17.2-10.5,26.5c-0.8,3.4-1.8,8.4,0.8,11.3c4.4,4.8,13.6,0.5,18.3-1.8c15.7-7.8,27.6-21.5,39.8-33.7
	c-4.4,10.4-10.6,20.1-15.3,30.4c-5.2,11.4-10.1,23.2-14,35.1c-0.6,1.8-5.4,12.6-0.7,11.5c2.9-0.7,3.4-5.7,4.2-8
	c2.7-8,5.7-15.9,8.8-23.8c10.2-25.5,27.2-48.8,49.5-65.2c6-4.4,12.4-8.2,19.5-10.3c2.6-0.7,5.5-1.9,8.2-0.9c3.4,1.2,3.8,4.6,3.2,7.7
	c-1.2,6.2-4.5,12.2-7.7,17.5c-1.6,2.7-3.5,6.4-6.1,8.3c-2.9,2-7.9,2.5-11.2,3.4c-7.6,2-15.8,4-23,7.4c-5.5,2.6-13.2,7.3-12,14.5
	c0.5,3.2,3.8,4,6.6,3.9c5.8-0.2,11.6-2.8,16.8-5.3c6.2-3.1,12.1-6.9,17.2-11.5c2.8-2.5,5.5-6.7,9-8.3c3.4-1.6,7.7-2.1,11.3-3.3
	c10.8-3.4,22.8-7.3,31.6-14.8c-3,9-6.4,17.8-9,26.9c-1.3,4.6-2.8,9.3-3.4,14c-1.2,9.9,0.9,24.1,14.4,20.3c3-0.9,5.9-2.3,8.6-3.9
	c17.4-10.2,31.9-28,44.6-43.3c4.4-5.3,8.7-10.7,12.8-16.4c1.1-1.4,4-4.5,3.2-6.5c-0.9-2.3-4.1,0-4.9,1.1c-3.7,4.7-6.9,9.8-10.7,14.4
	c-12.5,15.4-25.9,30.6-41.5,43c-4.8,3.9-14.6,11.8-20.2,5.4c-3.2-3.6-2.4-9.3-1.7-13.6c1.9-11.3,6.2-22.3,9.8-33.1
	c5.5-16.6,12.1-33.4,19.8-49.1c1.9-3.8,3.8-7.5,5.7-11.3c0.7-1.5,1.5-3.7,3.1-4.5c1.7-0.9,3.9-0.5,5.8-0.7c3.5-0.5,7.1-1.3,10.5-2.2
	c12.6-3.4,25.4-9.5,38.6-10.1c5.9-0.3,10.4,1.3,16,2.5c1.4,0.3,2.6-0.3,2.9-1.7C1825,266,1822.4,265.3,1820.7,264.8z M1502.1,312.9
	c-0.1,1.4-0.4,2.9-0.6,4.3c-0.4,2-1.1,3.7-2.1,5.5c-5-2.5-6.6-12.8-0.4-15.3C1502.5,305.9,1502.1,310.9,1502.1,312.9z M1662.3,363.4
	c-6.1,4.9-12.6,8.7-19.9,11.5c-2.2,0.9-8,3.4-9.8,0.6c-2.1-3.5,3.9-7.1,6.2-8.4c9.2-4.7,19.7-5.9,29.3-9.5
	C1667.6,359.9,1664.1,362,1662.3,363.4z M1606.6,282.3c-2.8,1.1-4.9,7.6-5.6,10.3c-0.4,1.6,0,3.5,2,2.8c2.5-0.9,5.3-8,6-10.6
	C1609.5,283,1608.5,281.6,1606.6,282.3z"/>
<path class="st0" d="M854.1,294.5l-0.4,0.8 M335.4,295.3l-0.4,0.8 M848.6,303.9h0.4l4.3-8.2C851,298,848.7,300.4,848.6,303.9z
	 M431,298.8l-0.4,0.8 M375.2,307.4c-5.8,2.9-4.6,12.8,0.8,15.1c0.9-1.8,1.6-3.5,2-5.5c0.2-1.4,0.4-2.8,0.6-4.3
	C378.8,310.7,378.7,305.6,375.2,307.4z M1032.3,317.1l-0.4-0.4 M1031.9,317.9l-0.4-0.4 M1031.2,318.3l-0.4,1.6h0.4V318.3
	 M971.5,339.7l-0.4-0.4 M1579.8,346.5l-0.1-0.3 M1627.9,349.1h0.4l0.4-1.6L1627.9,349.1z M1634.1,347.9l-0.4-0.4 M882.5,348.4
	l-0.1-0.3 M1633.3,348.3l-0.4,0.8 M694.6,349.9l-0.4-0.4 M672,367v0.4c5.1,0,11.4,0.7,11.3-6.6L672,367z"/>
</svg>
