<?xml version="1.0" encoding="utf-8"?>
<!-- Generator: Adobe Illustrator 23.1.0, SVG Export Plug-In . SVG Version: 6.00 Build 0)  -->
<svg version="1.1" id="Layer_1" xmlns="http://www.w3.org/2000/svg" xmlns:xlink="http://www.w3.org/1999/xlink" x="0px" y="0px"
	 viewBox="0 0 1871 652" style="enable-background:new 0 0 1871 652;" xml:space="preserve">
<style type="text/css">
	.st0{fill:#FFFFFF;}
</style>
<path class="st0" d="M292,224.9c-7.4,1-14.3,2.2-21.3,4.9c-32.5,13-51.6,44.5-68.6,73.1c-14.1,23.8-28,47.5-42.4,71.1
	c-10,16.4-20.4,33-32.7,47.9c-3.7,4.4-9.9,13.3-16.3,13.9c-4.7,0.4-3.4-8.5-3.1-11.2c1.2-12.3,3.4-24.4,5.9-36.5
	c7.6-37.9,18.5-75.3,23.6-113.6c1.6-12.4,5.4-32.8-5.4-42.1c-12.4-10.6-30.7-1.1-41.8,6.7c-18.8,13.5-38.6,36.6-40.2,60.8
	c-1.3,19.2,8.8,33.4,26.6,40.4c4.3,1.7,10.5,4.3,15.2,3.5c5.7-1,7.4-8.6,3-12.3c-2.7-2.2-7-2.3-10.3-3.5
	c-9.3-3.2-18.5-9.2-20.3-19.5c-1.2-6.6,0.7-13.3,3.2-19.4c6-15,17.6-28.5,30.5-38c5.4-4,15.6-11.5,22.8-9c4.9,1.7,4.6,7.5,4.6,11.7
	c0,11.4-2.1,23-4.3,34.2c-7.8,40.8-19.7,81.2-25.4,122.4c-1.6,11.9-6.2,37.9,12.2,38.8c11.4,0.5,20.9-7.8,27.9-16
	c13.7-15.8,25.1-33.2,36.1-50.9c14-22.4,27.2-45.3,40.7-68c11.9-20.1,23.5-39.6,40.5-55.9c10.6-10.1,24.1-17.6,38.8-19.6
	c6.1-0.8,17.7,4.4,21-2.8C317.3,225.1,298.5,224,292,224.9z M897.5,344.7c-1.6-5.1-8.7-6-12.1-2.2c-2.1,2.4-3.3,5.7-5,8.3
	c-3.3,5.1-6.9,9.9-10.9,14.4c-9.4,10.7-21.5,20.6-36,23c-16.4,2.8-34.2-4.9-35-23.4c24.6,0,49.7-5.7,62.9-28.9
	c3.6-6.2,5.9-13.7,5-20.9c-2-16.5-17.9-27.6-34.1-24.4c-19.4,3.8-33.4,23.3-40.9,40.4c-2.4,5.5-3.2,12.2-6,17.5
	c-8,15.7-22.5,30.4-36.4,41c-4.9,3.7-10.3,7.9-16,10.3c11.1-24.8,19.8-50.8,29.9-76c2.6-6.6,5.2-13.1,7.8-19.8
	c1.2-3.3,3-6.7,2.2-10.3c-1.1-4.9-7.7-6.2-11.2-3.3c-3.6,2.9-6.5,12.1-7.2,16.6c-1.7-1.7-2.5-4.1-3.8-6.1c-2.5-3.6-5.6-6.3-9.5-8.3
	c-27.5-13.9-52.6,14.9-64.1,36.8c-2.4,4.5-3.8,9.4-5.9,14.1c-2.3,5.1-5.7,9.8-8.7,14.4c-6.6,9.8-14,20.3-23.8,27.2
	c-4.1,2.9-10.9,5.9-14.1,0.2c-3.2-5.6-1.4-14.5-0.3-20.5c3.3-16.6,9.1-33,16.4-48.3c2.2-4.6,4.2-9.2,6.5-13.7c1.3-2.5,2.9-5.1,2.4-8
	c-0.8-5.4-7.5-7.8-11.6-4.4c-4.4,3.7-5.9,11.7-8.8,16.5c-1.3-3.3-3-6.5-5.4-9.1c-13.8-15.5-34.5-9.4-48.2,2.4
	c-12.3,10.6-16.6,25.1-24.4,38.6c-7.4,12.8-17.2,24.2-27.7,34.6c-8.1,8.1-22.5,19.6-34.6,13.5c-9.8-4.9-9.6-16.7-9.1-26.1
	c1-22.9,9.5-46.3,17.5-67.6c2.2-5.9,4.4-11.7,6.8-17.5c0.8-2,1.6-5.6,3.3-7c1.9-1.6,7.3-0.6,9.7-0.6h18.6c2.7,0,6.2,0.6,8.7-0.4
	c5.7-2.2,5.8-11.1,0-13.2c-3-1.1-7.1-0.4-10.3-0.4h-20.9c2.8-4.8,4.8-10.2,7.3-15.2c1.5-3,3.7-6.2,4-9.5c0.5-6.2-7-9.7-11.6-5.9
	c-2.1,1.7-3.1,4.7-4.3,7.1c-2.6,5.3-4.9,10.7-7.4,16c-0.9,1.9-1.8,6-3.6,7.2c-2.1,1.4-7.3,0.4-9.7,0.4h-19c-2.9,0-6.4-0.6-9.1,0.6
	c-5.9,2.4-5.2,11.4,0.8,13.2c3.1,0.9,7.1,0.3,10.3,0.3h21.3c-8.9,16.8-14.5,36.9-19.6,55.1c-1.8,6.5-2.3,14.4-5,20.5
	c-3.8,8.4-11.2,16.2-17,23.2c-5.7,6.8-12.1,13.6-19.5,18.5c-2.5,1.7-6.8,4.3-9.9,2.6c-2.8-1.6-1.8-4.9-1.2-7.4
	c1.6-6.3,4-12.3,6.4-18.2c6.3-15.7,13.8-31,15.8-47.9c1.3-10.8-4.1-20.9-15.3-23.2c-3.1-0.6-6.3-1-9.5-0.7
	c-4.8,0.3-9.3,1.4-13.7,3.2c-7.3,3-13.6,8.1-19.4,13.5c1.8-4.6,5.8-10.1,5.7-15.2c-0.1-5.5-6.4-8.6-11-5.7c-2.8,1.8-3.6,5.7-4.8,8.7
	l-7.9,20.9c-4.7,12.3-8.3,26.4-14.6,38c-2.2,4-5.5,7.6-8.5,11c-8.4,9.8-19.6,21.3-32.9,23.4c-4.1,0.6-7.8-0.4-11.8-1
	c17.5-17.6,31.2-47.4,26.8-72.6c-1-5.5-2.7-11-6.2-15.6c-13.1-17.6-40.4-13.8-54.8-0.3c-17,15.8-26.6,38.6-28.2,61.5
	c-0.8,12.4,1.4,26.7,11.4,35.2c7.7,6.6,18.8,8.5,28.5,6c3.2-0.8,6.7-3.6,9.9-3.8c1.9-0.1,4,1.6,5.7,2.2c3.5,1.3,7.3,2.1,11,2.5
	c14,1.3,24-5,35.3-12.1c-0.9,2.8-1.7,5.6-0.2,8.4c2.5,4.6,9.2,4.4,12.1,0.4c1.5-2.2,2.2-5.1,3.1-7.6c2.2-6,4.3-12,6.8-17.9
	c8.5-19.8,18.7-40.1,34.1-55.5c6.4-6.4,13.6-12,22.8-13.3c2.9-0.4,7.1-0.6,9.5,1.4c2.4,1.9,2.4,5.1,2,7.8
	c-0.8,5.9-2.7,11.5-4.6,17.1c-6.1,17.9-18.7,36.5-18.2,55.9c0.1,3.4,1.3,6.6,3.5,9.1c11.6,13.3,29.4,3.5,39.8-6.1
	c5.8-5.4,13.5-11.8,17.1-19h0.4c0,4.2,1,8.6,2.3,12.5c1.2,3.5,3,6.7,5.4,9.5c17.4,20.3,45.3,4.9,60.3-9.5c3.8-3.6,9.2-7.8,11.4-12.5
	h0.4c0,4.6,0.6,9.3,2.1,13.7c1.1,3.4,2.8,6.8,5.2,9.5c1.9,2.2,4.2,4.1,6.8,5.5c18.5,10.4,37.2-6.3,49.4-18.5
	c1.1,14.3,12.8,24.7,27.4,20.5c9.9-2.9,17.7-10.3,24.4-17.9c2.4-2.7,5.2-5.5,6.8-8.7h0.4c0.6,14.2,13.1,27.3,27.4,27.7
	c8.9,0.2,18.2-4.6,25.1-9.8c-1.5,4.4-3.3,12.5-6.6,15.8c-1.6,1.6-4.3,2.2-6.3,3c-4.3,1.7-8.6,3.5-12.9,5.2
	c-21.4,8.6-46.2,16.3-50.4,42.5c-1.4,8.9-0.4,18.8,5.1,26.2c9.5,12.8,28.8,13.1,41.1,4.4c15-10.8,21.5-32.1,27.1-48.9
	c1.6-4.8,3.4-9.6,5.1-14.4c0.7-2,1.3-5,2.7-6.6s4.3-2.4,6.2-3.3c4.1-2.1,8.2-4.1,12.2-6.5c11.3-6.8,21.4-14.8,30.8-24.2
	c3.8-3.8,8.5-8.1,11-12.9c2.8,6.6,4.4,12.9,9.9,18.2c23.1,22.5,60.2,8.4,79.8-11c7.3-7.2,13.6-15.6,18.9-24.3
	C896,353.1,898.8,349.1,897.5,344.7z M825.2,309.4c7-4.9,16.6-7.6,23.5-0.7c7.2,7.3,2.9,17.8-2.6,24.6c-11.4,14.3-28.7,17.5-46,17.5
	C801.3,335.9,813.2,317.8,825.2,309.4z M285.9,379.3c-1.4-2.1-2.3-4.5-4.6-5.9c-4.4-2.6-9.9,0.6-10.5,5.5c-0.3,3.2,2.3,5.9,3.2,8.7
	c-3.4,0.7-6.7,1.6-10.3,0.9c-11.2-2.4-15.5-15.3-14.3-25.6c2.5-21,10.3-46.7,30.3-57.6c8.2-4.5,20.6-5.6,27.2,2.5
	c3.1,3.8,4.3,9.6,4.3,14.4c0.2,15.5-5.8,30.9-14.2,43.7C294.1,370.8,290.6,376.1,285.9,379.3z M617.2,332.6
	c-2.1,16.8-11.8,32.3-23.5,44.1c-5.3,5.3-12,10.9-19.8,12c-14.8,2.1-15.4-16.8-13.9-26.9c2.4-16.2,9.4-32.1,19.6-44.8
	c4.9-6.2,11.7-12.5,19.8-13.9C616.7,300.1,618.7,320.4,617.2,332.6z M701.6,443.9c-3.8,10.7-8,21.9-15.3,30.8
	c-5.2,6.3-15,10.6-22.6,5.7c-8.8-5.8-6.7-19.1-2.3-26.9c6.4-11.4,19-15.2,30.4-19.7c5-1.9,10-4.6,15.2-5.8
	C705.7,433.4,703.4,438.7,701.6,443.9z M716.1,378.6c-5.1,4.3-11.8,9.5-18.6,10.2c-15.7,1.7-17.4-19.1-15.5-29.9
	c2.8-16,10.9-31.9,22.3-43.3c6-6,12.7-10.9,21.3-12c16.8-2.2,18.3,18.7,16.7,30.2C739.9,351.2,729.3,367.3,716.1,378.6z M1817,336.8
	c-8-2.8-11.7,8.5-15.1,13.6c-8.9,13.3-20.1,27.4-34.7,34.7c-3.6,1.8-12.3,5.9-16.2,3.3c-1.7-1.1-1-3.7-0.8-5.3
	c0.8-5.1,2.5-10,4.2-14.8c3.7-10.6,8.3-20.9,12.9-31.2c3.8-8.4,8-17.1,6.2-26.6c-1.7-8.6-8.9-14.4-15.8-19c-4.3-2.9-10-6.3-12-11.4
	c-3.1-7.7,2.8-12.7,3.6-19.8c0.5-3.6-1.7-7.6-5.6-7.9c-5.4-0.5-7.8,3-9.7,7.6c-3.6,8.3-1.6,17.1-4.8,25.1
	c-11.8,29.1-26.2,59.3-45.8,84c-4.9,6.2-10.1,12.5-16.8,16.8c-2.6,1.7-6.3,3.7-9.5,2.7c-8.4-2.6-5.1-17.9-3.9-24
	c3.1-15.9,9-31.2,15.4-46c2.8-6.5,8.1-13.6,9.6-20.5c1.4-6.3-5.2-11.7-10.9-7.7c-4.4,3.1-7.1,12-9.1,16.8c-2.3-4-4.1-8.2-7.6-11.3
	c-13.7-12-32.8-7.5-45.2,3.8c-10.2,9.2-17.4,21.3-22.8,33.7c-2.1,4.7-3,9.9-5.3,14.4c-4.5,8.7-11.7,16.7-18.6,23.6
	c-7.2,7.2-15.7,14.2-25.8,16.7c-4.2,1-9.1,1.6-12.9-0.9c-9.8-6.5-6.5-24.8-4.9-34.4c5.3-31.9,17.6-63.2,30.5-92.7
	c4.1-9.3,8.7-18.4,12.8-27.7c1.6-3.7,2.5-8.4-1.6-11c-5.3-3.4-9.4,0.8-11.7,5.3c-5.4,10.8-10.2,22-15,33.1
	c-7.8,18.1-14.8,36.6-20.5,55.5c-2.9,9.7-4.1,20.6-7.7,30c-2.4,6.2-6.8,12.1-10.5,17.5c-5.2,7.5-11.2,15.2-18.6,20.7
	c-3.1,2.3-7,4.8-11,4.7c-11.3-0.3-9.5-16.1-8.3-23.5c3.4-19.4,11.8-36.6,19.7-54.3c2.2-5,8.1-14.3,1.4-18.4
	c-3.1-1.9-7.4-1.1-9.7,1.7c-4.6,5.9-7.4,14.5-10.4,21.3c-9.1,21.1-20.8,43.1-36.6,60c-5.4,5.8-13.5,14.7-22.4,14
	c-10.9-0.8-7.3-17.2-5.7-23.9c4.3-18.6,12.5-36.2,21.1-53.2c2.6-5.1,9.9-13.8,4.3-19.2c-2.9-2.7-7.8-2.2-10.4,0.6
	c-4.7,5.2-7.5,13.5-10.6,19.8c-3.8,7.7-7.2,15.6-10.4,23.6c-1.5,3.7-2.4,7.9-4.4,11.4c-9,15.7-21.7,29.8-35.9,41
	c-5.4,4.3-11.6,7.4-17.1,11.5c8.5-25,19.6-49.4,29-74.1c2.6-6.7,5.3-13.4,7.9-20.1c1.1-3,3.3-6.6,3.3-9.9c0-5.9-7.1-9.3-11.7-5.5
	c-3.6,3-6.2,12-7.2,16.6h-0.8c-0.8-3.3-2.8-6.2-5.1-8.7c-13.5-15.5-36.3-8.9-49.7,2.7c-8.3,7.1-15.4,16.1-20.4,25.8
	c-3,5.9-5.1,12.4-8.2,18.2c-7.3,13.4-18.1,26.9-31,35.2c-13.9,8.9-37.2,14.3-49.2-1c-3.6-4.5-3.6-9.2-5.1-14.4
	c22.3,0,43.8-4.1,58.6-22.4c11.2-13.8,14.4-35.4-2-47c-2.7-1.9-5.6-3.4-8.7-4.3c-17.6-4.8-33.6,7.5-43.7,20.8
	c-2.8,3.7-5.4,7.6-7.6,11.8c-11,21-19,54.3,3.7,71c3.3,2.5,7.1,4.3,11,5.5c5.9,2,12,2.5,18.2,2.5c8.8,0,17.3-2.2,25.1-6.2
	c10.8-5.4,19.9-13.3,27.7-22.3c1.6,6.5,2.8,12.5,7,17.9c11.8,15.1,32.3,12.7,45.8,1.1c-1.2,4.4-3.3,12.4-6.4,15.8
	c-1.3,1.5-4,2.1-5.8,2.8c-4.9,2.1-9.8,4-14.8,5.9c-18.9,7.2-39.7,14-47.2,34.8c-3.5,9.6-3.8,21.3,1.3,30.4
	c8.4,15.1,29.6,17.3,42.9,7.5c15.1-11.1,21.7-32.3,27.4-49.3c2-6,3.5-15.5,7.5-20.4c1.7-2.1,5.4-3.2,7.7-4.4
	c5.1-2.5,10-5.2,14.8-8.3c12.7-8.1,23.1-18,33.4-28.9c0,16.5,13.5,27.2,29.6,22.6c10.8-3,19.6-11.3,26.7-19.6
	c2.6-3.1,5.7-6.3,7.5-9.9h0.4c0,4.6,0.2,9.2,1.5,13.7c0.8,2.7,2,5.4,3.7,7.6c11.2,14.5,30.6,7.9,41.9-2.4c5.2-4.6,9-11.4,14.4-15.5
	c0,3.8,0.9,7.5,2.2,11c1,2.7,2.5,5.3,4.3,7.6c14.7,18.5,42.9,4.3,56.6-7.5c3.6-3.1,9-7.2,11-11.5h0.4c0.3,4.3,1.4,8.5,3,12.5
	c1.4,3.2,3.5,6.3,6.1,8.7c13,11.7,31.4,5,43.3-4.7c3.9-3.2,7.1-7.4,11-10.5c0,2.9,0.5,5.7,1.6,8.4c0.9,2.4,2.1,4.6,3.8,6.5
	c10.8,11.7,27.4,5.7,37.6-3.5c19.7-17.7,32.5-42.5,44.8-65.7c3.6-6.7,6.8-13.5,9.9-20.5c1.5-3.4,3.6-7,4.2-10.6
	c4.8,4.4,10.8,7.4,15.6,11.8c2.1,2,4.4,4.4,4.4,7.6c0.1,6.5-4.9,13.9-7.4,19.8c-5.7,13.2-12.2,26.5-15.2,40.7
	c-1.8,8.4-2.9,20.2,6,25.1c6.1,3.3,14.9,2.1,21.3,0.5c19.4-5,34.2-21.9,45.6-37.4c3.8-5.2,9.3-11.9,11.2-18.2
	C1822.3,342.2,1820.7,338.1,1817,336.8z M1204.8,309.6c7.6-5.6,18.3-7.9,24.9,0.6c5.5,7.2,1.2,17.1-3.8,23.2
	c-11.7,14.3-28.6,17.5-46.1,17.5C1182.9,335.2,1191.9,319.2,1204.8,309.6z M1294.1,445.8c-3.7,10-7.6,20.7-14.6,28.9
	c-5.3,6.2-15,10.7-22.7,5.7c-8.8-5.8-6.7-19.6-2.1-27.3c6.5-10.9,18.2-14.6,29.4-19c5.2-2.1,10.5-4.8,16-6.1
	C1298.8,434,1296.3,440,1294.1,445.8z M1308.9,379c-5,4.2-11.5,9-18.2,9.8c-15.5,1.7-17.4-18.8-15.5-29.6
	c2.8-16,10.8-32.1,22.3-43.7c5.9-6,12.8-10.9,21.3-12c16.9-2.2,18.4,18.6,16.8,30.2C1333.1,351.2,1322.3,367.8,1308.9,379z
	 M1646.2,331.8c-2.4,17.2-11.6,33.1-23.8,45.2c-5.1,5-12,10.6-19.4,11.7c-15.3,2.2-15.5-17-14-27.2c2.3-16.5,9.9-33.3,20.8-46
	c4.7-5.4,10.9-11.1,18.3-12.4C1644.9,300.1,1647.8,319.7,1646.2,331.8z M1176.9,438.6c-2.7-4.7-8.6-3-13.1-3
	c-11.7,0-23.1-0.3-34.6-2.6c-6.2-1.3-12.5-3.1-18.2-5.9c-5.7-2.7-11.1-6.1-15.6-10.6c-14.7-14.4-17.1-36.4-17.1-55.9
	c12.5,3.8,28.8-0.3,40.3-5.6c39.9-18.4,62.7-77.4,33.4-114.1c-3.5-4.4-7.9-8.1-12.5-11.1c-12.8-8.3-28.3-10.9-43.3-10.9
	c-26.4,0-53.2,6.7-70.9,27.7c-12.4,14.7-17.3,33.9-15.8,52.8c0.5,6.8,2.4,17.7,8,22.3c5.2,4.2,12.1-0.5,11.3-6.7
	c-0.5-3.8-3.4-7.3-4.3-11c-2.5-9.9-1.5-20.4,1.6-30c9.2-28.3,36.7-39.2,64-41.1c11.2-0.8,23.3,0.4,33.8,4.9c4.6,2,9.2,4.6,12.9,8.1
	c26.3,24.4,12.9,67.4-11.4,88c-14.1,11.9-32.6,16.2-50.5,12.2c-6.3-1.4-11.8-4.6-17.9-6.3c10.3-25.1,20.9-50,30.9-75.2
	c1.8-4.5,5.4-10.3,5.5-15.2s-4.4-8.3-9.1-6.9c-4.6,1.3-5.7,7.1-7.3,11.1c-4.2,10.4-8.3,20.8-12.6,31.2
	c-10.8,25.7-21.2,51.6-32.4,77.1c-7.1,16.4-14.1,33.3-23.2,48.6c-7.7,13-17.1,25.6-32.1,30.5c-7.4,2.4-14.3,0.7-21.7,1.9
	c-2.9,0.5-5.2,2.3-5.9,5.2c-1.9,7.9,6.7,9.1,12.3,9.1c13.1,0,26-3.4,36.5-11.6c19.3-15,29.3-39,39.3-60.6
	c4.8-10.4,10.9-21.3,13.9-32.3c3.1,0.9,6,2.4,9.1,3.5c1.2,0.4,3,0.7,3.8,1.9c2,3.2,0.2,10.9,0.4,14.7c0.7,10,2.2,20.1,5.5,29.6
	c8.7,24.4,30.2,39,54.8,44.1c13.6,2.8,28.3,4,42.2,3C1173,449.2,1181.3,446.2,1176.9,438.6z"/>
<path class="st0" d="M384,307.9l-0.4-0.4"/>
</svg>
