<?xml version="1.0" encoding="utf-8"?>
<!-- Generator: Adobe Illustrator 23.1.0, SVG Export Plug-In . SVG Version: 6.00 Build 0)  -->
<svg version="1.1" id="Layer_1" xmlns="http://www.w3.org/2000/svg" xmlns:xlink="http://www.w3.org/1999/xlink" x="0px" y="0px"
	 viewBox="0 0 1871 652" style="enable-background:new 0 0 1871 652;" xml:space="preserve">
<style type="text/css">
	.st0{fill:#FFFFFF;}
</style>
<path class="st0" d="M166,427.7c-2.6-7.6-7.3-15-10.8-22.3c-14.6-30.9-29.6-61.8-44.9-92.4c-4.1-8.2-8-16.6-12.1-24.8
	c-1.4-2.9-2.2-7.6-6.6-7c-3.7,0.6-4.7,4.4-6.1,7.3c-3.4,7-6.7,14.1-10.2,21.1c-14.8,29.7-28.6,59.9-43.4,89.6
	c-4,8.1-8.1,16.2-11.8,24.5c-1.4,3.1-4,6.8-1.2,9.9c4.4,4.9,8.7-0.5,10.5-4.6c3.5-7.8,7.2-15.5,10.9-23.3c0.9-2,2.3-7.3,4.3-8.2
	c1.8-0.8,5.1-0.2,7.1-0.2h81.2c1.8,0,4.5-0.5,6.1,0.2c2,0.8,3.3,5.7,4.2,7.6c3.7,7.3,7.1,14.7,10.7,22c1.7,3.5,3.4,9.2,8.5,8.3
	C166,434.6,167,430.9,166,427.7z M49.4,386.7c2.7-9.3,8.7-18.5,12.9-27.3c9.8-20.2,20.6-40.3,29.2-61.1l5.5,11.2l8.5,17.7l18.9,39.4
	l9.5,20.1L49.4,386.7L49.4,386.7z M1041.4,282.6c-1.7-1.7-5.1-1.8-7-0.4c-4.2,3-7.7,9.3-10.9,13.4c-10.4,13.4-20.9,26.7-31.4,40
	c-3.3,4.1-6.5,8.2-9.7,12.4c-1.6,2.1-3.7,4.1-4.8,6.5c-5.3-5.6-9.8-12.2-14.6-18.3c-10.6-13.4-21-26.9-31.7-40.3
	c-3.4-4.3-6.8-10.7-11.2-14c-2.5-1.9-6.5,0.1-7.9,2.5c-1.6,2.8,0.4,5,2,7.1c3.5,4.7,7.2,9.3,10.8,14c10.4,13.4,20.8,26.9,31.2,40.3
	c3.3,4.2,6.5,8.5,9.9,12.7c1.8,2.2,4.2,4.6,5.4,7.1c0.7,1.4,0.4,3.4,0.4,5v47.1c0,4.6-2.1,15.4,3.4,17.3c2.8,1,6.2-0.4,7-3.4
	c1.5-6.1,0.2-14.1,0.2-20.5v-30.4c0-4.2-1-10,0.2-13.9c0.6-1.9,2.5-3.7,3.8-5.3c2.6-3.3,5.1-6.6,7.6-9.9
	c9.3-12.3,18.9-24.3,28.2-36.6c5.7-7.5,11.4-14.9,17.2-22.3C1041.7,289.9,1044.9,286.1,1041.4,282.6z M1499.1,427.7
	c-2.7-7.6-7.2-15.1-10.8-22.3c-15.3-30.8-29.7-62-45.1-92.7c-4.1-8.1-7.9-16.3-11.9-24.5c-1.4-2.9-2.3-7.9-6.8-7
	c-3.6,0.7-4.6,4.4-6,7.3c-3.5,7-6.7,14.1-10.2,21.1c-14.8,29.7-28.6,59.9-43.4,89.6c-4.1,8.1-7.8,16.3-11.8,24.5
	c-1.5,3.1-4,7.1-1.1,10.1c4.5,4.6,8.6-1,10.4-4.9c3.6-7.8,7.1-15.6,10.9-23.3c1-2.1,2.1-6.8,4.2-8.1c1.5-0.9,4.7-0.3,6.4-0.3h81.5
	c1.9,0,4.7-0.5,6.5,0.2c2.1,0.9,3.3,5.6,4.3,7.6c3.7,7.4,7.2,14.9,10.8,22.3c1.7,3.4,3.7,9.4,8.8,7.8
	C1499.3,434.2,1500.2,430.7,1499.1,427.7z M1382.4,386.7c12.5-30,29.8-58,42.2-88h0.6c12.5,30,29.7,58,42.2,88H1382.4z M342.4,292.8
	c0-4.6,1.1-11.7-5.6-11.5c-6.2,0.3-5,7.8-5,12.1v39.7c0,28,2.9,61-21.1,80.9c-3.4,2.8-7.3,5.1-11.5,6.7c-6.1,2.4-12.5,3.4-18.9,3.8
	c-7.4,0.5-14.8-0.1-22-1.8c-4.4-1.1-8.8-2.9-12.7-5.2c-27.7-16.7-26.4-51.8-26.4-79.9v-40.9c0-3.8,0.5-8-0.1-11.8
	c-0.5-3.1-4-4.3-6.8-3.5c-5.5,1.4-3.7,10.5-3.7,14.7v45.6c0,28,0.3,60.4,23.9,80c3.4,2.8,7.2,5.4,11.2,7.2c7.2,3.2,14.5,5,22.3,5.9
	c8.3,1,16.9,0.7,25.1-0.8c6.2-1.1,12.5-3,18-6.1c4.4-2.4,8.5-5.1,12.1-8.7c23.5-23.3,21.1-57.3,21.1-87.7v-38.7H342.4z M503.8,313.6
	c-20.5-26.3-54.7-32.2-86.1-32.2H401c-2.6,0-5.8-0.5-8.4,0.2c-1.7,0.5-2.8,1.8-3,3.5c-0.6,4.5-0.1,9.4-0.1,14v128.3
	c0,2-0.4,4.5,1.1,6.2c3.2,3.7,12.5,1.9,16.9,1.9c16.8,0,33.5,0,49.9-4.3c15.7-4.1,31.4-11.4,42.4-23.6
	C522.3,382.6,524.6,340.3,503.8,313.6z M483.1,407.9c-24.2,17.8-54.5,17-83.1,17v-133c26.9,0,55.1-1,79,13.5
	C515.2,327.1,516.7,383.1,483.1,407.9z M865.3,425c-7.3-1.3-15.8-0.1-23.3-0.1h-90.8v-51.2H830c1.7,0,3.9,0.3,5.6-0.3
	c2.3-0.9,2.9-3.3,2.8-5.6c-0.1-2.5-2-4.1-4.3-4.5c-5.1-1-11-0.2-16.1-0.2h-66.6v-71.3h90.8c7.3,0,15.7,1.2,22.9-0.1
	c2.8-0.5,4.5-3,4.2-5.8c-0.5-4.2-3.8-4.6-7.3-4.6H752.8c-2.7,0-6.5-0.7-9,0.4c-3.8,1.6-3.1,5.8-3.1,9.2V423c0,3-0.8,7.2,0.7,9.9
	c1.5,2.6,4.4,2.5,7,2.5H842c7.4,0,15.3,0.9,22.6-0.1c2.6-0.3,4.3-2.3,4.5-4.9C869.4,427.9,867.9,425.4,865.3,425z M1303.1,367.8
	c-22.7-18.4-54.9-16.3-80.6-28c-10.2-4.6-20.7-14.3-17-26.5c2.9-9.6,12.9-14.3,21.6-17.3c20.1-6.7,47.3-6.8,65.4,5.3
	c4.7,3.2,9,7.4,10.9,12.9c1,2.8,0.5,6.6,2.3,9c1.6,2,4.7,2.2,6.9,1.3c2.9-1.1,2-5.1,1.8-7.5c-0.5-7.7-4.3-14.6-9.9-19.8
	c-14.2-13.2-37.2-18.2-56.1-15.7c-9.7,1.3-19.3,1.8-28.5,5.4c-8,3.1-15.7,7.5-20.7,14.6c-9.5,13.6-5.5,32.4,7.4,42.2
	c7.3,5.6,16.6,8.8,25.4,11.3c17.6,5.1,36.1,7.1,53,14.5c4.8,2.1,10.3,5,13.9,8.9c5.9,6.4,7,15.9,3.8,23.9
	c-4.4,10.7-15.6,17.1-26.3,19.8c-19.7,5-44.1,4.2-61.7-7c-5-3.2-9.6-7.3-12.6-12.5c-1.7-2.9-2.3-7.1-4.6-9.6c-1.8-2-4.8-2-7-0.8
	c-3.5,1.8-2.1,6.9-1,9.7c3.1,7.9,8.7,14.7,15.6,19.6c19.5,14.1,46.7,16.5,69.7,11.9c11.7-2.4,23.3-7.5,31.2-16.6
	C1318.1,403,1317.7,379.6,1303.1,367.8z M1678.5,291.6c0-2.7,0.7-6.5-1.3-8.6c-3-3.3-8.8-1.4-9.2,3.1c-1.1,13.7,0,28.1,0,41.9v88
	c-10.1-13.4-21.9-25.7-32.8-38.4c-18.7-21.9-37.4-43.9-56.1-65.7c-6.8-7.9-13.6-15.9-20.4-23.9c-2.9-3.4-5.5-7.9-10.6-6.3
	c-3.9,1.2-3.1,6.2-3.1,9.4v134.2c0,2.7-0.7,6.4,1.4,8.6c2.8,3,8.7,1.6,9.1-2.7c1.4-13.6,0-28.1,0-41.9v-87.1
	c10.4,10.6,19.5,22.6,29.2,33.8c19.6,22.6,39.1,45.2,58.5,67.9c7,8.2,14.1,16.3,21.1,24.5c2.7,3.2,5.4,7.8,10.1,7
	c4.7-0.7,4-5.6,4-9.2L1678.5,291.6L1678.5,291.6z M1840.9,367.1c-22.3-17.7-54.2-15.8-79.4-27.1c-10.3-4.6-21.1-14.3-17.4-26.7
	c2.9-9.7,13.4-14.8,22.3-17.5c20-6.1,46.8-6.7,64.8,5.5c4.7,3.2,9,7.4,10.9,12.9c0.9,2.6,0.5,6.4,2,8.7c1.6,2.3,4.5,2.4,6.9,1.7
	c3-1,2.4-5.4,2.1-7.8c-0.9-7.6-4.1-14.3-9.8-19.5c-14.4-13.1-37-18.2-56.1-15.7c-9.8,1.3-19.1,2-28.5,5.4
	c-7.9,2.8-15.9,7.7-20.8,14.7c-9.5,13.7-5.4,32.3,7.4,42.2c6.3,4.8,14,7.6,21.4,10.1c18.7,6.2,38.5,7.8,56.7,15.7
	c4.8,2.1,10.2,4.9,13.9,8.6c6.3,6.5,7.2,16.3,3.9,24.5c-3.9,9.6-13.6,15.5-23.1,18.6c-19.9,6.6-46.8,5.5-64.8-6.1
	c-5.3-3.4-10-7.9-13.2-13.4c-1.5-2.7-1.8-6.4-4-8.6c-1.8-2-4.7-2-7-0.8c-3.6,1.8-2.1,6.8-1,9.7c3,8.3,9.4,15.3,16.5,20.3
	c19.4,13.8,47.1,15.7,69.8,10.9c11.3-2.4,22.7-7.4,30.3-16.4C1857.3,402.2,1856,379.1,1840.9,367.1z M693,428.3
	c-2.4-3.9-9.2-6.9-13-9.6c-13.3-9.5-26.9-18.6-40.3-28.1c-7.4-5.2-15.1-12.1-23.3-16c5-1.5,11.5-0.1,16.7-0.3
	c13.1-0.6,27.2-2.2,38.8-9c26.5-15.5,29.1-56.7,2.5-73.1c-20.7-12.8-47.7-10.3-71-10.3h-27.3c-2.9,0-8-1-10.1,1.3
	c-1.5,1.6-1.1,4.1-1.1,6.1v140.1c0,2.4,0.2,4.6,2.5,5.8c8.2,4.4,8.1-7.1,8.1-11.7v-49.3H591c2.2,0,5.1-0.5,7.1,0.2
	c2.2,0.7,4.3,2.8,6.2,4.1c4.2,2.9,8.5,5.9,12.7,8.9c13.3,9.4,26.7,18.5,40,27.8c7.1,5,14.3,9.9,21.4,14.9c2.6,1.9,6.3,5.5,9.6,5.7
	C691.5,436.1,695,431.5,693,428.3z M575.5,363.8v-71.3c21.7,0,44.2-1.7,65.7,0.9c9.7,1.2,21.5,3.4,29.5,9.4
	c17.8,13.5,15.4,43-4.3,53.2c-14.6,7.5-31.1,7.8-47.1,7.8H575.5L575.5,363.8z"/>
</svg>
