<?xml version="1.0" encoding="utf-8"?>
<!-- Generator: Adobe Illustrator 23.1.0, SVG Export Plug-In . SVG Version: 6.00 Build 0)  -->
<svg version="1.1" id="Layer_1" xmlns="http://www.w3.org/2000/svg" xmlns:xlink="http://www.w3.org/1999/xlink" x="0px" y="0px"
	 viewBox="0 0 1871 652" style="enable-background:new 0 0 1871 652;" xml:space="preserve">
<style type="text/css">
	.st0{fill:#FFFFFF;}
</style>
<path class="st0" d="M1169.3,12.2c-10.8-9.5-26-3.4-36,4.1c-21.3,15.9-36.1,44.8-46.4,68.7c-22.6,52.2-39,106.3-53.5,161.2
	c-8.9,34.1-11.9,69.6-32.8,98.6c-12.9,17.9-26,36-42.5,50.8c-4.4,3.9-13,13.5-19.6,12.6c-6.8-0.9-7.3-13.1-7.9-18.2
	c-2-16.1-2.2-44.8,5.8-59.2c34.1-62.2,79.2-116.1,99.2-185.6c4.6-16.4,8.8-32.8,8.5-49.9c-0.2-8-2.4-17.2-10.4-20.6
	c-9.3-3.9-20.6,1.2-27.8,7.1c-16.2,13.5-25.9,35.5-34.6,54.2c-21.5,45.8-35.1,95.9-46.7,145c-3.4,14-3.5,30.7-8.6,44.1
	c-5.2,13.3-27,36.5-39.9,42.8c-8.5,4.1-11.1-7.7-11.5-13.8c-0.8-11.1,8.9-51-11.7-49.6c-9.2,0.7-15.8,11.8-20.8,18.3
	c-14.4,18.9-29,37.7-44.5,55.7c-4.3,5-16.9,22.9-24.9,20.3c-6.3-2-1.9-19.3-1.2-23.8c3.1-21.5,8.9-42.5,12.9-63.8
	c1.3-7.1,2.7-19.8-8.6-18.3c-12.3,1.7-10.9,21.9-13.2,31.1c-5.9,23.5-14.4,52.1-10.8,76.6c3.7,25.4,32.4,16.8,46.1,5.5
	c8-6.7,15.2-14.8,21.9-22.9c11.8-14.2,22.5-29.3,34.9-42.9c0,8.2,0.3,17.4,1.9,25.5c0.8,4.1,2,8,4.2,11.6c17.2,28.2,48-3,61.2-17.4
	c0,18.8-5,45.6,8.7,61.2c8.6,9.7,22.5,7.8,33.1,2.8c20.2-9.6,41.2-32.6,51-52.4c2.7,15.5-4.1,35.3-5.6,51c-3,30.9-3.2,61.9-6.1,92.8
	c-1.2,11.9-0.9,23.9-0.9,36c0,4.4-0.7,10,3.7,12.5c10.4,6.1,14.8-5.7,14.8-13.7c0.1-26,1.3-53.1,4.3-78.9
	c3.6-30.5,4.9-61.1,9.3-91.6c1.7-12.2,2.7-26.8,7.3-38.3c9.6-23.9,29.3-46.7,43.3-68.4c25.1-39.1,48.3-79.1,68.9-120.6
	c15.5-31.1,28.8-66.2,32.9-100.9C1178,38.8,1179.8,21.5,1169.3,12.2z M988.4,144.1c8.5-19.1,18.9-40.5,35.8-53.4
	c7.8,11.6-3.7,41.2-7.8,53.4c-16.7,50.2-45.7,92.2-71.1,138h-1.2C948,236.1,970,186,988.4,144.1z M1157.7,44.3
	c-0.5,16.7-5.9,34.2-11.3,49.9c-15.9,47.7-41.2,91.6-66.9,134.6c-10.3,17.2-20.8,41.1-35.5,54.5c14.2-68.7,35-140.1,66.5-203
	c7.5-15.2,16.2-32.2,28.8-44c3.2-3.1,10.8-9.9,15.9-8.5C1159.5,29.3,1157.8,40.9,1157.7,44.3z"/>
<path class="st0" d="M722.7,615.4c-25.9-12.8-50.7-27.1-73.1-45.6C633.3,556.5,619.1,539,602,527c57.4-71.3,99.9-157.1,117.9-247.1
	c5.9-29.5,12.4-62.6,9.5-92.8c-5.9-61.7-28.3-139.2-104.2-139.2c-13.3,0-25.5,2.4-38.3,6.3C571.4,59,557.4,67,544,76.1
	c-62.4,42.9-104.6,132-105.6,207.3c-0.2,17.7,1.6,35.3,7,52.2c2.3,7.4,10.6,19,8.1,26.7c-5.7,18-14.2,35.1-19.8,53.4
	c-2.2,7.3-3,20.2-8,26.1c-8.1,9.5-44.5,13.5-37.4,34.2c5,14.5,26.4-8.1,34.9-10.4c-6.6,35.6-6.4,86.3,20.9,113.7
	c32.6,32.6,83.5,12.2,114.8-11.1c9.6-7.2,22.7-16,27.8-27.1c16,11.3,28.9,27.6,44.1,40.1c24.5,20.1,51.9,36,80,50.1
	c9,4.5,42.7,23.3,49.1,7.2C765.3,624.9,731.4,619.7,722.7,615.4z M572.7,528.1c-1.9,7.2-15,15.4-20.5,20
	c-21.7,18.1-64.8,41.9-91.6,20c-27.5-22.6-23.2-75.2-17.4-106.1c39.3,0,72.4,16.1,103.2,39.3C552.1,505.7,574.8,519.7,572.7,528.1z
	 M551,481.1c-30-21.8-65.5-38-103.2-38.7c1-23.2,14.5-46.3,23.2-67.3c24,7.5,39.3,15.4,65,6.6c6.7-2.3,29.1-8,18.2-18.9
	c-5.3-5.3-14.5-1-20.5,0.8c-12.9,3.9-23.9,6-37.1,1.7c-4.4-1.5-14.3-4.3-14.8-10c-0.7-7.4,8.9-18.9,12.2-25.4
	c12.3-24.4,26.4-49.6,43.7-70.8c4.9-5.9,22.2-12.6,22.9-19.7c0.7-6.6-7.3-10.7-13-10.2c-7.7,0.6-15.5,8.4-20.4,13.7
	c-24.2,27.4-41.5,61.7-58.5,94h-2.3c-29.9-77.4,16.5-182.8,76.6-233.6c30-25.4,70.5-45.8,110.2-30.3c47.7,18.7,56.8,81.5,56.8,125.9
	c0,85.6-31.2,172.7-74.2,245.9c-13.9,23.7-31,44.7-46.4,67.3C575.3,505.3,563.6,490.2,551,481.1z"/>
<path class="st0" d="M1311.9,359.4c-9.5,1.7-19.6,10-27.8,15c-16.2,9.7-32.2,20.3-51,24.5c-8.8,2-18.8,2-23.1-7.7
	c-5.6-12.6,2.8-31.6,5.7-44.1c26.3,8.4,51.4-11.4,63.8-33.6c6.4-11.5,10.8-29.3-1.2-39c-15.5-12.4-40,4.8-50.8,15.9
	c-10.6,10.8-15.9,24.2-25.1,35.8c-12.4,15.9-30,29.2-44.8,43c-13.8,12.9-26.7,27.3-44.1,35.5c-16,7.7-20.9-5.5-20.9-19.4
	c0-23.3,7.8-46.7,15.4-68.4c2.4-6.7,5.8-22.5-7.3-19.1c-9.6,2.4-13.2,20.3-15.9,28.4c-7.2,21.7-12.3,45.6-9.9,68.4
	c1,10,2.4,19.5,10.7,26.2c11.3,9.2,27.4,6.5,39.4,0.7c24.8-11.8,45.6-35.8,65-54.8c-1.3,6.5-1.3,13.1-1.2,19.7
	c1.2,44.5,57.4,31.7,82.4,18.2c5.9-3.1,11.6-6.6,17.4-9.9c9-5.2,33.3-14,34.6-25.8C1324.1,362.5,1318.2,358.2,1311.9,359.4z
	 M1230.4,316.9c6.6-9.7,18.3-23.3,30.5-25.9c9.7-2.1,2.3,12.1,0.1,15.4c-6.4,10.1-19.6,24.9-32.6,25.8
	C1218.9,332.9,1228.3,320.1,1230.4,316.9z M1119.4,209.9c-10.8,2.9-6.4,20,4.5,17.3C1135,224.4,1130.3,207,1119.4,209.9z"/>
<path class="st0" d="M944.2,284.5l-1.2-1.2"/>
<path class="st0" d="M1452.3,309.5c-7.1,5.3-9.2,13.8-15.3,19.4c-8.8,7.9-20.3,13.8-29.9,20.8c-17.6,12.9-34.6,27.1-51,41.5
	c-3.6-27.4-7.8-62.3,20.9-78.9c-2.4,8.6,5.9,19.1,14.7,12.1c9.6-7.7,5.9-28.4-5.5-31.9c-15.5-4.6-31.1,8.9-38.9,21
	c-11.6,17.9-14.7,40.6-13.3,61.5c0.6,8.7,6.6,23.2,3.9,31.3c-3.4,10.2-18.6,19.6-25.4,27.8c-17.4,20.6-39.2,45.2-43.3,73.1
	c-4.2,29,17.4,46.1,44.9,36.3c33.8-11.9,54.4-54.3,53.4-88.5c-0.3-10.7-9.4-31.6-5.2-41.2c3.1-7.2,15.5-14.5,21.5-19.5
	c18.2-15.2,36.4-30,55.7-43.8c1.6,18.4,17.2,35.8,16.5,54.5c-0.5,11.5-9.3,23.8-16.1,32.5c-4.5,5.7-9.9,9.9-16.6,12.8
	c-6.3-17.3,7.1-31.6,10.8-47.6c1.5-6.4-3.1-11.7-9.6-11.4c-9.7,0.5-13.2,13.1-15.9,20.6c-6.7,19.4-13.8,58.2,18.2,55.6
	c35.4-2.9,55.1-55.2,45.2-84.6c-3.2-9.6-19-32.5-13.8-42.6c5.6-10.7,23.3-10.3,25.1-24.7C1485.6,298.4,1460.5,303.1,1452.3,309.5z
	 M1323.5,515.9c-7.1,6.1-17.7,14.5-27.8,13.2c-20.3-2.7-2.1-36.5,3-45c4.6-7.8,10-15,15.5-22c9.3-11.6,19.7-22,30.2-32.5
	C1356.4,456.3,1344.9,497.3,1323.5,515.9z"/>
</svg>
